<?xml version="1.0" encoding="utf-8"?>
<!-- Generator: Adobe Illustrator 19.1.0, SVG Export Plug-In . SVG Version: 6.00 Build 0)  -->
<svg version="1.2" baseProfile="tiny" id="Layer_4" xmlns="http://www.w3.org/2000/svg" xmlns:xlink="http://www.w3.org/1999/xlink"
	 x="0px" y="0px" width="6.2px" height="6.2px" viewBox="0 0 6.2 6.2" xml:space="preserve">
<path fill="#C0D1E3" d="M4.5,3.1l1.4-1.4c0.4-0.4,0.4-1,0-1.4s-1-0.4-1.4,0L3.1,1.7L1.7,0.3c-0.4-0.4-1-0.4-1.4,0s-0.4,1,0,1.4
	l1.4,1.4L0.3,4.5c-0.4,0.4-0.4,1,0,1.4C0.5,6.1,0.7,6.2,1,6.2s0.5-0.1,0.7-0.3l1.4-1.4l1.4,1.4C4.7,6.1,5,6.2,5.2,6.2
	s0.5-0.1,0.7-0.3c0.4-0.4,0.4-1,0-1.4L4.5,3.1z"/>
</svg>
