<?xml version="1.0" encoding="utf-8"?>
<!-- Generator: Adobe Illustrator 19.1.0, SVG Export Plug-In . SVG Version: 6.00 Build 0)  -->
<svg version="1.2" baseProfile="tiny" id="Layer_4" xmlns="http://www.w3.org/2000/svg" xmlns:xlink="http://www.w3.org/1999/xlink"
	 x="0px" y="0px" width="20px" height="20px" viewBox="0 0 20 20" xml:space="preserve">
<g>
	<path fill="#FC8100" d="M10,20L10,20C4.5,20,0,15.5,0,10v0C0,4.5,4.5,0,10,0h0c5.5,0,10,4.5,10,10v0C20,15.5,15.5,20,10,20z"/>
</g>
<path fill="#FFFFFF" d="M14,12V8.8c0-1.8-1.3-3.3-3-3.7V5c0-0.6-0.4-1-1-1S9,4.4,9,5v0.1C7.3,5.6,6,7,6,8.8V12c-0.6,0-1,0.4-1,1
	s0.4,1,1,1h1c0,0.6,0.4,1,1,1s1-0.4,1-1h5c0.6,0,1-0.4,1-1S14.6,12,14,12z M8,8.8C8,7.8,8.9,7,10,7s2,0.8,2,1.8V12H8V8.8z"/>
</svg>
