<?xml version="1.0" encoding="utf-8"?>
<!-- Generator: Adobe Illustrator 19.2.1, SVG Export Plug-In . SVG Version: 6.00 Build 0)  -->
<svg version="1.2" baseProfile="tiny" id="Layer_1" xmlns="http://www.w3.org/2000/svg" xmlns:xlink="http://www.w3.org/1999/xlink"
	 x="0px" y="0px" width="80.7px" height="80px" viewBox="0 0 80.7 80" xml:space="preserve">
<g>
	<path fill="#509BC3" d="M40.4,42.4c10,0,18.1-9.5,18.1-21.2C58.5,5,50.4,0,40.4,0c-10,0-18.1,5-18.1,21.2
		C22.3,32.9,30.4,42.4,40.4,42.4z"/>
	<path fill="#509BC3" d="M80.3,73.6L71.2,53c-0.4-0.9-1.2-1.7-2.1-2.2L55,43.4c-0.3-0.2-0.7-0.1-1,0.1c-4,3-8.7,4.6-13.6,4.6
		c-4.9,0-9.6-1.6-13.6-4.6c-0.3-0.2-0.7-0.2-1-0.1l-14.2,7.4C10.7,51.3,9.9,52,9.5,53L0.4,73.6c-0.6,1.4-0.5,3,0.3,4.3
		C1.6,79.2,3,80,4.6,80h71.6c1.6,0,3-0.8,3.8-2.1C80.8,76.6,81,75,80.3,73.6z"/>
</g>
</svg>
