<?xml version="1.0" encoding="utf-8"?>
<!-- Generator: Adobe Illustrator 19.2.1, SVG Export Plug-In . SVG Version: 6.00 Build 0)  -->
<svg version="1.2" baseProfile="tiny" id="Layer_1" xmlns="http://www.w3.org/2000/svg" xmlns:xlink="http://www.w3.org/1999/xlink"
	 x="0px" y="0px" width="60px" height="96.4px" viewBox="0 0 60 96.4" xml:space="preserve">
<g>
	<polygon fill="#77CC59" points="16.1,55 19,50.2 22,55 26.4,55 21.5,47.2 26.1,40 21.6,40 19,44.2 16.5,40 12,40 16.6,47.2 
		11.7,55 	"/>
	<polygon fill="#77CC59" points="28,40 28,55 38,55 38,51 31,51 31,40 	"/>
	<path fill="#77CC59" d="M44.6,43.3c1.7,0,3.4,0.4,4.4,1.3v-3.5c-1-0.7-3-1.1-4.7-1.1c-2.9,0-5.4,1.3-5.4,4.2c0,5.1,7.5,4.4,7.5,6.5
		c0,0.7-0.6,1-2.1,1c-1.6,0-3.2-0.4-5.2-1.6v3.6c2,0.8,3.5,1.3,5.5,1.3c3.1,0,5.7-1,5.7-4.4c0-5.1-7.5-4.5-7.5-6.4
		C42.8,43.7,43.2,43.3,44.6,43.3z"/>
	<path fill="#77CC59" d="M59.5,19.5l-19-19C40.5,0.2,40.3,0,40,0H0.5C0.2,0,0,0.2,0,0.5v77C0,77.8,0.2,78,0.5,78H10v-1H1V1h39v19h19
		v57H27v1h32.5c0.3,0,0.5-0.2,0.5-0.5V20C60,19.7,59.8,19.5,59.5,19.5z M41,19V2.4L57.6,19H41z"/>
	<polygon fill="#77CC59" points="24,67 23,67 23,85 27.3,85 18.2,94.9 9.2,85 14,85 14,67 13,67 13,84 7,84 18.2,96.4 29.5,84 
		24,84 	"/>
</g>
</svg>
