<?xml version="1.0" encoding="utf-8"?>
<!-- Generator: Adobe Illustrator 19.2.1, SVG Export Plug-In . SVG Version: 6.00 Build 0)  -->
<svg version="1.2" baseProfile="tiny" id="Layer_1" xmlns="http://www.w3.org/2000/svg" xmlns:xlink="http://www.w3.org/1999/xlink"
	 x="0px" y="0px" width="118.7px" height="118.7px" viewBox="0 0 118.7 118.7" xml:space="preserve">
<path fill="#828282" d="M59.3,0C26.6,0,0,26.6,0,59.3s26.6,59.3,59.3,59.3s59.3-26.6,59.3-59.3S92,0,59.3,0z M59.3,113.5
	c-29.9,0-54.2-24.3-54.2-54.2c0-14,5.4-26.8,14.1-36.4l12.6,12.6c-3.8,3.4-6.2,8.3-6.2,13.4v20.6c0,10,8.1,18.1,18.1,18.1h31
	c2.6,0,5.1-0.7,7.5-1.7l13.4,13.4C86.1,108.1,73.3,113.5,59.3,113.5z M59.3,77.4c3.9,0,7.7-1.3,10.8-3.6l8.3,8.3
	c-1.2,0.3-2.3,0.5-3.5,0.5h-31c-7.1,0-12.9-5.8-12.9-12.9V49c0-3.8,1.7-7.3,4.6-9.8l9.4,9.4c-2.3,3.1-3.6,6.8-3.6,10.8
	C41.3,69.3,49.4,77.4,59.3,77.4z M46.4,59.3c0-2.5,0.8-5,2.2-7.1l17.8,17.8c-2.1,1.4-4.5,2.2-7.1,2.2C52.2,72.2,46.4,66.4,46.4,59.3
	z M99.4,95.7L23,19.3c9.6-8.8,22.4-14.2,36.4-14.2c29.9,0,54.2,24.3,54.2,54.2C113.5,73.3,108.1,86.1,99.4,95.7z M59.3,41.3
	c-0.3,0-0.5,0-1,0.1c-1.4,0.1-2.2,1.3-2.1,2.7c0.1,1.4,1.6,2.5,3.1,2.4c7.1,0,12.9,5.8,12.9,13.1c0,0.1,0,0.4,0,0.5
	c-0.1,1.4,1,2.4,2.4,2.5c0.1,0,0.1,0,0.2,0c1.3,0,2.5-1.1,2.6-2.5c0-0.1,0.1-0.7,0.1-0.8C77.4,49.4,69.3,41.3,59.3,41.3z M74.8,31
	h-3c-1.1-3-3.9-5.2-7.3-5.2H54.2c-3.5,0-6.5,2.4-7.4,5.6c-0.7,0.5-1.2,1.3-1.2,2.2c0,1.4,1.2,2.6,2.6,2.6H49c1.4,0,2.6-1.2,2.6-2.6
	s1.2-2.6,2.6-2.6h10.3c1.4,0,2.6,1.2,2.6,2.6s1.2,2.6,2.6,2.6h5.2c7.1,0,12.9,5.8,12.9,12.9v20.6c0,1.4-0.3,2.8-0.8,4.3
	c-0.5,1.3,0.2,2.8,1.6,3.3c0.3,0.1,0.6,0.1,0.9,0.1c1.1,0,2.1-0.7,2.4-1.7c0.7-2,1.1-4,1.1-6V49C92.9,39.1,84.8,31,74.8,31z"/>
</svg>
