<?xml version="1.0" encoding="utf-8"?>
<!-- Generator: Adobe Illustrator 19.2.1, SVG Export Plug-In . SVG Version: 6.00 Build 0)  -->
<svg version="1.2" baseProfile="tiny" id="Layer_1" xmlns="http://www.w3.org/2000/svg" xmlns:xlink="http://www.w3.org/1999/xlink"
	 x="0px" y="0px" width="57.8px" height="70.8px" viewBox="0 0 57.8 70.8" xml:space="preserve">
<g>
	<path fill="none" d="M44.6,40c-1.3,1.3-10.1,10.1-12.7,12.7l2.8,2.8l14.5-14.5c1.6-1.6,2.5-3.1,1.9-4.9
		C49.3,35.9,47.6,37.1,44.6,40z"/>
	<path fill="none" d="M40.4,54.2l0.7,0.7l11-11c1.2-1.2,1.7-2.8,1.6-4.4c-0.3,1-1,2.4-2.6,4C48.7,45.9,42.5,52.1,40.4,54.2z"/>
	<polygon fill="none" points="50.3,42.9 50.3,42.9 39.7,53.5 	"/>
	<rect x="3.1" y="15.5" transform="matrix(0.7071 -0.7071 0.7071 0.7071 -12.3112 14.2624)" fill="none" width="16" height="13"/>
	<path fill="#E0ECF0" d="M39.7,53.5l0.7,0.7c2.1-2.1,8.3-8.3,10.6-10.6c1.6-1.6,2.3-3,2.6-4c0-0.5-0.2-1-0.4-1.5
		c-0.3,1.8-1.5,3.3-2.6,4.5l-0.4,0.4h0L39.7,53.5z"/>
	<polygon fill="#E0ECF0" points="53.1,34.4 53.1,34.4 53.2,34.4 	"/>
	<path fill="#E0ECF0" d="M53.8,35.1c0,0,0.1,0.1,0.1,0.1c2.5,2.9,2.3,7.3-0.4,10.1L41.8,57c-0.4,0.4-1,0.4-1.4,0l-2.1-2.1l-2.8,2.8
		c-0.4,0.4-1,0.4-1.4,0L28.4,52L9.6,70.8h7.1l13.1-13.1l3.4,3.4c0.8,0.8,2.2,0.8,3,0l1.3-1.3l1.1,1.1c1,1,2.5,1,3.5,0l13.5-13.5
		c2.9-2.9,2.9-7.7,0-10.6L53.8,35.1z"/>
	<polygon fill="#E0ECF0" points="27.7,49.9 27.7,49.9 27.7,49.9 	"/>
	<path fill="#E0ECF0" d="M29.8,50.6l2.1,2.1c2.6-2.6,11.4-11.4,12.7-12.7c3-3,4.7-4.1,6.5-3.9c-0.1-0.4-0.3-0.8-0.6-1.3
		c-2.4-1.6-4.3-0.7-6.2,1.3L29.8,50.6z"/>
	<path fill="#E0ECF0" d="M40.4,30.8c0.2-0.2,0.5-0.2,0.7,0l2.9,2.9c1.3-1.1,2.7-1.6,4-1.7L19.5,3.6c-1.8-1.8-4.5-2.1-6.6-0.9
		l4.8,4.8C18,7.7,18,8,17.8,8.2c-0.2,0.2-0.5,0.2-0.7,0l-4.9-4.9l9.2,9.2c-0.2-0.2-0.2-0.5,0-0.7s0.5-0.2,0.7,0l2.8,2.8
		c0.2,0.2,0.2,0.5,0,0.7c-0.2,0.2-0.5,0.2-0.7,0l16.3,16.3C40.2,31.3,40.2,31,40.4,30.8z"/>
	<path fill="#B1C6D4" d="M34,57.7c0.4,0.4,1,0.4,1.4,0l2.8-2.8l2.1,2.1c0.4,0.4,1,0.4,1.4,0l11.7-11.7c2.8-2.8,2.9-7.2,0.4-10.1
		c0,0-0.1-0.1-0.1-0.1h0l-0.7-0.7l0,0L21,2.2c-2.9-2.9-7.7-2.9-10.6,0L0,12.5v2.8L11.8,3.6c0.1-0.1,0.2-0.2,0.4-0.3l4.9,4.9
		c0.2,0.2,0.5,0.2,0.7,0C18,8,18,7.7,17.8,7.5L13,2.7c2.1-1.2,4.8-0.9,6.6,0.9L48,32.1c-1.3,0-2.7,0.6-4,1.7l-2.9-2.9
		c-0.2-0.2-0.5-0.2-0.7,0c-0.2,0.2-0.2,0.5,0,0.7l2.8,2.8l0,0c-0.1,0.1-0.2,0.2-0.4,0.3L27.7,49.9l0,0L6.8,70.8h2.8L28.4,52L34,57.7
		z M50.7,42.5c1.2-1.2,2.4-2.7,2.6-4.5c0.2,0.5,0.3,1,0.4,1.5c0.1,1.6-0.4,3.2-1.6,4.4l-11,11l-0.7-0.7l-0.7-0.7l10.6-10.6
		L50.7,42.5z M50.5,34.9c0.3,0.5,0.5,0.9,0.6,1.3c0.6,1.8-0.3,3.3-1.9,4.9L34.7,55.6l-2.8-2.8l-2.1-2.1l14.5-14.5
		C46.2,34.2,48.1,33.3,50.5,34.9z"/>
	<path fill="#B1C6D4" d="M0,22.4v1.2l10,10l12.7-12.7L12.1,10.3L0,22.4z M10,32.2l-9.2-9.2l11.3-11.3l9.2,9.2L10,32.2z"/>
	<polygon fill="#B1C6D4" points="4.3,47.8 0,52.1 0,53.6 4.3,49.2 12.1,57 4.3,64.8 0,60.4 0,61.8 4.3,66.2 13.5,57 	"/>
	<path fill="#B1C6D4" d="M24.8,15.3c0.2-0.2,0.2-0.5,0-0.7L22,11.7c-0.2-0.2-0.5-0.2-0.7,0s-0.2,0.5,0,0.7l2.8,2.8
		C24.3,15.5,24.7,15.5,24.8,15.3z"/>
	<path fill="#B1C6D4" d="M19.2,52c0.2-0.2,0.2-0.5,0-0.7L10,42.1c-0.2-0.2-0.5-0.2-0.7,0c-0.2,0.2-0.2,0.5,0,0.7l9.2,9.2
		C18.7,52.2,19,52.2,19.2,52z"/>
	<path fill="#B1C6D4" d="M21.3,49.9c0.2-0.2,0.2-0.5,0-0.7L12.1,40c-0.2-0.2-0.5-0.2-0.7,0c-0.2,0.2-0.2,0.5,0,0.7l9.2,9.2
		C20.8,50.1,21.1,50.1,21.3,49.9z"/>
	<path fill="#B1C6D4" d="M23.4,47.8c0.2-0.2,0.2-0.5,0-0.7l-9.2-9.2c-0.2-0.2-0.5-0.2-0.7,0c-0.2,0.2-0.2,0.5,0,0.7l9.2,9.2
		C22.9,48,23.2,48,23.4,47.8z"/>
	<path fill="#B1C6D4" d="M25.6,45.7c0.2-0.2,0.2-0.5,0-0.7l-9.2-9.2c-0.2-0.2-0.5-0.2-0.7,0c-0.2,0.2-0.2,0.5,0,0.7l9.2,9.2
		C25,45.9,25.4,45.9,25.6,45.7z"/>
	<path fill="#B1C6D4" d="M21.3,30.1c-0.2,0.2-0.2,0.5,0,0.7l9.2,9.2c0.2,0.2,0.5,0.2,0.7,0c0.2-0.2,0.2-0.5,0-0.7L22,30.1
		C21.8,29.9,21.5,29.9,21.3,30.1z"/>
	<path fill="#B1C6D4" d="M23.4,28c-0.2,0.2-0.2,0.5,0,0.7l9.2,9.2c0.2,0.2,0.5,0.2,0.7,0c0.2-0.2,0.2-0.5,0-0.7L24.1,28
		C23.9,27.8,23.6,27.8,23.4,28z"/>
	<path fill="#B1C6D4" d="M35.5,35.8c0.2-0.2,0.2-0.5,0-0.7l-9.2-9.2c-0.2-0.2-0.5-0.2-0.7,0c-0.2,0.2-0.2,0.5,0,0.7l9.2,9.2
		C34.9,36,35.3,36,35.5,35.8z"/>
	<path fill="#B1C6D4" d="M0.1,44.3c0.2-0.2,0.2-0.5,0-0.7L0,43.5v0.9C0,44.3,0.1,44.3,0.1,44.3z"/>
	<path fill="#B1C6D4" d="M1.5,42.1c0.2,0.2,0.5,0.2,0.7,0c0.2-0.2,0.2-0.5,0-0.7L0,39.2v1.4L1.5,42.1z"/>
	<path fill="#B1C6D4" d="M4.3,40c0.2-0.2,0.2-0.5,0-0.7L0,35v1.4L3.6,40C3.8,40.2,4.1,40.2,4.3,40z"/>
</g>
</svg>
