<?xml version="1.0" encoding="utf-8"?>
<!-- Generator: Adobe Illustrator 19.2.1, SVG Export Plug-In . SVG Version: 6.00 Build 0)  -->
<svg version="1.2" baseProfile="tiny" id="Layer_1" xmlns="http://www.w3.org/2000/svg" xmlns:xlink="http://www.w3.org/1999/xlink"
	 x="0px" y="0px" width="57px" height="61.1px" viewBox="0 0 57 61.1" xml:space="preserve">
<g>
	<polygon fill="none" points="52,46 52,25.3 41.7,35.6 	"/>
	<path fill="#E0ECF0" d="M54,48.4c0,0.1,0.1,0.3,0,0.4c-0.1,0.1,0,0.2-0.1,0.3l-12,12h5.9l9.2-9.2V26.5l-3-2.5V48.4z"/>
	<rect x="44.4" y="35.4" transform="matrix(0.7071 -0.7071 0.7071 0.7071 -17.4082 44.826)" fill="#E0ECF0" width="2" height="16"/>
	<polygon fill="#E0ECF0" points="19.2,7.4 0,26.6 0,30.8 21.4,9.5 	"/>
	<polygon fill="#E0ECF0" points="8.6,1 0,9.6 0,12.2 0.9,13 10.8,3.1 	"/>
	<rect x="20.5" y="2.7" transform="matrix(0.7071 -0.7071 0.7071 0.7071 4.2322 18.5815)" fill="#E0ECF0" width="8" height="3"/>
	<polygon fill="#E0ECF0" points="0,41.2 17.8,51.2 0.2,33.5 0,33.7 	"/>
	<polygon fill="#E0ECF0" points="39.7,15.1 29.1,4.5 26.3,7.4 	"/>
	<path fill="#B1C6D4" d="M54,48.8c0.1-0.1,0-0.3,0-0.4V23.9v-1c0-0.1,0.1-0.3,0-0.4c-0.1-0.1-0.1-0.2-0.2-0.3L32,0.3
		c-0.4-0.4-1-0.4-1.4,0l-2.1,2.1l-5.7,5.7l-2.1-2.1L15,0.3c-0.4-0.4-1-0.4-1.4,0l-2.8,2.8L0.9,13L0,12.2v4.5L14.3,2.4l4.9,4.9
		l2.1,2.1L0,30.8v2.8l0.2-0.2L26.3,7.4l2.8-2.8l2.1-2.1l20.5,20.5l-12,12c-0.4,0.4-0.4,1,0,1.4l0.7,0.7l11.3,11.3L39.1,61.1h2.8
		l12-12C54,49,54,48.9,54,48.8z M52,46L41.7,35.6L52,25.3V46z"/>
	<path fill="#B1C6D4" d="M39,26.5c0.2-0.2,0.2-0.5,0-0.7L27.7,14.4c-0.2-0.2-0.5-0.2-0.7,0c-0.2,0.2-0.2,0.5,0,0.7l11.3,11.3
		C38.5,26.7,38.8,26.7,39,26.5z"/>
	<path fill="#B1C6D4" d="M22.8,18.7c-0.2,0.2-0.2,0.5,0,0.7l11.3,11.3c0.2,0.2,0.5,0.2,0.7,0c0.2-0.2,0.2-0.5,0-0.7L23.5,18.7
		C23.3,18.5,23,18.5,22.8,18.7z"/>
	<path fill="#B1C6D4" d="M18.5,22.9c-0.2,0.2-0.2,0.5,0,0.7l11.3,11.3c0.2,0.2,0.5,0.2,0.7,0c0.2-0.2,0.2-0.5,0-0.7L19.2,22.9
		C19,22.7,18.7,22.7,18.5,22.9z"/>
	<path fill="#B1C6D4" d="M34.1,47.7c-0.2-0.2-0.5-0.2-0.7,0c-0.2,0.2-0.2,0.5,0,0.7l4.2,4.2c0.2,0.2,0.5,0.2,0.7,0
		c0.2-0.2,0.2-0.5,0-0.7L34.1,47.7z"/>
	<path fill="#B1C6D4" d="M13.6,27.9c-0.2,0.2-0.2,0.5,0,0.7l16.3,16.3c0.2,0.2,0.5,0.2,0.7,0c0.2-0.2,0.2-0.5,0-0.7L14.3,27.9
		C14.1,27.7,13.8,27.7,13.6,27.9z"/>
	<path fill="#B1C6D4" d="M32,58.3c0.2,0.2,0.5,0.2,0.7,0c0.2-0.2,0.2-0.5,0-0.7L16.4,41.3c-0.2-0.2-0.5-0.2-0.7,0
		c-0.2,0.2-0.2,0.5,0,0.7L32,58.3z"/>
	<path fill="#B1C6D4" d="M7.9,33.5c-0.2,0.2-0.2,0.5,0,0.7l4.2,4.2c0.2,0.2,0.5,0.2,0.7,0c0.2-0.2,0.2-0.5,0-0.7l-4.2-4.2
		C8.4,33.3,8.1,33.3,7.9,33.5z"/>
</g>
</svg>
