<?xml version="1.0" encoding="utf-8"?>
<!-- Generator: Adobe Illustrator 19.2.1, SVG Export Plug-In . SVG Version: 6.00 Build 0)  -->
<svg version="1.2" baseProfile="tiny" id="Layer_1" xmlns="http://www.w3.org/2000/svg" xmlns:xlink="http://www.w3.org/1999/xlink"
	 x="0px" y="0px" width="60px" height="62.9px" viewBox="0 0 60 62.9" xml:space="preserve">
<g>
	<path fill="none" d="M23.9,39.5c-4.3-4.3-8.1-6.2-8.9-6l-1.7,1.5c2.5,0.7,6.3,3.6,8.8,6.2c0.8,0.8,1.6,1.7,2.4,2.6l1.8-1.8
		C25.6,41.3,24.9,40.5,23.9,39.5z"/>
	<path fill="none" d="M26.7,39.6c3.6-3.5,7-6.2,9.2-7.8c0.2-0.2,0.5-0.1,0.7,0.1c0,0,0,0,0,0c0.6-0.4,1.2-0.8,1.8-1.2c0,0,0,0,0,0
		c-0.2-0.2-0.1-0.5,0.1-0.7c1.1-0.7,1.8-1.1,1.8-1.1c0.2-0.1,0.5-0.1,0.7,0.2c0,0,0,0,0,0c1.4-0.9,3-1.8,4.6-2.6
		c0.8-0.4,1.3-1.1,1.4-2c0.6-3.9,2.2-7.3,3.6-9.8c0.2-0.6,0.4-1.2,0.6-1.8l-9.5,9.5c0.2,0.7,0,1.4-0.5,1.9c-0.8,0.8-2,0.8-2.8,0
		c-0.8-0.8-0.8-2,0-2.8c0.5-0.5,1.3-0.7,1.9-0.5l9.5-9.5c-4.5,1.7-9.8,2.6-13.4,2.2c-0.8-0.1-1.6,0.6-2,1.3l-0.1,0.2
		c-1.8,3.4-5,9.6-14.1,18.8c2,1.4,3.9,3.1,5,4.2C25.8,38.6,26.3,39.1,26.7,39.6z"/>
	<path fill="#E0ECF0" d="M26,47.8l-7,8l-0.8-0.7l7.2-8.2c-0.4-0.7-1-1.5-1.7-2.3L8,60.4l2.4,2.5h5.4l11.1-12.6
		C26.9,49.7,26.6,48.9,26,47.8z"/>
	<path fill="#E0ECF0" d="M26.7,47c0.5,0.9,0.9,1.7,1.1,2.4l1.4-1.6c0,0,0,0,0,0c0,0,0,0,0,0c0.1-0.3-0.1-1.2-0.9-2.6L26.7,47z"/>
	<path fill="#E0ECF0" d="M58.5,8.6c-1.6,1.1-2.7,1.7-4.1,2.3C52,15.5,50.7,22,51.1,26c0.1,1.1-0.3,2.2-1.2,3
		c-0.3,0.3-0.8,0.7-1.2,0.9l-0.2,0.1C45.2,31.8,39.1,35,30,44c1.1,2,1.7,3.8,0.7,5c0,0,0,0,0,0.1L18.5,62.9h7l9.4-11
		c0,0,1-2.4-1.1-5.2c10.3-10.2,17-13.9,20.6-15.9c1.2-0.7,2.1-1.9,2.2-3.3c0.4-3.3-1.6-8.3,3.3-17.5C60.3,9.1,59.3,8.1,58.5,8.6z"/>
	<path fill="#E0ECF0" d="M26.3,42.1l-1.8,1.8c0.6,0.7,1.2,1.5,1.6,2.2l1.7-1.9C27.4,43.6,26.9,42.9,26.3,42.1z"/>
	<path fill="#E0ECF0" d="M45.6,26.4C44,27.3,42.4,28.2,41,29c0.1,0.2,0.1,0.4-0.1,0.6c0,0-0.1,0.1-0.1,0.1c0,0-0.6,0.4-1.7,1.1
		c-0.2,0.1-0.5,0.1-0.7-0.1c-0.6,0.4-1.2,0.8-1.8,1.2c0.1,0.2,0.1,0.5-0.1,0.6c0,0,0,0-0.1,0.1c-2.2,1.6-5.6,4.3-9.2,7.8
		c0.5,0.6,1.1,1.3,1.6,2c9.1-9,15.3-12.2,18.7-14l0.2-0.1c0.7-0.4,1.4-1.1,1.3-2c-0.3-3.2,0.2-7.5,1.5-11.6c-1.4,2.4-3,5.9-3.6,9.8
		C46.9,25.3,46.4,26,45.6,26.4z"/>
	<path fill="#E0ECF0" d="M9.6,22.6c0.7-0.4,1.4-1.1,1.3-2c-0.3-3.2,0.2-7.5,1.5-11.6c-1.4,2.4-3,5.9-3.6,9.8c-0.1,0.8-0.7,1.6-1.4,2
		c-1.6,0.9-3.2,1.7-4.6,2.6c0.1,0.2,0.1,0.4-0.1,0.6c0,0-0.1,0.1-0.1,0.1c0,0-0.6,0.4-1.7,1.1c-0.2,0.1-0.5,0.1-0.7-0.1
		c-0.1,0.1-0.2,0.1-0.2,0.2v3.4c4.2-3.2,7.4-4.8,9.4-5.9L9.6,22.6z"/>
	<path fill="#E0ECF0" d="M13,20.4c0.1,1.1-0.3,2.2-1.2,3c-0.3,0.3-0.8,0.7-1.2,0.9l-0.2,0.1C8.2,25.6,4.7,27.4,0,31.1v5.8
		c7.8-7.1,13.1-10,16.2-11.7c1.2-0.7,2.1-1.9,2.2-3.3c0.4-3.3-1.6-8.3,3.3-17.5c0.5-0.9-0.6-1.9-1.4-1.4c-1.6,1.1-2.7,1.7-4.1,2.3
		C13.9,9.8,12.5,16.4,13,20.4z"/>
	<path fill="#B1C6D4" d="M30.7,49c1-1.1,0.5-3-0.7-5c9-9,15.2-12.2,18.5-13.9l0.2-0.1c0.5-0.2,0.9-0.6,1.2-0.9
		c0.8-0.8,1.3-1.9,1.2-3c-0.4-4,0.9-10.6,3.2-15.1c0.7-1.4,1.5-2.7,2.4-3.6c0.4-0.4,0.4-1,0-1.4c-0.4-0.4-1-0.4-1.4,0
		c-3.8,3.8-13.4,6.3-18.7,5.7c-1.5-0.2-3.1,0.8-3.9,2.4l-0.1,0.2c-1.7,3.3-4.9,9.5-14,18.6c0,0,0,0,0,0c-1.9-1.1-3.8-1.7-4.8-0.8
		c0,0-0.1,0-0.1,0L0,44.2v2.7l12.4-11c1.4,0.1,5.2,2.3,9,6.1c0.9,0.9,1.7,1.8,2.4,2.6c0.7,0.8,1.2,1.6,1.7,2.3l-7.2,8.2l0.8,0.7l7-8
		c0.6,1.1,0.9,2,0.9,2.5L15.8,62.9h2.7L30.7,49C30.7,49,30.7,49,30.7,49z M34.4,15.2l0.1-0.2c0.4-0.7,1.1-1.4,2-1.3
		c3.6,0.4,8.9-0.4,13.4-2.2L40.4,21c-0.7-0.2-1.4,0-1.9,0.5c-0.8,0.8-0.8,2,0,2.8c0.8,0.8,2,0.8,2.8,0c0.5-0.5,0.7-1.3,0.5-1.9
		l9.5-9.5c-0.2,0.6-0.4,1.2-0.6,1.8c-1.3,4.1-1.9,8.4-1.5,11.6c0.1,0.8-0.6,1.6-1.3,2l-0.2,0.1c-3.4,1.8-9.6,5-18.7,14
		c-0.5-0.7-1-1.3-1.6-2c3.6-3.5,6.9-6.1,9.2-7.8c0,0,0,0,0.1-0.1c0.2-0.2,0.2-0.4,0.1-0.6c0,0,0,0,0,0c-0.2-0.2-0.5-0.3-0.7-0.1
		c-2.3,1.6-5.6,4.3-9.2,7.8c-0.5-0.5-0.9-1-1.4-1.5c-1.1-1.1-3-2.8-5-4.2C29.4,24.8,32.7,18.5,34.4,15.2z M24.5,43.9
		c-0.7-0.9-1.5-1.8-2.4-2.6c-2.6-2.6-6.3-5.5-8.8-6.2l1.7-1.5c0.8-0.2,4.6,1.7,8.9,6c0.9,0.9,1.7,1.8,2.4,2.6
		c0.6,0.7,1.1,1.4,1.5,2.1l-1.7,1.9C25.7,45.4,25.1,44.6,24.5,43.9z M29.2,47.7C29.2,47.7,29.2,47.7,29.2,47.7
		C29.2,47.7,29.2,47.7,29.2,47.7l-1.5,1.7c-0.2-0.7-0.6-1.5-1.1-2.4l1.6-1.9C29.1,46.5,29.4,47.4,29.2,47.7z"/>
	<path fill="#B1C6D4" d="M39.1,30.8c1.1-0.7,1.7-1.1,1.7-1.1c0,0,0.1,0,0.1-0.1c0.2-0.2,0.2-0.4,0.1-0.6c0,0,0,0,0,0
		c-0.1-0.2-0.4-0.3-0.7-0.2c0,0-0.6,0.4-1.8,1.1c-0.2,0.2-0.3,0.5-0.1,0.7c0,0,0,0,0,0C38.6,30.9,38.9,30.9,39.1,30.8z"/>
	<path fill="#B1C6D4" d="M18.6,0.3c-0.4-0.4-1-0.4-1.4,0C13.8,3.7,5.4,6.1,0,6v2c3.5,0,7.9-0.8,11.7-2.2l-9.5,9.5
		c-0.7-0.2-1.4,0-1.9,0.5C0.2,15.9,0.1,16,0,16.2v2.2c0.1,0.1,0.2,0.2,0.2,0.3c0.8,0.8,2,0.8,2.8,0c0.5-0.5,0.7-1.3,0.5-1.9l9.5-9.5
		c-0.2,0.6-0.4,1.2-0.6,1.8c-1.3,4.1-1.9,8.4-1.5,11.6c0.1,0.8-0.6,1.6-1.3,2l-0.2,0.1c-2.1,1.1-5.2,2.7-9.4,5.9v2.5
		c4.7-3.7,8.2-5.5,10.4-6.7l0.2-0.1c0.5-0.2,0.9-0.6,1.2-0.9c0.8-0.8,1.3-1.9,1.2-3c-0.4-4,0.9-10.6,3.2-15.1
		c0.7-1.4,1.5-2.7,2.4-3.6C19,1.3,19,0.7,18.6,0.3z"/>
	<path fill="#B1C6D4" d="M0.9,25.1c1.1-0.7,1.7-1.1,1.7-1.1c0,0,0.1,0,0.1-0.1c0.2-0.2,0.2-0.4,0.1-0.6c0,0,0,0,0,0
		c-0.1-0.2-0.4-0.3-0.7-0.2c0,0-0.6,0.4-1.8,1.1c-0.2,0.2-0.3,0.5-0.1,0.7c0,0,0,0,0,0C0.4,25.2,0.7,25.3,0.9,25.1z"/>
</g>
</svg>
