<?xml version="1.0" encoding="utf-8"?>
<!-- Generator: Adobe Illustrator 19.2.1, SVG Export Plug-In . SVG Version: 6.00 Build 0)  -->
<svg version="1.2" baseProfile="tiny" id="Layer_1" xmlns="http://www.w3.org/2000/svg" xmlns:xlink="http://www.w3.org/1999/xlink"
	 x="0px" y="0px" width="56px" height="75px" viewBox="0 0 56 75" xml:space="preserve">
<g>
	<path fill="none" d="M27.8,47.3c-0.1,0-0.3,0.1-0.4,0.1C27.5,47.4,27.6,47.3,27.8,47.3z"/>
	<path fill="none" d="M25.3,47.6c-0.2,0-0.3,0-0.5,0C25,47.6,25.2,47.6,25.3,47.6z"/>
	<path fill="none" d="M26.6,47.5c-0.2,0-0.4,0-0.6,0.1C26.2,47.6,26.4,47.6,26.6,47.5z"/>
	<path fill="none" d="M30,46.2c-0.1,0.1-0.2,0.1-0.3,0.2C29.8,46.3,29.9,46.2,30,46.2z"/>
	<path fill="none" d="M28.8,46.9c-0.1,0-0.1,0.1-0.2,0.1C28.7,47,28.7,46.9,28.8,46.9z"/>
	<path fill="none" d="M31.8,44.3c0,0.1-0.1,0.1-0.1,0.1C31.7,44.4,31.8,44.4,31.8,44.3z"/>
	<path fill="none" d="M21.5,46.4c0.1,0,0.1,0.1,0.2,0.1c-0.5-0.3-0.9-0.6-1.4-1.1c-2.9-2.9-2.9-7.7,0-10.6c0.6-0.6,1.3-1.1,2.1-1.5
		c-0.1-0.1-0.2-0.2-0.3-0.3c-4.5-4.5-11.8-4.5-16.3,0c-4.5,4.5-4.5,11.8,0,16.3s11.8,4.5,16.3,0c0.4-0.4,0.7-0.8,1-1.2
		c-0.2-0.2-0.5-0.4-0.7-0.6C22,47.2,21.7,46.8,21.5,46.4z"/>
	<ellipse transform="matrix(0.7071 -0.7071 0.7071 0.7071 -20.8744 29.8499)" fill="none" cx="25.6" cy="40.1" rx="5.5" ry="5.5"/>
	<path fill="none" d="M22.3,46.8c0.1,0.1,0.3,0.1,0.4,0.2C22.6,47,22.4,46.9,22.3,46.8z"/>
	<path fill="none" d="M31,58.2c0,0.1,0.1,0.1,0.1,0.2C31.1,58.3,31,58.3,31,58.2z"/>
	<path fill="none" d="M32.4,37c0,0.1,0.1,0.1,0.1,0.2C32.5,37.1,32.4,37.1,32.4,37z"/>
	<rect x="37.2" y="28.9" transform="matrix(0.7071 -0.7071 0.7071 0.7071 -9.8178 38.1583)" fill="none" width="8" height="4"/>
	<path fill="none" d="M32.4,43.2c0,0.1-0.1,0.1-0.1,0.2C32.4,43.3,32.4,43.2,32.4,43.2z"/>
	<rect x="1.5" y="11.9" transform="matrix(0.5744 -0.8185 0.8185 0.5744 -9.0841 10.4164)" fill="none" width="8" height="4"/>
	<path fill="none" d="M31.4,59.4c0,0.1,0,0.2,0.1,0.3C31.5,59.6,31.4,59.5,31.4,59.4z"/>
	<path fill="none" d="M33.1,40.7c0,0.1,0,0.1,0,0.2C33.1,40.9,33.1,40.8,33.1,40.7z"/>
	<path fill="none" d="M32.9,41.9c0,0.1,0,0.2-0.1,0.2C32.8,42.1,32.8,42,32.9,41.9z"/>
	<path fill="none" d="M32.8,38.2c0,0.1,0,0.2,0.1,0.3C32.9,38.4,32.9,38.3,32.8,38.2z"/>
	<path fill="none" d="M33.1,39.5c0,0.1,0,0.2,0,0.2C33.1,39.7,33.1,39.6,33.1,39.5z"/>
	<path fill="none" d="M30.4,65.6c0,0.1-0.1,0.1-0.1,0.1C30.3,65.7,30.3,65.6,30.4,65.6z"/>
	<path fill="none" d="M31.6,60.7c0,0.1,0,0.2,0,0.2C31.7,60.9,31.7,60.8,31.6,60.7z"/>
	<path fill="none" d="M25,68.8c-0.1,0-0.1,0-0.2,0C24.9,68.8,24.9,68.8,25,68.8z"/>
	<path fill="none" d="M26.2,68.5c-0.1,0-0.2,0-0.2,0.1C26.1,68.6,26.1,68.6,26.2,68.5z"/>
	<path fill="none" d="M22.5,68.6c-0.1,0-0.2,0-0.3-0.1C22.4,68.6,22.4,68.6,22.5,68.6z"/>
	<polygon fill="none" points="20,67.6 20,67.6 20,67.6 	"/>
	<polygon fill="none" points="30.4,57.2 30.4,57.2 30.4,57.2 	"/>
	<path fill="none" d="M27.4,68.1c-0.1,0-0.1,0.1-0.2,0.1C27.3,68.2,27.4,68.1,27.4,68.1z"/>
	<path fill="none" d="M21.3,68.2c-0.1,0-0.1-0.1-0.2-0.1C21.1,68.2,21.2,68.2,21.3,68.2z"/>
	<ellipse transform="matrix(0.7071 -0.7071 0.7071 0.7071 -36.2883 35.0623)" fill="none" cx="24.2" cy="61.3" rx="5.5" ry="5.5"/>
	<path fill="none" d="M23.8,68.8c-0.1,0-0.2,0-0.2,0C23.6,68.8,23.7,68.8,23.8,68.8z"/>
	<path fill="none" d="M31.6,62c0,0.1,0,0.1,0,0.2C31.6,62.1,31.6,62,31.6,62z"/>
	<path fill="none" d="M28.6,67.4c0,0-0.1,0.1-0.1,0.1C28.5,67.5,28.5,67.5,28.6,67.4z"/>
	<path fill="none" d="M31.4,63.1c0,0.1,0,0.2-0.1,0.2C31.4,63.3,31.4,63.2,31.4,63.1z"/>
	<rect x="20.2" y="12" transform="matrix(0.7071 -0.7071 0.7071 0.7071 -2.7885 21.1866)" fill="none" width="8" height="4"/>
	<path fill="none" d="M31,64.4c0,0.1-0.1,0.1-0.1,0.2C31,64.5,31,64.4,31,64.4z"/>
	<path fill="#E0ECF0" d="M53.2,28.8c0.4,0.4,0.4,1,0,1.4L28.4,55l-0.1,0.1c0.4,0.3,0.8,0.6,1.2,1c0.4,0.4,0.7,0.8,1,1.2l0,0L56,31.6
		L53.2,28.8z"/>
	<path fill="#E0ECF0" d="M18.9,66.6c-0.4-0.4-0.7-0.8-1-1.2L8.4,75h4.2l7.4-7.4l0,0C19.6,67.3,19.2,67,18.9,66.6z"/>
	<path fill="#E0ECF0" d="M5.5,1.7L17,9.8l7.9-7.9c0.4-0.4,1-0.4,1.4,0l-0.5-0.5c-0.5-0.5-1.3-0.5-1.8,0l-7,7l-11.5-8
		C4.5-0.3,3.1-0.1,2.4,1L0,4.4v3.4L4.1,2C4.4,1.5,5,1.4,5.5,1.7z"/>
	<polygon fill="#E0ECF0" points="14.7,10.7 0,25.4 0,26.8 15.6,11.3 	"/>
	<path fill="#E0ECF0" d="M22.7,47c-0.1-0.1-0.3-0.1-0.4-0.2c-0.2-0.1-0.5-0.2-0.7-0.4c-0.1,0-0.1-0.1-0.2-0.1c0.3,0.4,0.6,0.8,1,1.2
		c0.2,0.2,0.4,0.4,0.7,0.6c0.2-0.3,0.4-0.5,0.6-0.8C23.3,47.3,23,47.2,22.7,47z"/>
	<path fill="#E0ECF0" d="M33,36.9c-0.4-0.4-0.8-0.7-1.2-1c0,0,0,0,0,0c0.2,0.3,0.4,0.7,0.6,1c0,0.1,0.1,0.1,0.1,0.2
		c0.1,0.3,0.3,0.7,0.3,1c0,0.1,0,0.2,0.1,0.3c0.1,0.3,0.1,0.7,0.2,1c0,0.1,0,0.2,0,0.2c0,0.3,0,0.7,0,1c0,0.1,0,0.1,0,0.2
		c0,0.3-0.1,0.7-0.2,1c0,0.1,0,0.2-0.1,0.2c-0.1,0.3-0.2,0.7-0.4,1c0,0.1-0.1,0.1-0.1,0.2c-0.2,0.3-0.3,0.7-0.6,1
		c0,0.1-0.1,0.1-0.1,0.1c-0.2,0.3-0.5,0.6-0.8,0.9c-0.3,0.3-0.6,0.5-0.9,0.8c-0.1,0.1-0.2,0.1-0.3,0.2c-0.3,0.2-0.6,0.4-0.9,0.5
		c-0.1,0-0.1,0.1-0.2,0.1c-0.3,0.1-0.6,0.2-0.8,0.3c-0.1,0-0.3,0.1-0.4,0.1c-0.3,0.1-0.5,0.1-0.8,0.1c-0.2,0-0.4,0-0.6,0.1
		c-0.2,0-0.4,0-0.6,0c-0.2,0-0.3,0-0.5,0c0,0-0.1,0-0.1,0c-0.2,0.4-0.5,0.8-0.8,1.1c2.9,1.7,6.6,1.3,9.1-1.1
		C35.9,44.6,35.9,39.9,33,36.9z"/>
	<path fill="#E0ECF0" d="M31,58.2c0,0.1,0.1,0.1,0.1,0.2c0.1,0.3,0.3,0.7,0.3,1c0,0.1,0,0.2,0.1,0.3c0.1,0.3,0.1,0.7,0.2,1
		c0,0.1,0,0.2,0,0.2c0,0.3,0,0.7,0,1c0,0.1,0,0.1,0,0.2c0,0.3-0.1,0.7-0.2,1c0,0.1,0,0.2-0.1,0.2c-0.1,0.3-0.2,0.7-0.4,1
		c0,0.1-0.1,0.1-0.1,0.2c-0.2,0.3-0.3,0.7-0.6,1c0,0.1-0.1,0.1-0.1,0.1c-0.2,0.3-0.5,0.6-0.8,0.9c-0.3,0.3-0.6,0.5-0.9,0.8
		c0,0-0.1,0.1-0.1,0.1c-0.3,0.2-0.6,0.4-1,0.6c-0.1,0-0.1,0.1-0.2,0.1c-0.3,0.1-0.7,0.3-1,0.4c-0.1,0-0.2,0-0.2,0.1
		c-0.3,0.1-0.7,0.1-1,0.2c-0.1,0-0.1,0-0.2,0c-0.3,0-0.7,0-1,0c-0.1,0-0.2,0-0.2,0c-0.3,0-0.7-0.1-1-0.2c-0.1,0-0.2,0-0.3-0.1
		c-0.3-0.1-0.7-0.2-1-0.3c-0.1,0-0.1-0.1-0.2-0.1c-0.4-0.2-0.7-0.3-1-0.6c0,0,0,0,0,0c0.3,0.4,0.6,0.8,1,1.2c2.9,2.9,7.7,2.9,10.6,0
		c2.9-2.9,2.9-7.7,0-10.6c-0.4-0.4-0.8-0.7-1.2-1c0,0,0,0,0,0C30.7,57.5,30.8,57.9,31,58.2z"/>
	<path fill="#B1C6D4" d="M18.9,66.6c0.4,0.4,0.8,0.7,1.2,1c0,0,0,0,0,0c0.3,0.2,0.7,0.4,1,0.6c0.1,0,0.1,0.1,0.2,0.1
		c0.3,0.1,0.7,0.3,1,0.3c0.1,0,0.2,0,0.3,0.1c0.3,0.1,0.7,0.1,1,0.2c0.1,0,0.2,0,0.2,0c0.3,0,0.7,0,1,0c0.1,0,0.1,0,0.2,0
		c0.3,0,0.7-0.1,1-0.2c0.1,0,0.2,0,0.2-0.1c0.3-0.1,0.7-0.2,1-0.4c0.1,0,0.1-0.1,0.2-0.1c0.3-0.2,0.7-0.3,1-0.6
		c0.1,0,0.1-0.1,0.1-0.1c0.3-0.2,0.6-0.5,0.9-0.8c0.3-0.3,0.5-0.6,0.8-0.9c0,0,0.1-0.1,0.1-0.1c0.2-0.3,0.4-0.6,0.6-1
		c0-0.1,0.1-0.1,0.1-0.2c0.1-0.3,0.3-0.7,0.4-1c0-0.1,0-0.2,0.1-0.2c0.1-0.3,0.1-0.7,0.2-1c0-0.1,0-0.1,0-0.2c0-0.3,0-0.7,0-1
		c0-0.1,0-0.2,0-0.2c0-0.3-0.1-0.7-0.2-1c0-0.1,0-0.2-0.1-0.3c-0.1-0.3-0.2-0.7-0.3-1c0-0.1-0.1-0.1-0.1-0.2c-0.2-0.4-0.3-0.7-0.6-1
		c0,0,0,0,0,0c-0.3-0.4-0.6-0.8-1-1.2c-0.4-0.4-0.8-0.7-1.2-1l0.1-0.1l24.7-24.7c0.4-0.4,0.4-1,0-1.4L26.3,1.9c-0.4-0.4-1-0.4-1.4,0
		L17,9.8L5.5,1.7C5,1.4,4.4,1.5,4.1,2L0,7.8v3.5l5.2-7.4l9.6,6.7l0.8,0.6L0,26.8v2.8L25.6,4.1l25.5,25.5l-18,18l-6,6l-0.6,0.6
		c-2.6-0.8-5.5-0.2-7.5,1.8c-2,2-2.6,4.9-1.9,7.5L5.6,75h2.8l9.5-9.5C18.2,65.9,18.5,66.3,18.9,66.6z M20.3,57.4
		c2.1-2.1,5.6-2.1,7.8,0c2.1,2.1,2.1,5.6,0,7.8c-2.1,2.1-5.6,2.1-7.8,0S18.1,59.6,20.3,57.4z"/>
	<path fill="#B1C6D4" d="M24.8,47.6c0.2,0,0.3,0,0.5,0c0.2,0,0.4,0,0.6,0c0.2,0,0.4,0,0.6-0.1c0.3,0,0.5-0.1,0.8-0.1
		c0.1,0,0.3-0.1,0.4-0.1c0.3-0.1,0.6-0.2,0.8-0.3c0.1,0,0.1-0.1,0.2-0.1c0.3-0.2,0.6-0.3,0.9-0.5c0.1-0.1,0.2-0.1,0.3-0.2
		c0.3-0.2,0.6-0.5,0.9-0.8c0.3-0.3,0.5-0.6,0.8-0.9c0,0,0.1-0.1,0.1-0.1c0.2-0.3,0.4-0.6,0.6-1c0-0.1,0.1-0.1,0.1-0.2
		c0.1-0.3,0.3-0.7,0.4-1c0-0.1,0-0.2,0.1-0.2c0.1-0.3,0.1-0.7,0.2-1c0-0.1,0-0.1,0-0.2c0-0.3,0-0.7,0-1c0-0.1,0-0.2,0-0.2
		c0-0.3-0.1-0.7-0.2-1c0-0.1,0-0.2-0.1-0.3c-0.1-0.3-0.2-0.7-0.3-1c0-0.1-0.1-0.1-0.1-0.2c-0.2-0.4-0.3-0.7-0.6-1
		c-0.3-0.4-0.6-0.8-1-1.2c-2-2-5-2.7-7.6-1.8c-0.2-0.2-0.4-0.4-0.6-0.6c-4.9-4.9-12.8-4.9-17.7,0c-4.9,4.9-4.9,12.8,0,17.7
		s12.8,4.9,17.7,0c0.4-0.4,0.8-0.9,1.1-1.3c0.3-0.4,0.5-0.7,0.8-1.1C24.7,47.6,24.8,47.6,24.8,47.6z M29.5,36.2
		c2.1,2.1,2.1,5.6,0,7.8c-2.1,2.1-5.6,2.1-7.8,0c-2.1-2.1-2.1-5.6,0-7.8C23.8,34.1,27.3,34.1,29.5,36.2z M22.1,49.3
		c-4.5,4.5-11.8,4.5-16.3,0s-4.5-11.8,0-16.3c4.5-4.5,11.8-4.5,16.3,0c0.1,0.1,0.2,0.2,0.3,0.3c-0.7,0.4-1.4,0.8-2.1,1.5
		c-2.9,2.9-2.9,7.7,0,10.6c0.4,0.4,0.9,0.8,1.4,1.1c0.2,0.1,0.4,0.3,0.7,0.4c0.1,0.1,0.3,0.1,0.4,0.2c0.3,0.1,0.6,0.2,0.9,0.3
		c-0.2,0.3-0.4,0.5-0.6,0.8C22.8,48.5,22.4,48.9,22.1,49.3z"/>
	<path fill="#B1C6D4" d="M29.8,12.5l-4.2-4.2l-7.1,7.1l4.2,4.2L29.8,12.5z M25.6,9.7l2.8,2.8l-5.7,5.7l-2.8-2.8L25.6,9.7z"/>
	<path fill="#B1C6D4" d="M5.1,62.7L0,67.8v1.4l5.1-5.1L7.9,67l-5.7,5.7L0,70.4c0,0.7,0.2,1.3,0.5,1.9l1.7,1.7L9.3,67L5.1,62.7z"/>
	<path fill="#B1C6D4" d="M42.6,25.3l-7.1,7.1l4.2,4.2l7.1-7.1L42.6,25.3z M36.9,32.3l5.7-5.7l2.8,2.8l-5.7,5.7L36.9,32.3z"/>
	<path fill="#B1C6D4" d="M5.9,8.1l-5.7,8.2l4.9,3.4l5.7-8.2L5.9,8.1z M4.8,18.4l-3.3-2.3l4.6-6.5l3.3,2.3L4.8,18.4z"/>
</g>
</svg>
