<?xml version="1.0" encoding="utf-8"?>
<!-- Generator: Adobe Illustrator 19.2.1, SVG Export Plug-In . SVG Version: 6.00 Build 0)  -->
<svg version="1.2" baseProfile="tiny" id="Layer_1" xmlns="http://www.w3.org/2000/svg" xmlns:xlink="http://www.w3.org/1999/xlink"
	 x="0px" y="0px" width="59.6px" height="58.4px" viewBox="0 0 59.6 58.4" xml:space="preserve">
<g>
	<polygon fill="none" points="23.7,27.1 20.7,29.8 27.3,36.4 30.1,33.5 	"/>
	<path fill="none" d="M52.4,5c0-0.7,0-1.2,0-1.7C49.1,7,43.7,8.2,40.7,8.9l-0.8,0.2c-3.9,0.9-6.7,1.6-10.5,5.3
		c-4.7,4.7-4.6,9.5-4.7,10.9l5.2,5.2C35.9,28.8,49.7,17.7,52.4,5z M30.3,24.2c0.6-2.5,4-7.8,8.9-8.9c0.3-0.1,0.5,0.1,0.6,0.4
		c0.1,0.3-0.1,0.5-0.4,0.6c-4.6,1-7.6,6.2-8.1,8.1c0,0.1-0.1,0.2-0.1,0.2c-0.1,0.1-0.3,0.2-0.5,0.1C30.4,24.8,30.3,24.5,30.3,24.2z"
		/>
	<path fill="#E0ECF0" d="M26.6,37.1L5.4,58.3l0.1,0.1h6.3l17.1-19L26.6,37.1z M18.9,47.7L9.6,58.3c0,0,0,0,0,0
		c-0.2,0.2-0.7,0-0.9-0.2c-0.2-0.2-0.4-0.7-0.2-0.9L18,46.9c0.2-0.2,0.5-0.2,0.8,0C19,47.1,19.1,47.5,18.9,47.7z M22.3,44.1
		C22.3,44.1,22.3,44.1,22.3,44.1c-0.2,0.2-0.6,0.1-0.8-0.1c-0.2-0.2-0.3-0.6-0.2-0.8l2-2.2c0.2-0.2,0.5-0.2,0.7,0
		c0.2,0.2,0.3,0.6,0.1,0.8L22.3,44.1z"/>
	<rect x="27" y="34.8" transform="matrix(0.7071 -0.7071 0.7071 0.7071 -16.45 30.8746)" fill="#E0ECF0" width="4" height="1"/>
	<path fill="#E0ECF0" d="M57.2,5.5c-0.7,0.5-1.2,0.9-1.7,1.3c1.2,6.4,0.4,15-7.8,23.2c-4.4,4.4-8,6.2-13.7,6.6L14.5,58.4h5.3
		l15.6-18.1l0.2,0.2c6.2-0.9,10.3-2.8,16.6-9.2c9-9,7.5-19.9,7-25.3C59,5,58,4.9,57.2,5.5z"/>
	<path fill="#E0ECF0" d="M29.9,30.5l4.1,4.1c5.2-0.5,8.3-2,12.3-6c8.1-8.1,8.4-16.6,7-22.6c-0.2,4.8-1.7,13.4-9.1,20.8
		c-1.5,1.5-3.3,3-5.4,4.4c-0.2,0.2-0.5,0.1-0.7-0.1c-0.2-0.2-0.1-0.5,0.1-0.7C50.8,22,52.3,10,52.4,5C49.7,17.7,35.9,28.8,29.9,30.5
		z"/>
	<polygon fill="#E0ECF0" points="32.3,35.7 31.5,34.9 28.7,37.8 29.6,38.7 	"/>
	<path fill="#E0ECF0" d="M9.7,31.3c9-9,7.5-19.9,7-25.3c-0.1-0.9-1.1-1-1.9-0.4c-0.7,0.5-1.2,0.9-1.7,1.3c1.2,6.4,0.4,15-7.8,23.2
		c-1.9,1.9-3.6,3.2-5.4,4.3v4.3C3.1,37.2,6,35,9.7,31.3z"/>
	<path fill="#E0ECF0" d="M10.9,6c-0.2,4.8-1.7,13.4-9.1,20.8c-0.6,0.6-1.2,1.1-1.8,1.7v3.5C1.3,31,2.6,30,3.9,28.6
		C12.1,20.5,12.3,12,10.9,6z"/>
	<path fill="#E0ECF0" d="M9.9,5C8.6,11.3,4.5,17.3,0,21.8v5.2C8.7,19.1,9.9,9.4,9.9,5z"/>
	<path fill="#B1C6D4" d="M47.8,30c8.2-8.2,9-16.8,7.8-23.2c-0.5-2.4-1.2-4.5-1.9-6.2C53.5,0.3,53.2,0,52.8,0c-0.4,0-0.7,0.2-0.9,0.5
		C49.4,4.9,43.7,6.2,40.2,7l-0.8,0.2C35.4,8.1,32.1,8.9,28,13c-5.2,5.2-5.4,10.6-5.3,12.3L0,45.8v2.7l20-18l6.6,6.6l2.3,2.3
		l-17.1,19h2.7l19.6-21.8C39.8,36.2,43.4,34.4,47.8,30z M29.4,14.4c3.7-3.7,6.6-4.4,10.5-5.3l0.8-0.2c3-0.7,8.4-1.9,11.6-5.6
		c0,0.4,0,1,0,1.7c0,5.1-1.5,17-14,25.3c-0.2,0.2-0.3,0.5-0.1,0.7c0.2,0.2,0.5,0.3,0.7,0.1c2.1-1.4,3.9-2.9,5.4-4.4
		c7.4-7.4,8.9-16,9.1-20.8c1.4,6,1.2,14.5-7,22.6c-4,4.1-7.2,5.6-12.3,6l-4.1-4.1l-5.2-5.2C24.8,23.9,24.7,19.1,29.4,14.4z
		 M27.3,36.4l-6.5-6.5l3-2.7l6.4,6.4l0.7,0.7L28,37.1L27.3,36.4z M28.7,37.8l2.8-2.8l0.7,0.7l-2.7,3L28.7,37.8z"/>
	<path fill="#B1C6D4" d="M24.1,41c-0.2-0.2-0.6-0.2-0.7,0l-2,2.2c-0.2,0.2-0.1,0.6,0.2,0.8c0.2,0.2,0.6,0.3,0.8,0.1c0,0,0,0,0,0
		l1.9-2.3C24.4,41.6,24.3,41.2,24.1,41z"/>
	<path fill="#B1C6D4" d="M18,46.9L8.5,57.3c-0.2,0.2,0,0.7,0.2,0.9c0.2,0.2,0.7,0.3,0.9,0.2c0,0,0,0,0,0l9.3-10.5
		c0.2-0.2,0.1-0.6-0.1-0.8C18.6,46.8,18.2,46.7,18,46.9z"/>
	<path fill="#B1C6D4" d="M30.7,24.8c0.2,0,0.4,0,0.5-0.1c0.1-0.1,0.1-0.1,0.1-0.2c0.5-2,3.5-7.1,8.1-8.1c0.3-0.1,0.4-0.3,0.4-0.6
		c-0.1-0.3-0.3-0.4-0.6-0.4c-4.9,1.1-8.2,6.4-8.9,8.9C30.3,24.5,30.4,24.8,30.7,24.8z"/>
	<path fill="#B1C6D4" d="M13.1,6.8c-0.5-2.4-1.2-4.5-1.9-6.2C11.1,0.3,10.7,0,10.4,0C10,0,9.6,0.2,9.4,0.5C7.4,4,3.3,5.6,0,6.5v2.1
		c3.1-0.8,7.2-2.2,9.9-5.2c0,0.4,0,1,0,1.7c0,4.5-1.2,14.2-9.9,22.1v1.3c0.6-0.6,1.3-1.1,1.8-1.7c7.4-7.4,8.9-16,9.1-20.8
		c1.4,6,1.2,14.5-7,22.6C2.6,30,1.3,31,0,31.9v2.4c1.8-1,3.5-2.4,5.4-4.3C13.6,21.8,14.3,13.2,13.1,6.8z"/>
</g>
</svg>
