<?xml version="1.0" encoding="utf-8"?>
<!-- Generator: Adobe Illustrator 19.2.1, SVG Export Plug-In . SVG Version: 6.00 Build 0)  -->
<svg version="1.2" baseProfile="tiny" id="Layer_1" xmlns="http://www.w3.org/2000/svg" xmlns:xlink="http://www.w3.org/1999/xlink"
	 x="0px" y="0px" width="52.6px" height="53px" viewBox="0 0 52.6 53" xml:space="preserve">
<g>
	<path fill="none" d="M33.6,26.1c-0.2-0.1-0.3-0.4-0.2-0.7l1.5-2.7c0.1-0.2,0.4-0.3,0.7-0.2c0,0,0.1,0,0.1,0.1l5.9-10.4
		c-2.1-1.1-3.7-2.9-4.5-5.1L12.6,17.4l-2.3,2.3c2.5,1.7,5.2,0.5,5.3,0.3l0,0l6.4-3.5c0.2-0.1,0.6,0,0.7,0.2c0.1,0.2,0,0.5-0.2,0.7
		l-6.2,3.4c-0.3,3.5,0.9,6.8,3.4,9.3c2.5,2.5,5.8,3.7,9.3,3.4l2.4-4.5c0.1-0.2,0.4-0.3,0.7-0.2L33.6,26.1
		C33.7,26.1,33.6,26.1,33.6,26.1z M27.2,14.8c0,0-0.1,0.1-0.1,0.1l-1.8,1c-0.2,0.1-0.5,0-0.7-0.2c-0.1-0.2,0-0.5,0.2-0.7l1.8-1
		c0.2-0.1,0.5,0,0.7,0.2C27.4,14.4,27.4,14.6,27.2,14.8z"/>
	<path fill="none" d="M42.1,11.3L47,2.9L38,6.6C38.7,8.7,40.2,10.3,42.1,11.3z"/>
	<path fill="#E0ECF0" d="M51.2,2.9l-2.6,1.2L34.9,37.4c-0.1,0.1-0.1,0.2-0.2,0.3L19.4,53h5.7l12.4-12.4c0.1-0.1,0.2-0.2,0.2-0.3
		L52.6,4.2c0.2-0.4,0.1-0.8-0.2-1.1C52.1,2.8,51.6,2.7,51.2,2.9z"/>
	<path fill="#E0ECF0" d="M41.6,12.2l-5.9,10.4c0.2,0.2,0.2,0.4,0.1,0.6l-1.5,2.7c0,0-0.1,0.1-0.1,0.1c-0.1,0.1-0.4,0.2-0.6,0.1
		l-1.5,2.6c0,0,0,0,0,0c0.2,0.1,0.3,0.4,0.2,0.7l-2.6,4.7c-0.1,0.2-1.3,2.9,0.3,5.4l3-3l9.8-23.8C42.5,12.6,42,12.4,41.6,12.2z"/>
	<path fill="#E0ECF0" d="M28.4,35.6L11,53h5.7l12.8-12.8C28.3,38.6,28.2,36.8,28.4,35.6z"/>
	<path fill="#E0ECF0" d="M43.3,11.8l3.7-9l-4.8,8.5C42.5,11.5,42.9,11.7,43.3,11.8z"/>
	<path fill="#B1C6D4" d="M34.9,22.7l-1.5,2.7c-0.1,0.2,0,0.5,0.2,0.7c0,0,0,0,0,0c0.2,0.1,0.4,0.1,0.6-0.1c0,0,0.1-0.1,0.1-0.1
		l1.5-2.7c0.1-0.2,0.1-0.5-0.1-0.6c0,0,0,0-0.1-0.1C35.4,22.3,35.1,22.4,34.9,22.7z"/>
	<path fill="#B1C6D4" d="M26.7,14l-1.8,1c-0.2,0.1-0.3,0.4-0.2,0.7c0.1,0.2,0.4,0.3,0.7,0.2l1.8-1c0,0,0.1-0.1,0.1-0.1
		c0.2-0.2,0.2-0.4,0.1-0.6C27.2,14,26.9,13.9,26.7,14z"/>
	<path fill="#B1C6D4" d="M0.7,42l2.1-2.1c0.2-0.2,0.2-0.5,0-0.7s-0.5-0.2-0.7,0L0,41.3c0,0,0,0,0,0V42c0,0,0,0,0,0
		C0.2,42.2,0.5,42.2,0.7,42z"/>
	<path fill="#B1C6D4" d="M9.2,48.4c-0.2-0.2-0.5-0.2-0.7,0L3.9,53h1.4l3.9-3.9C9.4,48.9,9.4,48.6,9.2,48.4z"/>
	<path fill="#B1C6D4" d="M1.4,47c0.2-0.2,0.2-0.5,0-0.7c-0.2-0.2-0.5-0.2-0.7,0L0,47v1.4L1.4,47z"/>
	<path fill="#B1C6D4" d="M34.9,37.4L48.6,4.1l1.1-2.7c0.2-0.4,0.1-0.8-0.2-1.1c-0.3-0.3-0.7-0.4-1.1-0.2L11.7,15.6
		c-0.1,0-0.2,0.1-0.3,0.2L0,27.2V30l9.6-9.6c1.6,1.2,3.3,1.3,4.6,1.1L0,35.7v1.4l15.4-15.4c0,3.4,1.3,6.6,3.7,9
		c2.4,2.4,5.7,3.7,9,3.7L9.5,53H11l17.4-17.4c-0.2,1.3-0.1,3,1,4.6L16.6,53h2.8l15.2-15.2C34.8,37.7,34.8,37.6,34.9,37.4z M47,2.9
		l-3.7,9c-0.4-0.1-0.8-0.3-1.2-0.5c-1.9-1-3.4-2.6-4.1-4.7L47,2.9z M30.1,39.5c-1.6-2.4-0.4-5.2-0.3-5.4l2.6-4.7
		c0.1-0.2,0-0.5-0.2-0.7c0,0,0,0,0,0c-0.2-0.1-0.5,0-0.7,0.2l-2.4,4.5c-3.5,0.3-6.8-0.9-9.3-3.4c-2.5-2.5-3.7-5.8-3.4-9.3l6.2-3.4
		c0.2-0.1,0.3-0.4,0.2-0.7c-0.1-0.2-0.4-0.3-0.7-0.2L15.7,20l0,0c-0.2,0.2-2.9,1.4-5.3-0.3l2.3-2.3L37.1,7c0.8,2.2,2.4,4.1,4.5,5.1
		c0.4,0.2,0.8,0.4,1.3,0.6l-9.8,23.8L30.1,39.5z"/>
</g>
</svg>
