<?xml version="1.0" encoding="utf-8"?>
<!-- Generator: Adobe Illustrator 19.2.1, SVG Export Plug-In . SVG Version: 6.00 Build 0)  -->
<svg version="1.2" baseProfile="tiny" id="Layer_1" xmlns="http://www.w3.org/2000/svg" xmlns:xlink="http://www.w3.org/1999/xlink"
	 x="0px" y="0px" width="55.7px" height="55.5px" viewBox="0 0 55.7 55.5" xml:space="preserve">
<g>
	<path fill="none" d="M34.9,3.3c-4.7-1.6-9.9-1-14.3,1.6l2,2C26.2,4.2,30.6,3,34.9,3.3z"/>
	<path fill="none" d="M45.4,29.7l2.2,2.2c4.4-6.3,4-14.9-1.1-20.8C49.4,17,49,24.1,45.4,29.7z"/>
	<path fill="none" d="M24,8.3l19.9,19.9c4-6.5,3.2-15.2-2.5-20.9C41.3,7.2,41,7,40.8,6.8C35.4,4.3,29,4.8,24,8.3z"/>
	<path fill="none" d="M37.2,38.5c-0.4,0.4-1,0.4-1.4,0c-0.4-0.4-0.4-1,0-1.4l1.2-1.2c-0.7-0.2-1.4,0-1.9,0.5c-0.8,0.8-0.8,2,0,2.8
		s2,0.8,2.8,0c0.5-0.5,0.7-1.3,0.5-1.9L37.2,38.5z"/>
	<path fill="none" d="M11.8,13c-0.4,0.4-1,0.4-1.4,0c-0.4-0.4-0.4-1,0-1.4l1.2-1.2c-0.7-0.2-1.4,0-1.9,0.5c-0.8,0.8-0.8,2,0,2.8
		s2,0.8,2.8,0c0.5-0.5,0.7-1.3,0.5-1.9L11.8,13z"/>
	<polygon fill="#E0ECF0" points="0,32.2 4.7,34.2 0,29.5 	"/>
	<polygon fill="#E0ECF0" points="0.4,44.1 11.8,55.5 18.8,55.5 20.8,53.5 	"/>
	<polygon fill="#E0ECF0" points="20.2,55.5 25,55.5 21.7,54 	"/>
	<path fill="#E0ECF0" d="M19.1,3.4l-0.3-0.3l-1.5,1.3l0.2,0.2C18,4.2,18.6,3.8,19.1,3.4z"/>
	<path fill="#E0ECF0" d="M49,33.3c5.4-7.4,4.8-17.9-1.9-24.6C45.6,7.2,43.8,6,42,5.1c0.3,0.3,0.6,0.5,0.9,0.8
		c1.5,1.5,2.7,3.3,3.6,5.1c5.1,5.9,5.5,14.5,1.1,20.8l-2.2-2.2c-0.4,0.6-0.8,1.1-1.2,1.6l6.4,6.4c0.4,0.4,0.4,1,0,1.4L36.2,55.5h6.9
		l12.1-13.7c0.6-0.7,0.6-1.7-0.1-2.3L49,33.3z"/>
	<path fill="#E0ECF0" d="M43.9,28.2L24,8.3c5-3.5,11.4-4,16.8-1.5c-1.8-1.6-3.8-2.8-6-3.5C30.6,3,26.2,4.2,22.6,6.8l-2-2
		C20,5.2,19.5,5.6,18.9,6l23.9,23.9C43.2,29.4,43.6,28.8,43.9,28.2z"/>
	<polygon fill="#E0ECF0" points="28.7,55.5 31.2,55.5 47.8,37.8 47.1,37.1 	"/>
	<path fill="#B1C6D4" d="M50.6,37.8l-6.4-6.4c0.4-0.5,0.8-1.1,1.2-1.6c3.6-5.6,4-12.7,1.1-18.6c-0.9-1.8-2.1-3.6-3.6-5.1
		c-0.3-0.3-0.6-0.5-0.9-0.8c-6.4-5.7-15.8-6.3-22.8-1.7c-0.6,0.4-1.1,0.8-1.6,1.2l-0.2-0.2l-4.2-4.2c-0.4-0.4-1-0.4-1.4,0L0,10.7
		v2.7l12.4-11L16,5.9l-3.7,3.7c-1.1-0.5-2.5-0.3-3.4,0.6c-1.2,1.2-1.2,3.1,0,4.2c1.2,1.2,3.1,1.2,4.2,0c0.9-0.9,1.1-2.3,0.6-3.4
		l3.7-3.7l24,24l-3.7,3.7c-1.1-0.5-2.5-0.3-3.4,0.6c-1.2,1.2-1.2,3.1,0,4.2s3.1,1.2,4.2,0c0.9-0.9,1.1-2.3,0.6-3.4l3.7-3.7l3.5,3.5
		L27.3,55.5h1.4l18.4-18.4l0.7,0.7l0.7,0.7l-15,17h2.7l14.5-16.3C51,38.7,51,38.1,50.6,37.8z M12.5,13.7c-0.8,0.8-2,0.8-2.8,0
		s-0.8-2,0-2.8c0.5-0.5,1.3-0.7,1.9-0.5l-1.2,1.2c-0.4,0.4-0.4,1,0,1.4c0.4,0.4,1,0.4,1.4,0l1.2-1.2C13.1,12.5,13,13.2,12.5,13.7z
		 M37.9,39.2c-0.8,0.8-2,0.8-2.8,0s-0.8-2,0-2.8c0.5-0.5,1.3-0.7,1.9-0.5l-1.2,1.2c-0.4,0.4-0.4,1,0,1.4c0.4,0.4,1,0.4,1.4,0
		l1.2-1.2C38.6,37.9,38.4,38.7,37.9,39.2z M20.6,4.9c4.3-2.6,9.6-3.2,14.3-1.6c2.2,0.7,4.2,1.9,6,3.5C41,7,41.3,7.2,41.5,7.4
		c5.7,5.7,6.5,14.3,2.5,20.9c-0.4,0.6-0.7,1.1-1.1,1.7L18.9,6C19.5,5.6,20,5.2,20.6,4.9z"/>
	<polygon fill="#B1C6D4" points="31.6,44.1 4.7,17.3 0,21.9 0,23.4 4.7,18.7 30.1,44.1 20.8,53.5 18.8,55.5 20.2,55.5 21.7,54 	"/>
	<path fill="#B1C6D4" d="M15.3,38.5c0.2-0.2,0.2-0.5,0-0.7l-12-12c-0.2-0.2-0.5-0.2-0.7,0c-0.2,0.2-0.2,0.5,0,0.7l12,12
		C14.8,38.7,15.1,38.7,15.3,38.5z"/>
	<path fill="#B1C6D4" d="M22.4,45.5c0.2-0.2,0.2-0.5,0-0.7l-3.5-3.5c-0.2-0.2-0.5-0.2-0.7,0c-0.2,0.2-0.2,0.5,0,0.7l3.5,3.5
		C21.9,45.7,22.2,45.7,22.4,45.5z"/>
</g>
</svg>
