<?xml version="1.0" encoding="utf-8"?>
<!-- Generator: Adobe Illustrator 19.2.1, SVG Export Plug-In . SVG Version: 6.00 Build 0)  -->
<svg version="1.2" baseProfile="tiny" id="Layer_1" xmlns="http://www.w3.org/2000/svg" xmlns:xlink="http://www.w3.org/1999/xlink"
	 x="0px" y="0px" width="54.5px" height="66px" viewBox="0 0 54.5 66" xml:space="preserve">
<g>
	<path fill="none" d="M41.5,13C31.8,3.3,25.4,1,23.9,2.4l-1.5,2.3c3.7,0,9.8,3.8,16.7,10.8c1.4,1.4,2.7,2.8,3.9,4.2l2.6-2.3
		C44.4,16,43.1,14.5,41.5,13z"/>
	<path fill="none" d="M38.8,50.2c0.1-0.4,0-0.9-0.2-1.2l-1.6-2.4l-1.7,1.1l1.1,1.7c0.1,0.1,0.1,0.2,0.1,0.4c0,0.1-0.1,0.2-0.1,0.3
		c0,0,0,0-0.1,0.1l-12.5,8.3c-0.1,0.1-0.2,0.1-0.4,0.1c-0.1,0-0.2-0.1-0.3-0.2l-1.3-1.9l-1.7,1.1l1.8,2.7c0.2,0.4,0.6,0.6,1,0.7
		c0.4,0.1,0.9,0,1.2-0.2l14-9.2C38.4,51,38.7,50.7,38.8,50.2z"/>
	<polygon fill="#E0ECF0" points="35.3,49.5 32.8,45.8 21.1,53.5 23.6,57.2 	"/>
	<polygon fill="#E0ECF0" points="20.3,54 18.6,55.1 20.1,57.4 21.8,56.3 	"/>
	<polygon fill="#E0ECF0" points="35.3,44.1 33.6,45.2 35.2,47.7 36.9,46.6 	"/>
	<path fill="#E0ECF0" d="M42.2,20.3L0,57.8v3.3c0,1.2,0.5,2.2,1.2,3l47.5-31.3C49.2,30.7,47.2,26.2,42.2,20.3z M24.8,45.8
		C24.8,45.8,24.8,45.8,24.8,45.8l-4.2,3c-0.2,0.2-0.5,0.1-0.7-0.1c-0.2-0.2-0.1-0.5,0.1-0.7l4.1-2.9c0.2-0.2,0.5-0.1,0.7,0.1
		C25,45.3,25,45.6,24.8,45.8z M44.7,31.7C44.7,31.8,44.7,31.8,44.7,31.7l-15,10.6c-0.2,0.2-0.5,0.1-0.7-0.1
		c-0.2-0.2-0.1-0.5,0.1-0.7L44.1,31c0.2-0.2,0.5-0.1,0.7,0.1C44.9,31.3,44.9,31.6,44.7,31.7z"/>
	<path fill="#E0ECF0" d="M22.5,62.7c-1-0.2-1.8-0.8-2.3-1.6l-3.2-4.9L3,65.6C3.5,65.7,3.9,66,4.4,66h6.5l5.9-3.8L19,66h7.1l12.7-8.4
		c1.1-0.7,1.4-2.3,0.7-3.4l-0.7-1l-13.6,9C24.4,62.7,23.4,62.9,22.5,62.7z"/>
	<path fill="#E0ECF0" d="M52.2,30.6c1.2-1.3-0.3-6.1-6.6-13.3l-2.6,2.3c4.5,5.2,6.9,9.6,6.9,12.5L52.2,30.6z"/>
	<path fill="#E0ECF0" d="M39.3,46.6l11.4-7.4c0,0,2.5-1.8,1.6-6.2L37,43L39.3,46.6z"/>
	<path fill="#B1C6D4" d="M22.6,0.9C22.6,0.9,22.6,0.9,22.6,0.9c-0.1,0.1-0.1,0.1-0.2,0.1c0,0,0,0.1-0.1,0.1c0,0-0.1,0-0.1,0.1L0,35
		v3.6L21.6,5.8c2.7-0.6,8.8,2.5,16.7,10.4c1.4,1.4,2.7,2.8,3.9,4.1c5,5.9,7,10.3,6.5,12.5L1.2,64.2c0.5,0.5,1.1,0.9,1.8,1.2
		l13.9-9.1l3.2,4.9c0.5,0.8,1.4,1.4,2.3,1.6c1,0.2,1.9,0,2.7-0.5l13.6-9l0.3-0.2c0.2-0.1,0.4-0.3,0.6-0.5c0.5-0.5,0.8-1.1,1-1.8
		c0.2-1,0-1.9-0.5-2.7l-0.9-1.4L37,43l15.4-10.1l1.1-0.7c0.1,0,0.1-0.1,0.2-0.1c0,0,0,0,0,0c0,0,0,0,0,0s0,0,0,0c0,0,0,0,0,0
		c3-3.1-1-10.9-10.6-20.5C33.5,2.2,25.8-1.9,22.6,0.9z M22.9,60.7c-0.4-0.1-0.8-0.3-1-0.7l-1.8-2.7l-1.5-2.2l1.7-1.1l1.5,2.3
		l1.3,1.9c0.1,0.1,0.2,0.2,0.3,0.2c0.1,0,0.3,0,0.4-0.1l12.5-8.3c0,0,0.1,0,0.1-0.1c0.1-0.1,0.1-0.2,0.1-0.3c0-0.1,0-0.3-0.1-0.4
		l-1.1-1.7l-1.6-2.4l1.7-1.1l1.6,2.5l1.6,2.4c0.2,0.4,0.3,0.8,0.2,1.2c-0.1,0.4-0.3,0.8-0.7,1l-14,9.2
		C23.7,60.7,23.3,60.8,22.9,60.7z M32.8,45.8l2.5,3.8l-11.7,7.7l-2.5-3.8L32.8,45.8z M42.9,19.7c-1.2-1.4-2.5-2.8-3.9-4.2
		C32.1,8.5,26,4.7,22.3,4.7l1.5-2.3c1.5-1.4,8,1,17.6,10.6c1.5,1.5,2.9,3,4,4.3c6.3,7.2,7.8,12,6.6,13.3l-2.3,1.5
		C49.8,29.3,47.4,24.8,42.9,19.7z"/>
	<path fill="#B1C6D4" d="M24.2,45L20,48c-0.2,0.2-0.3,0.5-0.1,0.7c0.2,0.2,0.5,0.3,0.7,0.1l4.1-2.9c0,0,0,0,0.1-0.1
		c0.2-0.2,0.2-0.4,0.1-0.6C24.7,44.9,24.4,44.9,24.2,45z"/>
	<path fill="#B1C6D4" d="M44.1,31L29.1,41.5c-0.2,0.2-0.3,0.5-0.1,0.7c0.2,0.2,0.5,0.3,0.7,0.1l14.9-10.5c0,0,0,0,0.1-0.1
		c0.2-0.2,0.2-0.4,0.1-0.6C44.6,30.9,44.3,30.8,44.1,31z"/>
	<path fill="#B1C6D4" d="M17.8,19C17.9,19,17.9,19,17.8,19l5-7.9c0.1-0.2,0.1-0.5-0.2-0.7c-0.2-0.1-0.5-0.1-0.7,0.2l-4.9,7.8
		c-0.1,0.2-0.1,0.5,0.2,0.7C17.4,19.2,17.7,19.2,17.8,19z"/>
</g>
</svg>
