<?xml version="1.0" encoding="utf-8"?>
<!-- Generator: Adobe Illustrator 19.2.1, SVG Export Plug-In . SVG Version: 6.00 Build 0)  -->
<svg version="1.2" baseProfile="tiny" id="Layer_1" xmlns="http://www.w3.org/2000/svg" xmlns:xlink="http://www.w3.org/1999/xlink"
	 x="0px" y="0px" width="61px" height="72px" viewBox="0 0 61 72" xml:space="preserve">
<g>
	<path fill="none" d="M54,44.7c0.1-0.1,0.1-0.1,0.2-0.2c-0.1,0.2-0.3,0.3-0.4,0.4L54,44.7z"/>
	<path fill="none" d="M55,37.7c0.1,0.2,0.2,0.4,0.3,0.6C55.2,38.1,55.1,37.9,55,37.7z"/>
	<path fill="none" d="M54.9,43.5c-0.2,0.3-0.4,0.7-0.6,1C54.5,44.1,54.7,43.8,54.9,43.5z"/>
	<path fill="none" d="M54.3,36.6c0.2,0.3,0.5,0.6,0.6,1C54.7,37.2,54.5,36.9,54.3,36.6z"/>
	<path fill="none" d="M55.2,42.7c-0.1,0.2-0.2,0.4-0.3,0.6C55.1,43.1,55.2,42.9,55.2,42.7z"/>
	<path fill="none" d="M47.7,39.8l-3.5-3.5c-0.2-0.2-0.2-0.5,0-0.7c0.2-0.2,0.5-0.2,0.7,0l3.5,3.5c1.4-1.7,1.4-4.3-0.2-5.9L18.2,3.3
		C16.6,1.7,14,1.6,12.3,3l7.8,7.8c0.2,0.2,0.2,0.5,0,0.7c-0.2,0.2-0.5,0.2-0.7,0l-7.8-7.8L5.9,9.4l4.2,4.2l2.1-2.1
		c0.8-0.8,2-0.8,2.8,0c0.4,0.4,0.6,0.9,0.6,1.4c0.4,0,0.9,0.1,1.2,0.4c0.6,0.6,0.6,1.5,0,2.1l-2.5,2.5l20.5,20.5l2.1-2.1
		c0.8-0.8,2-0.8,2.8,0c0.4,0.4,0.6,0.9,0.6,1.4c0.4,0,0.9,0.1,1.2,0.4c0.6,0.6,0.6,1.5,0,2.1l-2.5,2.5l2.8,2.8L47.7,39.8z
		 M25.7,17.2c-0.2,0.2-0.5,0.2-0.7,0l-2.8-2.8c-0.2-0.2-0.2-0.5,0-0.7c0.2-0.2,0.5-0.2,0.7,0l2.8,2.8C25.9,16.7,25.9,17,25.7,17.2z"
		/>
	<path fill="none" d="M14.4,12.2c-0.4-0.4-1-0.4-1.4,0l-2.1,2.1l-1.4,1.4l-2.1,2.1c-0.4,0.4-0.4,1,0,1.4s1,0.4,1.4,0l2.1-2.1
		l1.4-1.4l2.1-2.1C14.8,13.2,14.8,12.6,14.4,12.2z"/>
	<path fill="none" d="M24.3,47.6c0.8-0.8,0.8-2,0-2.8L6.7,27.1c-0.8-0.8-2-0.8-2.8,0s-0.8,2,0,2.8l17.7,17.7
		C22.3,48.3,23.5,48.3,24.3,47.6z"/>
	<path fill="none" d="M33.5,44l5.7-5.7c0.4-0.4,0.4-1,0-1.4s-1-0.4-1.4,0l-5.7,5.7c-0.4,0.4-0.4,1,0,1.4S33.1,44.4,33.5,44z"/>
	<path fill="#E0ECF0" d="M34.2,44.7c-0.4,0.4-0.9,0.6-1.5,0.6c0,0.4,0.1,0.9,0.4,1.2c0.6,0.6,1.5,0.6,2.1,0l2.5-2.5l-1.4-1.4
		L34.2,44.7z"/>
	<path fill="#E0ECF0" d="M41.7,38c-0.3-0.3-0.8-0.5-1.2-0.4c0,0.5-0.2,1.1-0.6,1.5l-2.1,2.1l1.4,1.4l2.5-2.5
		C42.2,39.6,42.2,38.6,41.7,38z"/>
	<path fill="#E0ECF0" d="M16.9,13.3c-0.3-0.3-0.8-0.5-1.2-0.4c0,0.5-0.2,1.1-0.6,1.5L13,16.5l1.4,1.4l2.5-2.5
		C17.5,14.8,17.5,13.9,16.9,13.3z"/>
	<path fill="#E0ECF0" d="M9.5,20c-0.4,0.4-0.9,0.6-1.5,0.6c0,0.4,0.1,0.9,0.4,1.2c0.6,0.6,1.5,0.6,2.1,0l2.5-2.5l-1.4-1.4L9.5,20z"
		/>
	<polygon fill="#E0ECF0" points="42,48.3 18.3,72 23.9,72 44.8,51.1 	"/>
	<path fill="#E0ECF0" d="M52.4,37.4l-1-1c0,1.5-0.6,2.9-1.6,4l2.8,2.8C54,41.6,54,39,52.4,37.4z"/>
	<rect x="43.7" y="43.4" transform="matrix(0.7071 -0.7071 0.7071 0.7071 -18.1757 47.0123)" fill="#E0ECF0" width="8" height="4"/>
	<path fill="#E0ECF0" d="M54,36.3c0.1,0.1,0.1,0.1,0.2,0.2c0,0,0.1,0.1,0.1,0.1c0.2,0.3,0.5,0.6,0.6,1c0,0,0,0.1,0.1,0.1
		c0.1,0.2,0.2,0.4,0.3,0.6c0.5,1.4,0.5,3,0,4.4c-0.1,0.2-0.2,0.4-0.3,0.6c0,0,0,0.1-0.1,0.1c-0.2,0.3-0.4,0.7-0.6,1
		c0,0-0.1,0.1-0.1,0.1c-0.1,0.1-0.1,0.1-0.2,0.2L53.8,45c0,0,0,0,0,0l-27,27h9.9l22.8-22.8c2.1-2.1,2.1-5.5,0-7.6L54,36.3z"/>
	<path fill="#B1C6D4" d="M53.8,45c0.1-0.1,0.3-0.3,0.4-0.4c0,0,0.1-0.1,0.1-0.1c0.2-0.3,0.5-0.6,0.6-1c0,0,0-0.1,0.1-0.1
		c0.1-0.2,0.2-0.4,0.3-0.6c0.5-1.4,0.5-3,0-4.4c-0.1-0.2-0.2-0.4-0.3-0.6c0,0,0-0.1-0.1-0.1c-0.2-0.3-0.4-0.7-0.6-1
		c0,0-0.1-0.1-0.1-0.1c-0.1-0.2-0.3-0.3-0.4-0.5l-3.3-3.3c-0.1-0.1-0.2-0.2-0.3-0.2c-0.2-0.3-0.4-0.5-0.6-0.7L19.6,1.9
		c-2.5-2.5-6.5-2.5-9,0L0,12.5v2.8l4.5-4.5L8.8,15l-2.1,2.1c-0.8,0.8-0.8,2,0,2.8C7,20.4,7.5,20.6,8,20.6c0.5,0,1.1-0.2,1.5-0.6
		l2.1-2.1l1.4,1.4l20.5,20.5l-2.1,2.1c-0.8,0.8-0.8,2,0,2.8c0.4,0.4,0.9,0.6,1.4,0.6c0.5,0,1.1-0.2,1.5-0.6l2.1-2.1l1.4,1.4l2.8,2.8
		L15.5,72h2.8L42,48.3l2.8,2.8L23.9,72h2.8L53.8,45C53.8,45,53.8,45,53.8,45z M51.4,36.4l1,1c1.6,1.6,1.7,4.2,0.2,5.9l-2.8-2.8
		C50.8,39.3,51.3,37.9,51.4,36.4z M10.9,17.2l-2.1,2.1c-0.4,0.4-1,0.4-1.4,0s-0.4-1,0-1.4l2.1-2.1l1.4-1.4l2.1-2.1
		c0.4-0.4,1-0.4,1.4,0s0.4,1,0,1.4l-2.1,2.1L10.9,17.2z M32.1,42.6l5.7-5.7c0.4-0.4,1-0.4,1.4,0s0.4,1,0,1.4L33.5,44
		c-0.4,0.4-1,0.4-1.4,0S31.7,43,32.1,42.6z M39.2,42.6l-1.4-1.4l2.1-2.1c0.4-0.4,0.6-0.9,0.6-1.5c0-0.5-0.2-1-0.6-1.4
		c-0.8-0.8-2-0.8-2.8,0l-2.1,2.1L14.4,17.9L13,16.5l2.1-2.1c0.4-0.4,0.6-0.9,0.6-1.5c0-0.5-0.2-1-0.6-1.4c-0.8-0.8-2-0.8-2.8,0
		l-2.1,2.1L5.9,9.4l5.7-5.7l7.8,7.8c0.2,0.2,0.5,0.2,0.7,0c0.2-0.2,0.2-0.5,0-0.7L12.3,3c1.7-1.4,4.3-1.4,5.9,0.2l29.9,29.9
		c1.6,1.6,1.7,4.2,0.2,5.9l-3.5-3.5c-0.2-0.2-0.5-0.2-0.7,0c-0.2,0.2-0.2,0.5,0,0.7l3.5,3.5L42,45.4L39.2,42.6z M43.4,46.9l5.7-5.7
		l2.8,2.8l-5.7,5.7L43.4,46.9z"/>
	<path fill="#B1C6D4" d="M25,48.3c1.2-1.2,1.2-3.1,0-4.2L7.4,26.4c-1.2-1.2-3.1-1.2-4.2,0c-1.2,1.2-1.2,3.1,0,4.2l17.7,17.7
		C22,49.4,23.9,49.4,25,48.3z M3.8,27.1c0.8-0.8,2-0.8,2.8,0l17.7,17.7c0.8,0.8,0.8,2,0,2.8s-2,0.8-2.8,0L3.8,29.9
		C3,29.1,3,27.8,3.8,27.1z"/>
	<path fill="#B1C6D4" d="M0,35v1.1c0.3,0.2,0.5,0.3,0.8,0.6l14.6,14.6c1.4,1.4,1.4,3.8,0,5.2L1.2,70.7c0.2,0.2,0.5,0.5,0.8,0.6
		l14.1-14.1c1.8-1.8,1.8-4.8,0-6.6L1.5,36C1,35.6,0.5,35.3,0,35z"/>
	<path fill="#B1C6D4" d="M22.9,13.6c-0.2-0.2-0.5-0.2-0.7,0c-0.2,0.2-0.2,0.5,0,0.7l2.8,2.8c0.2,0.2,0.5,0.2,0.7,0
		c0.2-0.2,0.2-0.5,0-0.7L22.9,13.6z"/>
</g>
</svg>
