<svg id="Layer_1" data-name="Layer 1" xmlns="http://www.w3.org/2000/svg" viewBox="0 0 28.87 28.87"><defs><style>.cls-1{fill:#3b5998;}.cls-2{fill:#fff;fill-rule:evenodd;}</style></defs><title>fb-ico</title><rect class="cls-1" width="28.87" height="28.87"/><path class="cls-2" d="M102.25,107.21c.48,0,1,0,1.45,0h.2v-2.52c-.26,0-.53-.06-.8-.08-.5,0-1,0-1.49,0a3.66,3.66,0,0,0-2.1.65,3.15,3.15,0,0,0-1.27,2.1,7.33,7.33,0,0,0-.09,1.08c0,.57,0,1.13,0,1.7v.21H95.74v2.81h2.4v7.07h2.93v-7.06h2.39l.37-2.83H101s0-1.39,0-2C101.09,107.48,101.58,107.23,102.25,107.21Z" transform="translate(-85.38 -97.92)"/></svg>