<svg xmlns="http://www.w3.org/2000/svg" viewBox="0 0 224.13 58.12"><defs><style>.cls-1{fill:#fff;}</style></defs><title>Ресурс 5</title><g id="Слой_2" data-name="Слой 2"><g id="Layer_1" data-name="Layer 1"><path class="cls-1" d="M125.56,56.05V47H127v3.79h1.79L131.37,47H133l-3,4.43,3.25,4.67H131.6l-2.74-3.94H127v3.94Z"/><path class="cls-1" d="M134,56.05l3.85-9.1h1.63l3.83,9.1h-1.56l-.8-2h-4.57l-.8,2Zm2.89-3.26h3.53l-1.59-3.89a4.32,4.32,0,0,1-.17-.51c-.07.22-.12.36-.17.51Z"/><path class="cls-1" d="M152.89,47v9.1h-1.48V52.17h-4.8v3.88h-1.48V47h1.48v3.86h4.8V47Z"/><path class="cls-1" d="M163.22,58.12V56.05h-7.48V47h1.49v7.72h4.7V47h1.49v7.72h1.14v3.45Z"/><path class="cls-1" d="M173,47v1.36h-3v7.74h-1.48V48.31h-3V47Z"/><path class="cls-1" d="M178.8,46.78A4.72,4.72,0,1,1,174,51.5,4.54,4.54,0,0,1,178.8,46.78Zm0,1.39a3.33,3.33,0,1,0,3.28,3.33A3.13,3.13,0,0,0,178.8,48.17Z"/><path class="cls-1" d="M189.71,47c1.9,0,3.12.75,3.12,2.3a2,2,0,0,1-1.43,2,2.27,2.27,0,0,1,1.79,2.28c0,2.06-2,2.52-3.45,2.52h-3.88V47Zm-.16,1.28h-2.21v2.49h2.42c.86,0,1.56-.36,1.56-1.25S190.65,48.23,189.55,48.23ZM189.8,52h-2.46v2.77h2.25c1,0,2.1-.12,2.1-1.38S190.62,52,189.8,52Z"/><path class="cls-1" d="M194.21,56.05l3.85-9.1h1.62l3.84,9.1H202l-.81-2h-4.56l-.81,2Zm2.88-3.26h3.54L199,48.9c-.05-.15-.1-.29-.17-.51a4.32,4.32,0,0,1-.17.51Z"/><path class="cls-1" d="M208.6,47c2.16,0,3.89.67,3.89,3s-1.73,3-3.89,3h-1.77v3.12h-1.48V47Zm.08,1.35h-1.85v3.28h1.85c1.25,0,2.3-.32,2.3-1.64S209.94,48.3,208.68,48.3Z"/><path class="cls-1" d="M214.63,56.05V47h1.48v3.12h1.77c2.16,0,3.89.67,3.89,3s-1.73,3-3.89,3Zm1.48-1.35H218c1.26,0,2.3-.32,2.3-1.64s-1-1.64-2.3-1.64h-1.85Zm6.54,1.35V47h1.48v9.1Z"/><polygon class="cls-1" points="28.75 11.33 19.27 16.95 9.72 11.33 9.71 11.33 19.26 5.67 19.26 0 0 11.33 0 11.33 19.27 22.67 38.54 11.33 28.75 11.33"/><path class="cls-1" d="M65.65,40.06A16.92,16.92,0,0,0,73,38.43V33.1a9.76,9.76,0,0,1-6.52,2.11c-4.43,0-9-2.47-9-8,0-6.12,4.5-8.66,9-8.66a10.57,10.57,0,0,1,6.34,2V15.31a16.32,16.32,0,0,0-7.25-1.63C58.8,13.68,52,17.88,52,27.16,52,36,58.87,40.06,65.65,40.06Z"/><polygon class="cls-1" points="95.52 34.77 82.87 34.77 82.87 29.12 94.21 29.12 94.21 24.37 82.87 24.37 82.87 18.97 95.3 18.97 95.3 14.19 77.43 14.19 77.43 39.55 95.52 39.55 95.52 34.77"/><polygon class="cls-1" points="105.59 19.08 117.87 19.08 117.87 14.19 100.15 14.19 100.15 39.55 105.59 39.55 105.59 19.08"/><polygon class="cls-1" points="126.83 23.9 133.53 34.12 136.68 34.12 143.39 23.93 143.39 39.55 148.83 39.55 148.83 14.19 143.79 14.19 135.13 27.38 126.43 14.19 121.39 14.19 121.39 39.55 126.83 39.55 126.83 23.9"/><polygon class="cls-1" points="172.71 34.77 160.06 34.77 160.06 29.12 171.4 29.12 171.4 24.37 160.06 24.37 160.06 18.97 172.49 18.97 172.49 14.19 154.62 14.19 154.62 39.55 172.71 39.55 172.71 34.77"/><polygon class="cls-1" points="182.78 29.33 194.16 29.33 194.16 39.55 199.6 39.55 199.6 14.19 194.16 14.19 194.16 24.41 182.78 24.41 182.78 14.19 177.35 14.19 177.35 39.55 182.78 39.55 182.78 29.33"/><polygon class="cls-1" points="210.94 39.55 216.34 39.55 216.34 19.08 224.13 19.08 224.13 14.19 203.15 14.19 203.15 19.08 210.94 19.08 210.94 39.55"/><path class="cls-1" d="M19.29,25.15,0,13.67V35c6,1.77,11.43,8.23,14.23,15.31A25.79,25.79,0,0,1,15.9,56.9h1.86V40.23a4.74,4.74,0,1,1,3.06,0V56.9h1.86a25.79,25.79,0,0,1,1.65-6.59C27.13,43.23,32.6,36.77,38.56,35V13.67Z"/></g></g></svg>