<?xml version="1.0" encoding="utf-8"?>
<!-- Generator: Adobe Illustrator 19.2.1, SVG Export Plug-In . SVG Version: 6.00 Build 0)  -->
<svg version="1.2" baseProfile="tiny" id="Layer_1" xmlns="http://www.w3.org/2000/svg" xmlns:xlink="http://www.w3.org/1999/xlink"
	 x="0px" y="0px" width="248.8px" height="51.1px" viewBox="0 0 248.8 51.1" xml:space="preserve">
<g>
	<path d="M71.9,28.2l-16.3-9.4h18.8C74.4,8.4,66,0,55.6,0C45.3,0,36.9,8.4,36.9,18.8c0,10.3,8.4,18.8,18.8,18.8
		C62.3,37.6,68.6,33.9,71.9,28.2z M53.4,12.5c0-2,1.6-3.5,3.5-3.5c2,0,3.5,1.6,3.5,3.5c0,2-1.6,3.5-3.5,3.5
		C55,16,53.4,14.4,53.4,12.5z"/>
	<path d="M167.5,18.8h18.8c0-10.3-8.4-18.8-18.8-18.8c-10.3,0-18.8,8.4-18.8,18.8c0,10.3,8.4,18.8,18.8,18.8c6.7,0,13-3.7,16.3-9.4
		L167.5,18.8z M166.5,12.5c0-2,1.6-3.5,3.5-3.5c2,0,3.5,1.6,3.5,3.5c0,2-1.6,3.5-3.5,3.5C168.1,16,166.5,14.4,166.5,12.5z"/>
	<path d="M91.6,7.6h10.1V0.1H78.8v38.1h12.8L91.6,7.6z M86.1,13.7c-2,0-3.5-1.6-3.5-3.5c0-2,1.6-3.5,3.5-3.5s3.5,1.6,3.5,3.5
		C89.6,12.1,88,13.7,86.1,13.7z"/>
	<path d="M203.3,7.8l-1.4,0V0.1h-13v37.6h13l0.3-19.6l1.3,0l-0.1,19.6h13V0.1h-13V7.8z M206.3,14.1c0,2-1.6,3.5-3.5,3.5
		c-2,0-3.5-1.6-3.5-3.5c0-2,1.6-3.5,3.5-3.5C204.7,10.6,206.3,12.2,206.3,14.1z"/>
	<path d="M219.8,0.1v7.5h8.1v30.1h12.8L240.7,7h8v-7H219.8z M234.4,13.7c-2,0-3.5-1.6-3.5-3.5c0-2,1.6-3.5,3.5-3.5
		c2,0,3.5,1.6,3.5,3.5C238,12.1,236.4,13.7,234.4,13.7z"/>
	<path d="M130.8,37.6V27.3h1.4v10.2h13V0l-19.5,9.6L106.1,0v37.6h13V27.3h1.4v10.2H130.8z M131.8,18.5c2,0,3.5,1.6,3.5,3.5
		c0,2-1.6,3.5-3.5,3.5c-2,0-3.5-1.6-3.5-3.5C128.2,20,129.8,18.5,131.8,18.5z M119.8,25.6c-2,0-3.5-1.6-3.5-3.5c0-2,1.6-3.5,3.5-3.5
		s3.5,1.6,3.5,3.5C123.3,24,121.7,25.6,119.8,25.6z"/>
	<path d="M18.8,0C8.4,0,0,8.4,0,18.8c0,10.3,8.4,18.8,18.8,18.8c6.1,0,12-3,15.4-8L18.8,18.8l16.3-9.4C31.8,3.7,25.5,0,18.8,0z
		 M13.4,22.8c-2,0-3.5-1.6-3.5-3.5c0-2,1.6-3.5,3.5-3.5c2,0,3.5,1.6,3.5,3.5C16.9,21.2,15.3,22.8,13.4,22.8z"/>
	<polygon points="1.2,49.9 3,49.9 3,45.5 5,45.5 5,49.9 6.8,49.9 6.8,44.1 1.2,44.1 	"/>
	<polygon points="9.8,47.4 12.7,47.4 12.7,46.2 9.8,46.2 9.8,45.3 12.9,45.3 12.9,44.1 8,44.1 8,49.9 13,49.9 13,48.5 9.8,48.5 	"/>
	<path d="M17,44.1h-3v5.8h1.8v-2.1h1c0.7,0,1.3-0.2,1.6-0.5c0.4-0.3,0.5-0.8,0.5-1.4c0-0.6-0.2-1-0.5-1.3
		C18.1,44.2,17.6,44.1,17,44.1z M17,46.4c-0.1,0.1-0.4,0.2-0.7,0.2h-0.4v-1.3h0.5c0.3,0,0.6,0.1,0.7,0.2c0.1,0.1,0.2,0.3,0.2,0.5
		C17.2,46.1,17.1,46.2,17,46.4z"/>
	<path d="M24.1,46.8c0.3-0.1,0.5-0.2,0.6-0.4c0.2-0.2,0.3-0.5,0.3-0.9c0-0.4-0.2-0.8-0.5-1c-0.3-0.3-0.7-0.4-1.3-0.4h-3.4v5.8H23
		c0.1,0,0.4,0,0.8-0.1c0.3,0,0.5-0.1,0.7-0.2c0.2-0.1,0.4-0.3,0.6-0.6c0.1-0.2,0.2-0.5,0.2-0.8c0-0.4-0.1-0.7-0.3-0.9
		C24.8,47,24.5,46.9,24.1,46.8z M21.7,45.2h0.8c0.3,0,0.5,0,0.6,0.1c0.1,0.1,0.2,0.2,0.2,0.4c0,0.2-0.1,0.3-0.2,0.4
		c-0.1,0.1-0.3,0.1-0.6,0.1h-0.8V45.2z M23.3,48.4c-0.1,0.1-0.3,0.2-0.7,0.2h-0.9v-1.2h0.9c0.3,0,0.5,0.1,0.7,0.2
		c0.1,0.1,0.2,0.2,0.2,0.4C23.5,48.2,23.5,48.3,23.3,48.4z"/>
	<rect x="32.2" y="44.1" width="1.8" height="5.8"/>
	<path d="M31.1,46.8c-0.4-0.3-1.1-0.5-2-0.5h-1v-2.2h-1.8v5.8h3.1c0.7,0,1.3-0.1,1.7-0.4c0.4-0.3,0.6-0.7,0.6-1.2
		C31.7,47.6,31.5,47.1,31.1,46.8z M29,48.6h-0.9v-1.1H29c0.6,0,0.9,0.2,0.9,0.5C29.9,48.4,29.6,48.6,29,48.6z"/>
	<polygon points="36.9,47.3 36.9,44.1 35.2,44.1 35.2,49.9 36.9,49.9 39.1,46.7 39.1,49.9 40.8,49.9 40.8,44.1 39.1,44.1 	"/>
	<path d="M38,43.7c0.4,0,0.7-0.1,1-0.3c0.3-0.2,0.4-0.5,0.5-0.8h-0.7c-0.1,0.3-0.4,0.5-0.8,0.5c-0.4,0-0.6-0.2-0.7-0.5h-0.7
		c0.1,0.3,0.2,0.6,0.5,0.8C37.4,43.6,37.7,43.7,38,43.7z"/>
	<polygon points="48.6,46.1 46.6,46.1 46.6,44.1 44.8,44.1 44.8,49.9 46.6,49.9 46.6,47.5 48.6,47.5 48.6,49.9 50.4,49.9 50.4,44.1 
		48.6,44.1 	"/>
	<path d="M53.3,44.1l-2.2,5.8h1.9l0.3-1h2.1l0.3,1h1.9l-2.2-5.8H53.3z M53.6,47.6l0.6-2.1l0.7,2.1H53.6z"/>
	<polygon points="63.7,44.1 61.9,44.1 61.9,48.4 59.9,48.4 59.9,44.1 58,44.1 58,49.9 62.9,49.9 62.9,51.1 64.3,51.1 64.3,48.5 
		63.7,48.5 	"/>
	<polygon points="66.8,47.3 66.8,44.1 65.1,44.1 65.1,49.9 66.8,49.9 69,46.7 69,49.9 70.8,49.9 70.8,44.1 69.1,44.1 	"/>
	<path d="M74.8,44c-1,0-1.7,0.3-2.2,0.8C72,45.3,71.7,46,71.7,47c0,0.7,0.1,1.2,0.4,1.7c0.3,0.5,0.6,0.8,1.1,1
		c0.4,0.2,1,0.3,1.6,0.3c0.7,0,1.2-0.1,1.6-0.4c0.4-0.2,0.8-0.6,1-1c0.2-0.4,0.3-1,0.3-1.7c0-0.9-0.3-1.7-0.8-2.2
		C76.5,44.2,75.8,44,74.8,44z M75.7,48.2c-0.2,0.3-0.5,0.4-0.9,0.4c-0.4,0-0.7-0.1-0.9-0.4c-0.2-0.3-0.3-0.7-0.3-1.3
		c0-0.6,0.1-1,0.3-1.3c0.2-0.3,0.5-0.4,0.9-0.4c0.4,0,0.7,0.1,0.9,0.4c0.2,0.3,0.3,0.6,0.3,1.2C76,47.5,75.9,48,75.7,48.2z"/>
	<polygon points="82.6,46.1 80.7,46.1 80.7,44.1 78.8,44.1 78.8,49.9 80.7,49.9 80.7,47.5 82.6,47.5 82.6,49.9 84.5,49.9 84.5,44.1 
		82.6,44.1 	"/>
	<path d="M92.4,47.9c0,0.3-0.1,0.5-0.2,0.6s-0.3,0.2-0.5,0.2h-0.3v1.2l-2.2-5.7h-2l-2.2,5.8h1.9l0.3-1h2.1l0.3,1h1.9l0,0
		c0.3,0,0.5,0.1,0.7,0.1c0.6,0,1.1-0.1,1.4-0.2c0.3-0.2,0.5-0.4,0.6-0.8s0.1-0.9,0.1-1.6v-1.8h1.4v4.4h1.8v-5.8h-5.1V47.9z
		 M87.6,47.6l0.6-2.1l0.7,2.1H87.6z"/>
	<path d="M103.5,46.8c-0.4-0.3-1.1-0.5-2-0.5h-1v-2.2h-1.8v5.8h3.1c0.7,0,1.3-0.1,1.7-0.4c0.4-0.3,0.6-0.7,0.6-1.2
		C104.1,47.6,103.9,47.1,103.5,46.8z M101.5,48.6h-0.9v-1.1h0.9c0.6,0,0.9,0.2,0.9,0.5C102.3,48.4,102,48.6,101.5,48.6z"/>
	<polygon points="108.9,46.1 106.9,46.1 106.9,44.1 105.1,44.1 105.1,49.9 106.9,49.9 106.9,47.5 108.9,47.5 108.9,49.9 110.7,49.9 
		110.7,44.1 108.9,44.1 	"/>
	<rect x="117.8" y="44.1" width="1.8" height="5.8"/>
	<path d="M116.7,46.8c-0.4-0.3-1.1-0.5-2-0.5h-1v-2.2h-1.8v5.8h3.1c0.7,0,1.3-0.1,1.7-0.4c0.4-0.3,0.6-0.7,0.6-1.2
		C117.3,47.6,117.1,47.1,116.7,46.8z M114.7,48.6h-0.9v-1.1h0.9c0.6,0,0.9,0.2,0.9,0.5C115.5,48.4,115.2,48.6,114.7,48.6z"/>
	<polygon points="122.5,47.3 122.5,44.1 120.8,44.1 120.8,49.9 122.5,49.9 124.7,46.7 124.7,49.9 126.5,49.9 126.5,44.1 124.8,44.1 
			"/>
	<path d="M123.7,43.1c-0.4,0-0.6-0.2-0.7-0.5h-0.7c0.1,0.3,0.2,0.6,0.5,0.8c0.3,0.2,0.6,0.3,1,0.3c0.4,0,0.7-0.1,1-0.3
		c0.3-0.2,0.4-0.5,0.5-0.8h-0.7C124.3,43,124.1,43.1,123.7,43.1z"/>
	<path d="M134.4,47.3c-0.2-0.2-0.4-0.4-0.7-0.4c0.2-0.1,0.3-0.2,0.5-0.3c0.1-0.1,0.2-0.3,0.3-0.6c0.1-0.3,0.2-0.4,0.4-0.6
		c0.1-0.1,0.4-0.2,0.7-0.2h0.1V44c-0.7,0-1.2,0-1.5,0.1c-0.3,0.1-0.5,0.2-0.7,0.3c-0.1,0.2-0.3,0.4-0.4,0.8
		c-0.2,0.5-0.3,0.8-0.4,0.9c-0.1,0.1-0.2,0.2-0.4,0.2v-2.2h-1.8v5.8h1.8v-2.3c0.2,0,0.3,0,0.4,0.1c0.1,0.1,0.2,0.3,0.4,0.7l0.7,1.5
		h2l-0.8-1.6C134.8,47.8,134.5,47.5,134.4,47.3z"/>
	<path d="M138,44.1l-2.2,5.8h1.9l0.3-1h2.1l0.3,1h1.9l-2.2-5.8H138z M138.4,47.6l0.6-2.1l0.7,2.1H138.4z"/>
	<polygon points="146.6,46.1 144.7,46.1 144.7,44.1 142.8,44.1 142.8,49.9 144.7,49.9 144.7,47.5 146.6,47.5 146.6,49.9 148.5,49.9 
		148.5,44.1 146.6,44.1 	"/>
	<polygon points="155.3,44.1 153.5,44.1 153.5,48.4 151.5,48.4 151.5,44.1 149.7,44.1 149.7,49.9 154.5,49.9 154.5,51.1 156,51.1 
		156,48.5 155.3,48.5 	"/>
	<polygon points="158.6,47.4 161.4,47.4 161.4,46.2 158.6,46.2 158.6,45.3 161.6,45.3 161.6,44.1 156.8,44.1 156.8,49.9 161.7,49.9 
		161.7,48.5 158.6,48.5 	"/>
	<path d="M163.1,47.9c0,0.3-0.1,0.5-0.2,0.6c-0.1,0.1-0.3,0.2-0.5,0.2h-0.3v1.2c0.3,0,0.5,0.1,0.7,0.1c0.6,0,1.1-0.1,1.4-0.2
		c0.3-0.2,0.5-0.4,0.6-0.8c0.1-0.3,0.1-0.9,0.1-1.6v-1.8h1.4v4.4h1.8v-5.8h-5.1V47.9z"/>
	<path d="M170.2,44.2c-0.3,0.1-0.5,0.3-0.7,0.5c-0.2,0.3-0.3,0.6-0.3,0.9c0,0.3,0.1,0.6,0.2,0.8c0.1,0.2,0.3,0.4,0.6,0.6
		c0.2,0.1,0.4,0.2,0.6,0.2c-0.2,0.1-0.4,0.1-0.5,0.2c-0.1,0-0.2,0.1-0.3,0.3c-0.1,0.2-0.2,0.3-0.3,0.4l-0.9,1.7h2.1l1-1.8
		c0.1-0.2,0.2-0.4,0.3-0.4c0.1-0.1,0.3-0.1,0.4-0.1h0.2v2.4h1.8v-5.8h-3C170.9,44.1,170.5,44.1,170.2,44.2z M172.7,45.2v1.2h-0.8
		c-0.1,0-0.2,0-0.5-0.1c-0.1,0-0.2-0.1-0.3-0.2c-0.1-0.1-0.1-0.2-0.1-0.3c0-0.2,0.1-0.3,0.2-0.4c0.1-0.1,0.3-0.2,0.7-0.2H172.7z"/>
	<path d="M178.7,44.1h-3v5.8h1.8v-2.1h1c0.7,0,1.3-0.2,1.6-0.5c0.4-0.3,0.5-0.8,0.5-1.4c0-0.6-0.2-1-0.5-1.3
		C179.9,44.2,179.4,44.1,178.7,44.1z M178.7,46.4c-0.1,0.1-0.4,0.2-0.7,0.2h-0.4v-1.3h0.5c0.3,0,0.6,0.1,0.7,0.2
		c0.1,0.1,0.2,0.3,0.2,0.5C178.9,46.1,178.9,46.2,178.7,46.4z"/>
	<path d="M185.2,48.3c-0.2,0.2-0.4,0.3-0.8,0.3c-0.4,0-0.6-0.1-0.8-0.4c-0.2-0.2-0.3-0.7-0.3-1.3c0-0.5,0.1-0.9,0.2-1.1
		c0.2-0.3,0.5-0.5,0.9-0.5c0.2,0,0.3,0,0.5,0.1c0.1,0.1,0.3,0.2,0.4,0.3c0.1,0.1,0.1,0.2,0.2,0.4l1.6-0.4c-0.2-0.6-0.5-1.1-0.9-1.4
		c-0.4-0.3-1-0.4-1.7-0.4c-0.9,0-1.7,0.3-2.2,0.8c-0.5,0.5-0.8,1.3-0.8,2.2c0,0.7,0.1,1.3,0.4,1.8c0.3,0.5,0.6,0.8,1.1,1
		c0.4,0.2,0.9,0.3,1.6,0.3c0.5,0,1-0.1,1.3-0.2c0.3-0.1,0.6-0.4,0.9-0.7c0.2-0.3,0.4-0.7,0.5-1.1l-1.6-0.5
		C185.5,47.9,185.4,48.1,185.2,48.3z"/>
	<path d="M192,47.3c-0.2-0.2-0.4-0.4-0.7-0.4c0.2-0.1,0.3-0.2,0.5-0.3c0.1-0.1,0.2-0.3,0.3-0.6c0.1-0.3,0.2-0.4,0.4-0.6
		c0.1-0.1,0.4-0.2,0.7-0.2h0.1V44c-0.7,0-1.2,0-1.5,0.1c-0.3,0.1-0.5,0.2-0.7,0.3c-0.1,0.2-0.3,0.4-0.4,0.8
		c-0.2,0.5-0.3,0.8-0.4,0.9c-0.1,0.1-0.2,0.2-0.4,0.2v-2.2h-1.8v5.8h1.8v-2.3c0.2,0,0.3,0,0.4,0.1c0.1,0.1,0.2,0.3,0.4,0.7l0.7,1.5
		h2l-0.8-1.6C192.4,47.8,192.2,47.5,192,47.3z"/>
	<polygon points="195.8,47.3 195.8,44.1 194.1,44.1 194.1,49.9 195.8,49.9 198,46.7 198,49.9 199.7,49.9 199.7,44.1 198,44.1 	"/>
	<polygon points="202.7,47.3 202.7,44.1 200.9,44.1 200.9,49.9 202.7,49.9 204.9,46.7 204.9,49.9 206.6,49.9 206.6,44.1 204.9,44.1 
			"/>
	<path d="M203.8,43.7c0.4,0,0.7-0.1,1-0.3c0.3-0.2,0.4-0.5,0.5-0.8h-0.7c-0.1,0.3-0.4,0.5-0.8,0.5c-0.4,0-0.6-0.2-0.7-0.5h-0.7
		c0.1,0.3,0.2,0.6,0.5,0.8C203.1,43.6,203.4,43.7,203.8,43.7z"/>
	<polygon points="210.5,49.9 212.4,49.9 212.4,45.5 214.4,45.5 214.4,49.9 216.2,49.9 216.2,44.1 210.5,44.1 	"/>
	<path d="M220.2,44c-1,0-1.7,0.3-2.2,0.8c-0.5,0.5-0.8,1.3-0.8,2.2c0,0.7,0.1,1.2,0.4,1.7c0.3,0.5,0.6,0.8,1.1,1
		c0.4,0.2,1,0.3,1.6,0.3c0.7,0,1.2-0.1,1.6-0.4c0.4-0.2,0.8-0.6,1-1c0.2-0.4,0.3-1,0.3-1.7c0-0.9-0.3-1.7-0.8-2.2
		C221.9,44.2,221.2,44,220.2,44z M221.1,48.2c-0.2,0.3-0.5,0.4-0.9,0.4c-0.4,0-0.7-0.1-0.9-0.4c-0.2-0.3-0.3-0.7-0.3-1.3
		c0-0.6,0.1-1,0.3-1.3c0.2-0.3,0.5-0.4,0.9-0.4c0.4,0,0.7,0.1,0.9,0.4c0.2,0.3,0.3,0.6,0.3,1.2C221.4,47.5,221.3,48,221.1,48.2z"/>
	<path d="M227.3,44.1h-3v5.8h1.8v-2.1h1c0.7,0,1.3-0.2,1.6-0.5c0.4-0.3,0.5-0.8,0.5-1.4c0-0.6-0.2-1-0.5-1.3
		C228.4,44.2,227.9,44.1,227.3,44.1z M227.2,46.4c-0.1,0.1-0.4,0.2-0.7,0.2h-0.4v-1.3h0.5c0.3,0,0.6,0.1,0.7,0.2
		c0.1,0.1,0.2,0.3,0.2,0.5C227.5,46.1,227.4,46.2,227.2,46.4z"/>
	<polygon points="229.8,45.5 231.6,45.5 231.6,49.9 233.4,49.9 233.4,45.5 235.3,45.5 235.3,44.1 229.8,44.1 	"/>
	<path d="M242.9,47.9c0,0.3-0.1,0.5-0.2,0.6c-0.1,0.1-0.3,0.2-0.5,0.2h-0.3v1.2l-2.2-5.7h-2l-2.2,5.8h1.9l0.3-1h2.1l0.3,1h1.9l0,0
		c0.3,0,0.5,0.1,0.7,0.1c0.6,0,1.1-0.1,1.4-0.2c0.3-0.2,0.5-0.4,0.6-0.8c0.1-0.3,0.1-0.9,0.1-1.6v-1.8h1.4v4.4h1.8v-5.8h-5.1V47.9z
		 M238.1,47.6l0.6-2.1l0.7,2.1H238.1z"/>
</g>
</svg>
