<?xml version="1.0" encoding="utf-8"?>
<!-- Generator: Adobe Illustrator 16.0.0, SVG Export Plug-In . SVG Version: 6.00 Build 0)  -->
<!DOCTYPE svg PUBLIC "-//W3C//DTD SVG 1.1//EN" "http://www.w3.org/Graphics/SVG/1.1/DTD/svg11.dtd">
<svg version="1.1" id="Layer_1" xmlns="http://www.w3.org/2000/svg" xmlns:xlink="http://www.w3.org/1999/xlink" x="0px" y="0px"
	 width="466.5px" height="115.5px" viewBox="0 0 466.5 115.5" enable-background="new 0 0 466.5 115.5" xml:space="preserve">
<g>
	<g>
		<polygon fill="#D63535" points="46.2,57.7 80.8,92.4 57.7,115.5 0,57.7 57.7,0 80.8,23.1 		"/>
		<polygon fill="#AD2D2D" points="46.2,57.7 23,80.7 57.7,115.5 80.8,92.4 		"/>
		<polygon fill="#992525" points="46.2,57.7 23,80.7 52,63.5 80.8,92.4 		"/>
		<g>
			<path fill="#C13030" d="M157.9,83.1c-13.3,0-22.1-9.6-22.1-24c0-13.3,8.5-23.899,22.5-23.899c11,0,19,6.9,19.8,16.4h-9.8
				c-1-5-4.8-8-10.2-8c-8.8,0-12.2,7.9-12.2,15.6c0,9.399,4.7,15.5,12.1,15.5c6,0,9.6-3.601,10.5-10.3h10
				C177.3,75.5,170.4,83.1,157.9,83.1z"/>
			<path fill="#C13030" d="M222.6,44.5h-24.4v10h22.4v7.9h-22.4V73.6H223V82h-34.8V36.2h34.3v8.3H222.6z"/>
			<path fill="#C13030" d="M265.1,44.8H243.2V82h-10V36.2H265.1V44.8z"/>
			<path fill="#C13030" d="M273.3,36.2h14.3L298.3,67.6L308.7,36.2h14V82h-9.4V49.5L302,82h-7.8l-11.4-32.2V82h-9.6V36.2H273.3z"/>
			<path fill="#C13030" d="M369.1,44.5H344.7v10H367.1v7.9H344.7V73.6h24.8V82h-34.8V36.2H369v8.3H369.1z"/>
			<path fill="#C13030" d="M418.4,82h-10V62.3h-18.7V82h-10V36.2h10v17.2h18.7V36.2h10V82z"/>
			<path fill="#C13030" d="M464.5,44.8h-13.8V82H440.6V44.8h-13.8v-8.5H464.4v8.5H464.5z"/>
		</g>
		
			<rect x="66.173" y="37.326" transform="matrix(-0.7071 0.7071 -0.7071 -0.7071 188.6063 37.3279)" fill="#C13030" width="40.8" height="40.8"/>
	</g>
</g>
</svg>
