<?xml version="1.0" encoding="utf-8"?>
<!-- Generator: Adobe Illustrator 19.2.1, SVG Export Plug-In . SVG Version: 6.00 Build 0)  -->
<svg version="1.2" baseProfile="tiny" id="Layer_1" xmlns="http://www.w3.org/2000/svg" xmlns:xlink="http://www.w3.org/1999/xlink"
	 x="0px" y="0px" width="149.7px" height="37.1px" viewBox="0 0 149.7 37.1" xml:space="preserve">
<g>
	<g>
		<g>
			<path fill="#3D1717" d="M48,28.3c0-0.1,0-0.1-0.2-0.1H47c-0.1,0-0.2,0-0.2,0.1v2.1c0,0,0,0.1-0.1,0.1h-0.2c0,0-0.1,0-0.1-0.1
				v-2.1c0-0.4,0.3-0.4,0.5-0.4h0.9c0.2,0,0.5,0,0.5,0.4v2.1c0,0,0,0.1-0.1,0.1h-0.2c0,0-0.1,0-0.1-0.1V28.3z"/>
			<path fill="#3D1717" d="M50.8,30.4c-0.1,0-0.5,0-0.7,0c-0.5,0-0.7-0.2-0.7-0.6v-1.3c0-0.5,0.3-0.6,0.7-0.6c0.3,0,0.5,0,0.7,0
				c0,0,0,0,0,0v0.2c0,0,0,0,0,0h-0.7c-0.4,0-0.4,0.1-0.4,0.4V29h1.1c0,0,0.1,0,0.1,0.1v0.1c0,0,0,0.1-0.1,0.1h-1.1v0.6
				c0,0.3,0.1,0.4,0.4,0.4h0.7c0,0,0,0,0,0L50.8,30.4C50.8,30.4,50.8,30.4,50.8,30.4z"/>
			<path fill="#3D1717" d="M52.5,29.4c-0.1,0-0.3,0-0.3,0v1c0,0,0,0.1-0.1,0.1h-0.2c0,0-0.1,0-0.1-0.1v-2.4c0,0,0-0.1,0.1-0.1
				c0.1,0,0.4,0,0.6,0c0.6,0,1,0.2,1,0.8v0C53.4,29.2,53,29.4,52.5,29.4z M53.1,28.6c0-0.4-0.2-0.5-0.7-0.5c-0.1,0-0.3,0-0.3,0v1
				c0.1,0,0.3,0,0.3,0C52.9,29.1,53.1,29,53.1,28.6L53.1,28.6z"/>
			<path fill="#3D1717" d="M55.1,30.5c-0.2,0-0.4,0-0.6,0c-0.1,0-0.1,0-0.1-0.1V28c0-0.1,0-0.1,0.1-0.1c0.1,0,0.3,0,0.6,0
				c0.6,0,1,0.1,1,0.7v0.1c0,0.3-0.1,0.5-0.4,0.5c0.2,0.1,0.4,0.3,0.4,0.6v0.1C56.1,30.3,55.6,30.5,55.1,30.5z M55.7,28.5
				c0-0.3-0.3-0.4-0.7-0.4c-0.1,0-0.2,0-0.3,0V29h0.5C55.6,29,55.7,28.8,55.7,28.5L55.7,28.5z M55.8,29.7c0-0.2-0.1-0.4-0.5-0.4
				h-0.5v1c0.1,0,0.2,0,0.4,0C55.5,30.2,55.8,30.1,55.8,29.7L55.8,29.7z"/>
			<path fill="#3D1717" d="M57.7,30.5c-0.2,0-0.4,0-0.6,0c-0.1,0-0.1,0-0.1-0.1v-2.4c0,0,0-0.1,0.1-0.1h0.2c0,0,0.1,0,0.1,0.1v1
				c0.1,0,0.2,0,0.4,0c0.5,0,1,0.2,1,0.7v0.1C58.7,30.3,58.3,30.5,57.7,30.5z M58.4,29.7c0-0.4-0.3-0.5-0.7-0.5c-0.1,0-0.2,0-0.4,0
				v1c0.1,0,0.2,0,0.4,0C58.2,30.2,58.4,30.1,58.4,29.7L58.4,29.7z M59.4,30.4h-0.2c0,0-0.1,0-0.1-0.1v-2.4c0,0,0-0.1,0.1-0.1h0.2
				c0,0,0.1,0,0.1,0.1L59.4,30.4C59.5,30.4,59.5,30.4,59.4,30.4z"/>
			<path fill="#3D1717" d="M60.6,30.3v-2.4c0,0,0-0.1,0.1-0.1h0.2c0,0,0.1,0,0.1,0.1v2c0,0,0,0,0,0l0,0l1.1-2c0-0.1,0-0.1,0.1-0.1
				h0.2c0.1,0,0.1,0,0.1,0.1v2.4c0,0,0,0-0.1,0h-0.2c0,0-0.1,0-0.1-0.1v-2c0,0,0,0,0,0c0,0,0,0,0,0l-1.1,2c0,0-0.1,0.1-0.1,0.1h-0.2
				C60.6,30.4,60.6,30.4,60.6,30.3z M62,27.2C62.1,27.2,62,27.1,62,27.2l-0.2-0.1c0,0,0,0-0.1,0.1c0,0.2-0.2,0.3-0.3,0.3
				c-0.2,0-0.3-0.1-0.3-0.3c0,0,0-0.1-0.1-0.1H61c0,0,0,0,0,0.1c0,0.3,0.3,0.5,0.6,0.5C61.8,27.7,62,27.5,62,27.2z"/>
			<path fill="#3D1717" d="M66.6,30.4h-0.2c0,0-0.1,0-0.1-0.1v-1.2h-1.2v1.2c0,0,0,0.1-0.1,0.1h-0.2c0,0-0.1,0-0.1-0.1v-2.4
				c0,0,0-0.1,0.1-0.1h0.2c0,0,0.1,0,0.1,0.1v1h1.2v-1c0,0,0-0.1,0.1-0.1h0.2c0,0,0.1,0,0.1,0.1L66.6,30.4
				C66.7,30.4,66.6,30.4,66.6,30.4z"/>
			<path fill="#3D1717" d="M69.5,30.4h-0.2c0,0-0.1,0-0.1-0.1L69,29.6h-0.9l-0.2,0.8c0,0,0,0.1-0.1,0.1h-0.2c0,0-0.1,0-0.1-0.1
				c0,0,0,0,0,0l0.6-2.3c0.1-0.2,0.2-0.3,0.4-0.3c0.1,0,0.3,0,0.4,0.3L69.5,30.4C69.5,30.4,69.5,30.4,69.5,30.4
				C69.5,30.4,69.5,30.4,69.5,30.4z M68.6,28.2C68.6,28.1,68.6,28.1,68.6,28.2c-0.1-0.1-0.1,0-0.1,0l-0.3,1.1h0.8L68.6,28.2z"/>
			<path fill="#3D1717" d="M70.8,30.4c-0.2,0-0.5,0-0.5-0.4v-2.1c0,0,0-0.1,0.1-0.1h0.2c0,0,0.1,0,0.1,0.1V30c0,0.1,0,0.1,0.2,0.1
				h0.9c0.1,0,0.2,0,0.2-0.1v-2.1c0,0,0-0.1,0.1-0.1h0.2c0,0,0.1,0,0.1,0.1V30c0,0.1,0,0.1,0,0.2h0.2c0,0,0.1,0,0.1,0.1v0.6
				c0,0,0,0.1-0.1,0.1h-0.2c0,0-0.1,0-0.1-0.1v-0.3H70.8z"/>
			<path fill="#3D1717" d="M73.1,27.9C73.1,27.9,73.2,27.9,73.1,27.9l0.2-0.1c0,0,0.1,0,0.1,0.1v2c0,0,0,0,0,0l0,0l1.1-2
				c0-0.1,0-0.1,0.1-0.1h0.2c0.1,0,0.1,0,0.1,0.1v2.4c0,0,0,0-0.1,0h-0.2c0,0-0.1,0-0.1-0.1v-2c0,0,0,0,0,0c0,0,0,0,0,0l-1.1,2
				c0,0-0.1,0.1-0.1,0.1h-0.2c-0.1,0-0.1,0-0.1-0.1V27.9z"/>
			<path fill="#3D1717" d="M76.9,30.5c-0.5,0-0.9-0.3-0.9-1.1v-0.4c0-0.8,0.4-1.1,0.9-1.1c0.5,0,0.9,0.3,0.9,1.1v0.4
				C77.9,30.1,77.5,30.5,76.9,30.5z M77.5,28.9c0-0.6-0.2-0.8-0.6-0.8c-0.4,0-0.6,0.2-0.6,0.8v0.4c0,0.6,0.2,0.8,0.6,0.8
				c0.4,0,0.6-0.2,0.6-0.8V28.9z"/>
			<path fill="#3D1717" d="M80.6,30.4h-0.2c0,0-0.1,0-0.1-0.1v-1.2h-1.2v1.2c0,0,0,0.1-0.1,0.1h-0.2c0,0-0.1,0-0.1-0.1v-2.4
				c0,0,0-0.1,0.1-0.1h0.2c0,0,0.1,0,0.1,0.1v1h1.2v-1c0,0,0-0.1,0.1-0.1h0.2c0,0,0.1,0,0.1,0.1L80.6,30.4
				C80.7,30.4,80.6,30.4,80.6,30.4z"/>
			<path fill="#3D1717" d="M83.5,30.4h-0.2c0,0-0.1,0-0.1-0.1L83,29.6h-0.9l-0.2,0.8c0,0,0,0.1-0.1,0.1h-0.2c0,0-0.1,0-0.1-0.1
				c0,0,0,0,0,0l0.6-2.3c0.1-0.2,0.2-0.3,0.4-0.3c0.1,0,0.3,0,0.4,0.3L83.5,30.4C83.6,30.4,83.6,30.4,83.5,30.4
				C83.6,30.4,83.5,30.4,83.5,30.4z M82.6,28.2C82.6,28.1,82.6,28.1,82.6,28.2c-0.1-0.1-0.1,0-0.1,0l-0.3,1.1H83L82.6,28.2z"/>
			<path fill="#3D1717" d="M85.4,28.2C85.3,28.1,85.3,28.1,85.4,28.2c-0.1-0.1-0.1,0-0.1,0l-0.6,2.2c0,0,0,0.1-0.1,0.1h-0.2
				c0,0-0.1,0-0.1-0.1c0,0,0,0,0,0l0.6-2.3c0.1-0.2,0.2-0.3,0.4-0.3c0.1,0,0.3,0,0.4,0.3l0.6,2.3c0,0,0,0,0,0c0,0,0,0.1-0.1,0.1H86
				c0,0-0.1,0-0.1-0.1L85.4,28.2z"/>
			<path fill="#3D1717" d="M87.9,30.5c-0.2,0-0.4,0-0.6,0c-0.1,0-0.1,0-0.1-0.1v-2.4c0,0,0-0.1,0.1-0.1h0.2c0,0,0.1,0,0.1,0.1v1
				c0.1,0,0.2,0,0.4,0c0.5,0,1,0.2,1,0.7v0.1C88.9,30.3,88.4,30.5,87.9,30.5z M88.6,29.7c0-0.4-0.3-0.5-0.7-0.5c-0.1,0-0.2,0-0.4,0
				v1c0.1,0,0.2,0,0.4,0C88.3,30.2,88.6,30.1,88.6,29.7L88.6,29.7z"/>
			<path fill="#3D1717" d="M91.6,30.4h-0.2c0,0-0.1,0-0.1-0.1v-1.2h-1.2v1.2c0,0,0,0.1-0.1,0.1h-0.2c0,0-0.1,0-0.1-0.1v-2.4
				c0,0,0-0.1,0.1-0.1H90c0,0,0.1,0,0.1,0.1v1h1.2v-1c0,0,0-0.1,0.1-0.1h0.2c0,0,0.1,0,0.1,0.1L91.6,30.4
				C91.6,30.4,91.6,30.4,91.6,30.4z"/>
			<path fill="#3D1717" d="M93.4,30.5c-0.2,0-0.4,0-0.6,0c-0.1,0-0.1,0-0.1-0.1v-2.4c0,0,0-0.1,0.1-0.1h0.2c0,0,0.1,0,0.1,0.1v1
				c0.1,0,0.2,0,0.4,0c0.5,0,1,0.2,1,0.7v0.1C94.4,30.3,93.9,30.5,93.4,30.5z M94.1,29.7c0-0.4-0.3-0.5-0.7-0.5c-0.1,0-0.2,0-0.4,0
				v1c0.1,0,0.2,0,0.4,0C93.8,30.2,94.1,30.1,94.1,29.7L94.1,29.7z M95.1,30.4h-0.2c0,0-0.1,0-0.1-0.1v-2.4c0,0,0-0.1,0.1-0.1h0.2
				c0,0,0.1,0,0.1,0.1L95.1,30.4C95.1,30.4,95.1,30.4,95.1,30.4z"/>
			<path fill="#3D1717" d="M96.2,30.3v-2.4c0,0,0-0.1,0.1-0.1h0.2c0,0,0.1,0,0.1,0.1v2c0,0,0,0,0,0l0,0l1.1-2c0-0.1,0-0.1,0.1-0.1
				h0.2c0.1,0,0.1,0,0.1,0.1v2.4c0,0,0,0-0.1,0h-0.2c0,0-0.1,0-0.1-0.1v-2c0,0,0,0,0,0c0,0,0,0,0,0l-1.1,2c0,0-0.1,0.1-0.1,0.1h-0.2
				C96.3,30.4,96.2,30.4,96.2,30.3z M97.7,27.2C97.7,27.2,97.7,27.1,97.7,27.2l-0.2-0.1c0,0,0,0-0.1,0.1c0,0.2-0.2,0.3-0.3,0.3
				c-0.2,0-0.3-0.1-0.3-0.3c0,0,0-0.1-0.1-0.1h-0.1c0,0,0,0,0,0.1c0,0.3,0.3,0.5,0.6,0.5C97.4,27.7,97.7,27.5,97.7,27.2z"/>
			<path fill="#3D1717" d="M102.1,30.4h-0.3c0,0-0.1,0-0.1,0l-1-1.2v1.2c0,0,0,0.1-0.1,0.1h-0.2c0,0-0.1,0-0.1-0.1v-2.4
				c0,0,0-0.1,0.1-0.1h0.2c0,0,0.1,0,0.1,0.1V29l1-1.2c0,0,0,0,0.1,0h0.3c0.1,0,0.1,0,0,0.1l-1,1.2L102.1,30.4
				C102.2,30.4,102.2,30.4,102.1,30.4z"/>
			<path fill="#3D1717" d="M104.9,30.4h-0.2c0,0-0.1,0-0.1-0.1l-0.2-0.8h-0.9l-0.2,0.8c0,0,0,0.1-0.1,0.1H103c0,0-0.1,0-0.1-0.1
				c0,0,0,0,0,0l0.6-2.3c0.1-0.2,0.2-0.3,0.4-0.3c0.1,0,0.3,0,0.4,0.3L104.9,30.4C104.9,30.4,104.9,30.4,104.9,30.4
				C104.9,30.4,104.9,30.4,104.9,30.4z M104,28.2C104,28.1,104,28.1,104,28.2c-0.1-0.1-0.1,0-0.1,0l-0.3,1.1h0.8L104,28.2z"/>
			<path fill="#3D1717" d="M107.6,30.4h-0.2c0,0-0.1,0-0.1-0.1v-1.2h-1.2v1.2c0,0,0,0.1-0.1,0.1h-0.2c0,0-0.1,0-0.1-0.1v-2.4
				c0,0,0-0.1,0.1-0.1h0.2c0,0,0.1,0,0.1,0.1v1h1.2v-1c0,0,0-0.1,0.1-0.1h0.2c0,0,0.1,0,0.1,0.1L107.6,30.4
				C107.7,30.4,107.6,30.4,107.6,30.4z"/>
			<path fill="#3D1717" d="M109.2,30.4c-0.2,0-0.5,0-0.5-0.4v-2.1c0,0,0-0.1,0.1-0.1h0.2c0,0,0.1,0,0.1,0.1V30c0,0.1,0,0.1,0.2,0.1
				h0.9c0.1,0,0.2,0,0.2-0.1v-2.1c0,0,0-0.1,0.1-0.1h0.2c0,0,0.1,0,0.1,0.1V30c0,0.1,0,0.1,0,0.2h0.2c0,0,0.1,0,0.1,0.1v0.6
				c0,0,0,0.1-0.1,0.1h-0.2c0,0-0.1,0-0.1-0.1v-0.3H109.2z"/>
			<path fill="#3D1717" d="M113,30.4c-0.1,0-0.5,0-0.7,0c-0.5,0-0.7-0.2-0.7-0.6v-1.3c0-0.5,0.3-0.6,0.7-0.6c0.3,0,0.5,0,0.7,0
				c0,0,0,0,0,0v0.2c0,0,0,0,0,0h-0.7c-0.4,0-0.4,0.1-0.4,0.4V29h1.1c0,0,0.1,0,0.1,0.1v0.1c0,0,0,0.1-0.1,0.1h-1.1v0.6
				c0,0.3,0.1,0.4,0.4,0.4h0.7c0,0,0,0,0,0L113,30.4C113,30.4,113,30.4,113,30.4z"/>
			<path fill="#3D1717" d="M114.9,28.2C114.9,28.1,114.8,28.1,114.9,28.2c-0.1-0.1-0.1,0-0.1,0l-0.6,2.2c0,0,0,0.1-0.1,0.1h-0.2
				c0,0-0.1,0-0.1-0.1c0,0,0,0,0,0l0.6-2.3c0.1-0.2,0.2-0.3,0.4-0.3c0.1,0,0.3,0,0.4,0.3l0.6,2.3c0,0,0,0,0,0c0,0,0,0.1-0.1,0.1
				h-0.2c0,0-0.1,0-0.1-0.1L114.9,28.2z"/>
			<path fill="#3D1717" d="M118.3,30.4h-0.2c0,0-0.1,0-0.1-0.1v-1c-0.1,0-0.2,0-0.4,0c0,0-0.1,0-0.1,0l-0.6,1c0,0,0,0-0.1,0h-0.2
				c0,0-0.1,0,0-0.1l0.6-1.1c-0.3-0.1-0.5-0.3-0.5-0.7v0c0-0.6,0.4-0.7,1-0.7c0.2,0,0.5,0,0.6,0c0.1,0,0.1,0,0.1,0.1L118.3,30.4
				C118.4,30.4,118.3,30.4,118.3,30.4z M118,28.1c-0.1,0-0.3,0-0.4,0c-0.4,0-0.7,0.1-0.7,0.5v0c0,0.4,0.2,0.5,0.7,0.5
				c0.1,0,0.1,0,0.4,0V28.1z"/>
			<path fill="#3D1717" d="M120.1,29.4c-0.1,0-0.3,0-0.3,0v1c0,0,0,0.1-0.1,0.1h-0.2c0,0-0.1,0-0.1-0.1v-2.4c0,0,0-0.1,0.1-0.1
				c0.1,0,0.4,0,0.6,0c0.6,0,1,0.2,1,0.8v0C121.1,29.2,120.7,29.4,120.1,29.4z M120.7,28.6c0-0.4-0.2-0.5-0.7-0.5
				c-0.1,0-0.3,0-0.3,0v1c0.1,0,0.3,0,0.3,0C120.6,29.1,120.7,29,120.7,28.6L120.7,28.6z"/>
			<path fill="#3D1717" d="M123.4,30.4c-0.1,0-0.3,0-0.6,0c-0.4,0-0.9-0.2-0.9-1.1v-0.5c0-0.9,0.5-1.1,0.9-1.1c0.2,0,0.4,0,0.6,0.1
				c0,0,0.1,0,0.1,0v0.2c0,0,0,0-0.1,0c-0.1,0-0.4,0-0.6,0c-0.3,0-0.6,0.2-0.6,0.8v0.5c0,0.6,0.3,0.8,0.6,0.8c0.2,0,0.4,0,0.6,0
				c0,0,0.1,0,0.1,0.1L123.4,30.4C123.5,30.4,123.5,30.4,123.4,30.4z"/>
			<path fill="#3D1717" d="M126.1,30.4h-0.3c0,0-0.1,0-0.1,0l-1-1.2v1.2c0,0,0,0.1-0.1,0.1h-0.2c0,0-0.1,0-0.1-0.1v-2.4
				c0,0,0-0.1,0.1-0.1h0.2c0,0,0.1,0,0.1,0.1V29l1-1.2c0,0,0,0,0.1,0h0.3c0.1,0,0.1,0,0,0.1l-1,1.2L126.1,30.4
				C126.1,30.4,126.1,30.4,126.1,30.4z"/>
			<path fill="#3D1717" d="M127,27.9C127,27.9,127,27.9,127,27.9l0.2-0.1c0,0,0.1,0,0.1,0.1v2c0,0,0,0,0,0l0,0l1.1-2
				c0-0.1,0-0.1,0.1-0.1h0.2c0.1,0,0.1,0,0.1,0.1v2.4c0,0,0,0-0.1,0h-0.2c0,0-0.1,0-0.1-0.1v-2c0,0,0,0,0,0c0,0,0,0,0,0l-1.1,2
				c0,0-0.1,0.1-0.1,0.1h-0.2c-0.1,0-0.1,0-0.1-0.1V27.9z"/>
			<path fill="#3D1717" d="M129.9,30.3v-2.4c0,0,0-0.1,0.1-0.1h0.2c0,0,0.1,0,0.1,0.1v2c0,0,0,0,0,0l0,0l1.1-2c0-0.1,0-0.1,0.1-0.1
				h0.2c0.1,0,0.1,0,0.1,0.1v2.4c0,0,0,0-0.1,0h-0.2c0,0-0.1,0-0.1-0.1v-2c0,0,0,0,0,0c0,0,0,0,0,0l-1.1,2c0,0-0.1,0.1-0.1,0.1H130
				C129.9,30.4,129.9,30.4,129.9,30.3z M131.3,27.2C131.3,27.2,131.3,27.1,131.3,27.2l-0.2-0.1c0,0,0,0-0.1,0.1
				c0,0.2-0.2,0.3-0.3,0.3c-0.2,0-0.3-0.1-0.3-0.3c0,0,0-0.1-0.1-0.1h-0.1c0,0,0,0,0,0.1c0,0.3,0.3,0.5,0.6,0.5
				S131.3,27.5,131.3,27.2z"/>
			<path fill="#3D1717" d="M135.6,28.3c0-0.1,0-0.1-0.2-0.1h-0.9c-0.1,0-0.2,0-0.2,0.1v2.1c0,0,0,0.1-0.1,0.1h-0.2
				c0,0-0.1,0-0.1-0.1v-2.1c0-0.4,0.3-0.4,0.5-0.4h0.9c0.2,0,0.5,0,0.5,0.4v2.1c0,0,0,0.1-0.1,0.1h-0.2c0,0-0.1,0-0.1-0.1V28.3z"/>
			<path fill="#3D1717" d="M137.9,30.5c-0.5,0-0.9-0.3-0.9-1.1v-0.4c0-0.8,0.4-1.1,0.9-1.1c0.5,0,0.9,0.3,0.9,1.1v0.4
				C138.8,30.1,138.4,30.5,137.9,30.5z M138.5,28.9c0-0.6-0.2-0.8-0.6-0.8c-0.4,0-0.6,0.2-0.6,0.8v0.4c0,0.6,0.2,0.8,0.6,0.8
				c0.4,0,0.6-0.2,0.6-0.8V28.9z"/>
			<path fill="#3D1717" d="M140.5,29.4c-0.1,0-0.3,0-0.3,0v1c0,0,0,0.1-0.1,0.1h-0.2c0,0-0.1,0-0.1-0.1v-2.4c0,0,0-0.1,0.1-0.1
				c0.1,0,0.4,0,0.6,0c0.6,0,1,0.2,1,0.8v0C141.5,29.2,141.1,29.4,140.5,29.4z M141.2,28.6c0-0.4-0.2-0.5-0.7-0.5
				c-0.1,0-0.3,0-0.3,0v1c0.1,0,0.3,0,0.3,0C141,29.1,141.2,29,141.2,28.6L141.2,28.6z"/>
			<path fill="#3D1717" d="M143.9,28.1h-0.7v2.2c0,0,0,0.1-0.1,0.1H143c0,0-0.1,0-0.1-0.1v-2.2h-0.7c0,0-0.1,0-0.1-0.1v-0.2
				c0,0,0-0.1,0.1-0.1h1.7c0,0,0.1,0,0.1,0.1L143.9,28.1C144,28.1,143.9,28.1,143.9,28.1z"/>
			<path fill="#3D1717" d="M146.4,30.4h-0.2c0,0-0.1,0-0.1-0.1l-0.2-0.8H145l-0.2,0.8c0,0,0,0.1-0.1,0.1h-0.2c0,0-0.1,0-0.1-0.1
				c0,0,0,0,0,0l0.6-2.3c0.1-0.2,0.2-0.3,0.4-0.3c0.1,0,0.3,0,0.4,0.3L146.4,30.4C146.4,30.4,146.4,30.4,146.4,30.4
				C146.4,30.4,146.4,30.4,146.4,30.4z M145.5,28.2C145.5,28.1,145.5,28.1,145.5,28.2c-0.1-0.1-0.1,0-0.1,0l-0.3,1.1h0.8L145.5,28.2
				z"/>
			<path fill="#3D1717" d="M148.2,28.2C148.2,28.1,148.2,28.1,148.2,28.2c-0.1-0.1-0.1,0-0.1,0l-0.6,2.2c0,0,0,0.1-0.1,0.1h-0.2
				c0,0-0.1,0-0.1-0.1c0,0,0,0,0,0l0.6-2.3c0.1-0.2,0.2-0.3,0.4-0.3c0.1,0,0.3,0,0.4,0.3l0.6,2.3c0,0,0,0,0,0c0,0,0,0.1-0.1,0.1
				h-0.2c0,0-0.1,0-0.1-0.1L148.2,28.2z"/>
		</g>
	</g>
	<polygon fill="#D63535" points="14.8,18.5 25.9,29.6 18.5,37.1 0,18.5 18.5,0 25.9,7.4 	"/>
	<polygon fill="#AD2D2D" points="14.8,18.5 7.4,25.9 18.5,37.1 25.9,29.6 	"/>
	<polygon fill="#992525" points="14.8,18.5 7.4,25.9 16.7,20.4 25.9,29.6 	"/>
	<g>
		<path fill="#C13030" d="M51.3,22.8c-4.3,0-7.1-3.1-7.1-7.7c0-4.3,2.7-7.7,7.2-7.7c3.5,0,6.1,2.2,6.4,5.3h-3.2
			c-0.3-1.6-1.5-2.6-3.3-2.6c-2.8,0-3.9,2.5-3.9,5c0,3,1.5,5,3.9,5c1.9,0,3.1-1.2,3.4-3.3h3.2C57.5,20.4,55.3,22.8,51.3,22.8z"/>
		<path fill="#C13030" d="M72.1,10.4h-7.8v3.2h7.2v2.5h-7.2v3.6h8v2.7H61.1V7.8h11V10.4z"/>
		<path fill="#C13030" d="M85.7,10.5h-7v11.9h-3.2V7.8h10.2V10.5z"/>
		<path fill="#C13030" d="M88.3,7.8h4.6l3.4,10.1l3.3-10.1h4.5v14.7h-3V12l-3.6,10.4h-2.5l-3.7-10.3v10.3h-3.1V7.8z"/>
		<path fill="#C13030" d="M119.1,10.4h-7.8v3.2h7.2v2.5h-7.2v3.6h8v2.7h-11.2V7.8h11V10.4z"/>
		<path fill="#C13030" d="M134.9,22.5h-3.2v-6.3h-6v6.3h-3.2V7.8h3.2v5.5h6V7.8h3.2V22.5z"/>
		<path fill="#C13030" d="M149.7,10.5h-4.4v11.9h-3.2V10.5h-4.4V7.8h12.1V10.5z"/>
	</g>
	
		<rect x="21.2" y="12" transform="matrix(0.7071 -0.7071 0.7071 0.7071 -4.9619 25.0823)" fill="#C13030" width="13.1" height="13.1"/>
</g>
</svg>
