<?xml version="1.0" encoding="utf-8"?>
<!-- Generator: Adobe Illustrator 19.2.1, SVG Export Plug-In . SVG Version: 6.00 Build 0)  -->
<svg version="1.2" baseProfile="tiny" id="Layer_1" xmlns="http://www.w3.org/2000/svg" xmlns:xlink="http://www.w3.org/1999/xlink"
	 x="0px" y="0px" width="60px" height="78px" viewBox="0 0 60 78" xml:space="preserve">
<g>
	<path fill="#231F20" d="M59.5,19.5l-19-19C40.5,0.2,40.3,0,40,0H0.5C0.2,0,0,0.2,0,0.5v77C0,77.8,0.2,78,0.5,78h59
		c0.3,0,0.5-0.2,0.5-0.5V20C60,19.7,59.8,19.5,59.5,19.5z M41,2.4L57.6,19H41V2.4z M59,77H1V1h39v19h19V77z"/>
	<polygon fill="#231F20" points="26.1,40.3 21.6,40.3 19,44.5 16.5,40.3 12,40.3 16.6,47.2 11.7,54.6 16.1,54.6 19,49.8 22,54.6 
		26.4,54.6 21.5,47.2 	"/>
	<polygon fill="#231F20" points="31.3,40.3 27.5,40.3 27.5,54.6 37.8,54.6 37.8,51.3 31.3,51.3 	"/>
	<path fill="#231F20" d="M38.9,44.2c0,5.1,7.4,4.4,7.4,6.5c0,0.7-0.6,1-2.1,1c-1.6,0-3.5-0.4-5.2-1.6v3.6c1.5,0.8,3.4,1.3,5.5,1.3
		c3.1,0,5.7-1,5.7-4.4c0-5.1-7.4-4.5-7.4-6.4c0-0.5,0.4-0.9,1.8-0.9c1.7,0,3.3,0.4,4.5,1.3v-3.5c-1.2-0.7-3-1.1-4.8-1.1
		C41.4,40,38.9,41.4,38.9,44.2z"/>
</g>
</svg>
