<?xml version="1.0" encoding="utf-8"?>
<!-- Generator: Adobe Illustrator 19.2.1, SVG Export Plug-In . SVG Version: 6.00 Build 0)  -->
<svg version="1.2" baseProfile="tiny" id="Layer_1" xmlns="http://www.w3.org/2000/svg" xmlns:xlink="http://www.w3.org/1999/xlink"
	 x="0px" y="0px" width="248.5px" height="51.1px" viewBox="0 0 248.5 51.1" xml:space="preserve">
<g>
	<g>
		<path fill-rule="evenodd" fill="#D73435" d="M55.6,0C45.3,0,36.8,8.4,36.8,18.8c0,10.3,8.4,18.8,18.8,18.8c6.7,0,13-3.7,16.3-9.4
			l-16.3-9.4h18.8C74.4,8.4,65.9,0,55.6,0z M56.9,16c-2,0-3.5-1.6-3.5-3.5c0-2,1.6-3.5,3.5-3.5c2,0,3.5,1.6,3.5,3.5
			C60.4,14.4,58.8,16,56.9,16z"/>
		<path fill-rule="evenodd" fill="#D73435" d="M167.4,0c-10.3,0-18.8,8.4-18.8,18.8c0,10.3,8.4,18.8,18.8,18.8
			c6.7,0,13-3.7,16.3-9.4l-16.3-9.4h18.8C186.2,8.4,177.7,0,167.4,0z M169.9,16c-2,0-3.5-1.6-3.5-3.5c0-2,1.6-3.5,3.5-3.5
			c2,0,3.5,1.6,3.5,3.5C173.5,14.4,171.9,16,169.9,16z"/>
		<path fill-rule="evenodd" fill="#D73435" d="M78.8,38.1h12.7l0.1-30.5h10.1V0.1H78.8V38.1z M86,6.6c2,0,3.5,1.6,3.5,3.5
			c0,2-1.6,3.5-3.5,3.5c-2,0-3.5-1.6-3.5-3.5C82.5,8.2,84,6.6,86,6.6z"/>
		<path fill-rule="evenodd" fill="#D73435" d="M203.2,7.8l-1.4,0V0.1h-13v37.6h13l0.3-19.6l1.3,0l-0.1,19.6h13V0.1h-13V7.8z
			 M206.1,14.1c0,2-1.6,3.5-3.5,3.5c-2,0-3.5-1.6-3.5-3.5c0-2,1.6-3.5,3.5-3.5C204.5,10.6,206.1,12.2,206.1,14.1z"/>
		<path fill-rule="evenodd" fill="#D73435" d="M219.7,0.1v7.5h8.1v30.1h12.7L240.5,7h8v-7H219.7z M234.2,13.7c-2,0-3.5-1.6-3.5-3.5
			c0-2,1.6-3.5,3.5-3.5c2,0,3.5,1.6,3.5,3.5C237.8,12.1,236.2,13.7,234.2,13.7z"/>
		<path fill-rule="evenodd" fill="#D73435" d="M106,0v37.5h13V27.3h1.4v10.2h10.2V27.3h1.4v10.2h13V0l-19.5,9.6L106,0z M119.7,25.5
			c-2,0-3.5-1.6-3.5-3.5c0-2,1.6-3.5,3.5-3.5c2,0,3.5,1.6,3.5,3.5C123.2,23.9,121.6,25.5,119.7,25.5z M131.7,18.4
			c2,0,3.5,1.6,3.5,3.5c0,2-1.6,3.5-3.5,3.5c-2,0-3.5-1.6-3.5-3.5C128.1,20,129.7,18.4,131.7,18.4z"/>
		<path fill-rule="evenodd" fill="#D73435" d="M18.8,0C8.4,0,0,8.4,0,18.8c0,10.3,8.4,18.8,18.8,18.8c6.1,0,11.9-3,15.4-8L18.8,18.8
			L35,9.4C31.7,3.7,25.4,0,18.8,0z M13.4,22.8c-2,0-3.5-1.6-3.5-3.5c0-2,1.6-3.5,3.5-3.5c2,0,3.5,1.6,3.5,3.5
			C16.9,21.2,15.3,22.8,13.4,22.8z"/>
	</g>
	<g>
		<polygon points="1.2,49.8 3,49.8 3,45.4 5,45.4 5,49.8 6.8,49.8 6.8,44 1.2,44 		"/>
		<polygon points="9.8,47.4 12.6,47.4 12.6,46.2 9.8,46.2 9.8,45.3 12.9,45.3 12.9,44 8,44 8,49.8 13,49.8 13,48.5 9.8,48.5 		"/>
		<path d="M17,44h-3v5.8h1.8v-2.1h1c0.7,0,1.3-0.2,1.6-0.5c0.4-0.3,0.5-0.8,0.5-1.4c0-0.6-0.2-1-0.5-1.3C18.1,44.2,17.6,44,17,44z
			 M16.9,46.3c-0.1,0.1-0.4,0.2-0.7,0.2h-0.4v-1.3h0.5c0.3,0,0.6,0.1,0.7,0.2c0.1,0.1,0.2,0.3,0.2,0.5C17.2,46,17.1,46.2,16.9,46.3z
			"/>
		<path d="M24.1,46.7c0.3-0.1,0.5-0.2,0.6-0.4c0.2-0.2,0.3-0.5,0.3-0.9c0-0.4-0.2-0.8-0.5-1c-0.3-0.3-0.7-0.4-1.3-0.4h-3.4v5.8H23
			c0.1,0,0.4,0,0.8-0.1c0.3,0,0.5-0.1,0.7-0.2c0.2-0.1,0.4-0.3,0.6-0.6c0.1-0.2,0.2-0.5,0.2-0.8c0-0.4-0.1-0.7-0.3-0.9
			C24.8,47,24.5,46.8,24.1,46.7z M21.7,45.2h0.8c0.3,0,0.5,0,0.6,0.1c0.1,0.1,0.2,0.2,0.2,0.4c0,0.2-0.1,0.3-0.2,0.4
			c-0.1,0.1-0.3,0.1-0.6,0.1h-0.8V45.2z M23.3,48.4c-0.1,0.1-0.3,0.2-0.7,0.2h-0.9v-1.2h0.9c0.3,0,0.5,0.1,0.7,0.2
			c0.1,0.1,0.2,0.2,0.2,0.4C23.5,48.1,23.4,48.3,23.3,48.4z"/>
		<rect x="32.1" y="44" width="1.8" height="5.8"/>
		<path d="M31,46.7c-0.4-0.3-1.1-0.5-2-0.5h-1V44h-1.8v5.8h3.1c0.7,0,1.3-0.1,1.7-0.4c0.4-0.3,0.6-0.7,0.6-1.2
			C31.7,47.5,31.5,47,31,46.7z M29,48.6h-0.9v-1.1H29c0.6,0,0.9,0.2,0.9,0.5C29.9,48.4,29.6,48.6,29,48.6z"/>
		<path d="M37.1,43.4c0.3,0.2,0.6,0.3,1,0.3c0.4,0,0.7-0.1,1-0.3s0.4-0.5,0.5-0.8h-0.7c-0.1,0.3-0.4,0.5-0.8,0.5
			c-0.4,0-0.6-0.2-0.7-0.5h-0.7C36.6,42.9,36.8,43.2,37.1,43.4z"/>
		<polygon points="36.9,47.2 36.9,44 35.2,44 35.2,49.8 36.9,49.8 39.1,46.6 39.1,49.8 40.8,49.8 40.8,44 39.1,44 		"/>
		<polygon points="48.6,46.1 46.6,46.1 46.6,44 44.8,44 44.8,49.8 46.6,49.8 46.6,47.5 48.6,47.5 48.6,49.8 50.4,49.8 50.4,44 
			48.6,44 		"/>
		<path d="M53.2,44L51,49.8h1.9l0.3-1h2.1l0.3,1h1.9L55.2,44H53.2z M53.5,47.6l0.6-2.1l0.6,2.1H53.5z"/>
		<polygon points="63.6,44 61.8,44 61.8,48.4 59.8,48.4 59.8,44 58,44 58,49.8 62.8,49.8 62.8,51.1 64.3,51.1 64.3,48.5 63.6,48.5 
					"/>
		<polygon points="66.8,47.2 66.8,44 65.1,44 65.1,49.8 66.8,49.8 69,46.6 69,49.8 70.7,49.8 70.7,44 69,44 		"/>
		<path d="M74.7,43.9c-1,0-1.7,0.3-2.2,0.8c-0.5,0.5-0.8,1.3-0.8,2.2c0,0.7,0.1,1.2,0.4,1.7c0.3,0.5,0.6,0.8,1.1,1
			c0.4,0.2,1,0.3,1.6,0.3c0.7,0,1.2-0.1,1.6-0.4c0.4-0.2,0.8-0.6,1-1c0.2-0.4,0.3-1,0.3-1.7c0-0.9-0.3-1.7-0.8-2.2
			C76.5,44.2,75.7,43.9,74.7,43.9z M75.6,48.2c-0.2,0.3-0.5,0.4-0.9,0.4c-0.4,0-0.7-0.1-0.9-0.4c-0.2-0.3-0.3-0.7-0.3-1.3
			c0-0.6,0.1-1,0.3-1.3c0.2-0.3,0.5-0.4,0.9-0.4c0.4,0,0.7,0.1,0.9,0.4c0.2,0.3,0.3,0.6,0.3,1.2C76,47.5,75.9,47.9,75.6,48.2z"/>
		<polygon points="82.6,46.1 80.6,46.1 80.6,44 78.8,44 78.8,49.8 80.6,49.8 80.6,47.5 82.6,47.5 82.6,49.8 84.4,49.8 84.4,44 
			82.6,44 		"/>
		<path d="M92.4,47.9c0,0.3-0.1,0.5-0.2,0.6c-0.1,0.1-0.3,0.2-0.5,0.2h-0.3v1.2L89.2,44h-2L85,49.8h1.9l0.3-1h2.1l0.3,1h1.9l0,0
			c0.3,0,0.5,0.1,0.7,0.1c0.6,0,1.1-0.1,1.4-0.2c0.3-0.2,0.5-0.4,0.6-0.8c0.1-0.3,0.1-0.9,0.1-1.6v-1.8h1.4v4.4h1.8V44h-5.1V47.9z
			 M87.6,47.6l0.6-2.1l0.6,2.1H87.6z"/>
		<path d="M103.4,46.7c-0.4-0.3-1.1-0.5-2-0.5h-1V44h-1.8v5.8h3.1c0.7,0,1.3-0.1,1.7-0.4c0.4-0.3,0.6-0.7,0.6-1.2
			C104,47.5,103.8,47,103.4,46.7z M101.4,48.6h-0.9v-1.1h0.9c0.6,0,0.9,0.2,0.9,0.5C102.2,48.4,101.9,48.6,101.4,48.6z"/>
		<polygon points="108.8,46.1 106.8,46.1 106.8,44 105,44 105,49.8 106.8,49.8 106.8,47.5 108.8,47.5 108.8,49.8 110.6,49.8 
			110.6,44 108.8,44 		"/>
		<rect x="117.7" y="44" width="1.8" height="5.8"/>
		<path d="M116.6,46.7c-0.4-0.3-1.1-0.5-2-0.5h-1V44h-1.8v5.8h3.1c0.7,0,1.3-0.1,1.7-0.4c0.4-0.3,0.6-0.7,0.6-1.2
			C117.2,47.5,117,47,116.6,46.7z M114.6,48.6h-0.9v-1.1h0.9c0.6,0,0.9,0.2,0.9,0.5C115.4,48.4,115.1,48.6,114.6,48.6z"/>
		<path d="M122.6,43.4c0.3,0.2,0.6,0.3,1,0.3c0.4,0,0.7-0.1,1-0.3c0.3-0.2,0.4-0.5,0.5-0.8h-0.7c-0.1,0.3-0.4,0.5-0.8,0.5
			c-0.4,0-0.6-0.2-0.7-0.5h-0.7C122.2,42.9,122.3,43.2,122.6,43.4z"/>
		<polygon points="122.4,47.2 122.4,44 120.7,44 120.7,49.8 122.4,49.8 124.6,46.6 124.6,49.8 126.3,49.8 126.3,44 124.6,44 		"/>
		<path d="M134.2,47.3c-0.2-0.2-0.4-0.4-0.7-0.4c0.2-0.1,0.3-0.2,0.5-0.3c0.1-0.1,0.2-0.3,0.3-0.6c0.1-0.3,0.2-0.4,0.4-0.6
			c0.1-0.1,0.4-0.2,0.7-0.2h0.1V44c-0.7,0-1.2,0-1.5,0.1c-0.3,0.1-0.5,0.2-0.7,0.3c-0.1,0.2-0.3,0.4-0.4,0.8
			c-0.2,0.5-0.3,0.8-0.4,0.9c-0.1,0.1-0.2,0.2-0.4,0.2V44h-1.8v5.8h1.8v-2.3c0.2,0,0.3,0,0.4,0.1c0.1,0.1,0.2,0.3,0.4,0.7l0.7,1.5h2
			l-0.8-1.6C134.6,47.8,134.4,47.5,134.2,47.3z"/>
		<path d="M137.9,44l-2.2,5.8h1.9l0.3-1h2.1l0.3,1h1.9l-2.2-5.8H137.9z M138.3,47.6l0.6-2.1l0.6,2.1H138.3z"/>
		<polygon points="146.5,46.1 144.5,46.1 144.5,44 142.7,44 142.7,49.8 144.5,49.8 144.5,47.5 146.5,47.5 146.5,49.8 148.3,49.8 
			148.3,44 146.5,44 		"/>
		<polygon points="155.2,44 153.4,44 153.4,48.4 151.4,48.4 151.4,44 149.6,44 149.6,49.8 154.4,49.8 154.4,51.1 155.8,51.1 
			155.8,48.5 155.2,48.5 		"/>
		<polygon points="158.4,47.4 161.3,47.4 161.3,46.2 158.4,46.2 158.4,45.3 161.5,45.3 161.5,44 156.6,44 156.6,49.8 161.6,49.8 
			161.6,48.5 158.4,48.5 		"/>
		<path d="M162.9,47.9c0,0.3-0.1,0.5-0.2,0.6c-0.1,0.1-0.3,0.2-0.5,0.2H162v1.2c0.3,0,0.5,0.1,0.7,0.1c0.6,0,1.1-0.1,1.4-0.2
			c0.3-0.2,0.5-0.4,0.6-0.8c0.1-0.3,0.1-0.9,0.1-1.6v-1.8h1.4v4.4h1.8V44h-5.1V47.9z"/>
		<path d="M170,44.2c-0.3,0.1-0.5,0.3-0.7,0.5c-0.2,0.3-0.3,0.6-0.3,0.9c0,0.3,0.1,0.6,0.2,0.8c0.1,0.2,0.3,0.4,0.6,0.6
			c0.2,0.1,0.4,0.2,0.6,0.2c-0.2,0.1-0.4,0.1-0.5,0.2c-0.1,0-0.2,0.1-0.3,0.3c-0.1,0.2-0.2,0.3-0.3,0.4l-0.9,1.7h2.1l1-1.8
			c0.1-0.2,0.2-0.4,0.3-0.4c0.1-0.1,0.3-0.1,0.4-0.1h0.2v2.3h1.8V44h-3C170.8,44,170.3,44.1,170,44.2z M172.5,45.2v1.2h-0.8
			c-0.1,0-0.2,0-0.5-0.1c-0.1,0-0.2-0.1-0.3-0.2c-0.1-0.1-0.1-0.2-0.1-0.3c0-0.2,0.1-0.3,0.2-0.4c0.1-0.1,0.3-0.2,0.7-0.2H172.5z"/>
		<path d="M178.6,44h-3v5.8h1.8v-2.1h1c0.7,0,1.3-0.2,1.6-0.5c0.4-0.3,0.5-0.8,0.5-1.4c0-0.6-0.2-1-0.5-1.3
			C179.7,44.2,179.2,44,178.6,44z M178.6,46.3c-0.1,0.1-0.4,0.2-0.7,0.2h-0.4v-1.3h0.5c0.3,0,0.6,0.1,0.7,0.2
			c0.1,0.1,0.2,0.3,0.2,0.5C178.8,46,178.7,46.2,178.6,46.3z"/>
		<path d="M185,48.3c-0.2,0.2-0.4,0.3-0.8,0.3c-0.4,0-0.6-0.1-0.8-0.4c-0.2-0.2-0.3-0.7-0.3-1.3c0-0.5,0.1-0.9,0.2-1.1
			c0.2-0.3,0.5-0.5,0.9-0.5c0.2,0,0.3,0,0.5,0.1c0.1,0.1,0.3,0.2,0.4,0.3c0.1,0.1,0.1,0.2,0.2,0.4l1.6-0.4c-0.2-0.6-0.5-1.1-0.9-1.4
			s-1-0.4-1.7-0.4c-0.9,0-1.7,0.3-2.2,0.8s-0.8,1.2-0.8,2.2c0,0.7,0.1,1.3,0.4,1.8c0.3,0.5,0.6,0.8,1,1c0.4,0.2,0.9,0.3,1.6,0.3
			c0.5,0,1-0.1,1.3-0.2c0.3-0.1,0.6-0.4,0.9-0.7c0.2-0.3,0.4-0.7,0.5-1.1l-1.6-0.5C185.4,47.8,185.2,48.1,185,48.3z"/>
		<path d="M191.8,47.3c-0.2-0.2-0.4-0.4-0.7-0.4c0.2-0.1,0.3-0.2,0.5-0.3c0.1-0.1,0.2-0.3,0.3-0.6c0.1-0.3,0.2-0.4,0.4-0.6
			c0.1-0.1,0.4-0.2,0.7-0.2h0.1V44c-0.7,0-1.2,0-1.5,0.1c-0.3,0.1-0.5,0.2-0.7,0.3c-0.1,0.2-0.3,0.4-0.4,0.8
			c-0.2,0.5-0.3,0.8-0.4,0.9c-0.1,0.1-0.2,0.2-0.4,0.2V44h-1.8v5.8h1.8v-2.3c0.2,0,0.3,0,0.4,0.1c0.1,0.1,0.2,0.3,0.4,0.7l0.7,1.5h2
			l-0.8-1.6C192.2,47.8,192,47.5,191.8,47.3z"/>
		<polygon points="195.6,47.2 195.6,44 193.9,44 193.9,49.8 195.6,49.8 197.8,46.6 197.8,49.8 199.5,49.8 199.5,44 197.8,44 		"/>
		<path d="M202.6,43.4c0.3,0.2,0.6,0.3,1,0.3c0.4,0,0.7-0.1,1-0.3c0.3-0.2,0.4-0.5,0.5-0.8h-0.7c-0.1,0.3-0.4,0.5-0.8,0.5
			c-0.4,0-0.6-0.2-0.7-0.5h-0.7C202.2,42.9,202.4,43.2,202.6,43.4z"/>
		<polygon points="202.5,47.2 202.5,44 200.8,44 200.8,49.8 202.5,49.8 204.7,46.6 204.7,49.8 206.4,49.8 206.4,44 204.7,44 		"/>
		<polygon points="210.4,49.8 212.2,49.8 212.2,45.4 214.2,45.4 214.2,49.8 216,49.8 216,44 210.4,44 		"/>
		<path d="M220,43.9c-1,0-1.7,0.3-2.2,0.8c-0.5,0.5-0.8,1.3-0.8,2.2c0,0.7,0.1,1.2,0.4,1.7c0.3,0.5,0.6,0.8,1.1,1
			c0.4,0.2,1,0.3,1.6,0.3c0.7,0,1.2-0.1,1.6-0.4c0.4-0.2,0.8-0.6,1-1c0.2-0.4,0.3-1,0.3-1.7c0-0.9-0.3-1.7-0.8-2.2
			C221.7,44.2,221,43.9,220,43.9z M220.9,48.2c-0.2,0.3-0.5,0.4-0.9,0.4c-0.4,0-0.7-0.1-0.9-0.4c-0.2-0.3-0.3-0.7-0.3-1.3
			c0-0.6,0.1-1,0.3-1.3c0.2-0.3,0.5-0.4,0.9-0.4c0.4,0,0.7,0.1,0.9,0.4c0.2,0.3,0.3,0.6,0.3,1.2C221.2,47.5,221.1,47.9,220.9,48.2z"
			/>
		<path d="M227.1,44h-3v5.8h1.8v-2.1h1c0.7,0,1.3-0.2,1.6-0.5c0.4-0.3,0.5-0.8,0.5-1.4c0-0.6-0.2-1-0.5-1.3
			C228.2,44.2,227.7,44,227.1,44z M227,46.3c-0.1,0.1-0.4,0.2-0.7,0.2h-0.4v-1.3h0.5c0.3,0,0.6,0.1,0.7,0.2c0.1,0.1,0.2,0.3,0.2,0.5
			C227.3,46,227.2,46.2,227,46.3z"/>
		<polygon points="229.6,45.5 231.4,45.5 231.4,49.8 233.2,49.8 233.2,45.5 235.1,45.5 235.1,44 229.6,44 		"/>
		<path d="M242.7,44v3.8c0,0.3-0.1,0.5-0.2,0.6c-0.1,0.1-0.3,0.2-0.5,0.2h-0.3v1.2l-2.2-5.7h-2l-2.2,5.8h1.9l0.3-1h2.1l0.3,1h1.9
			l0,0c0.3,0,0.5,0.1,0.7,0.1c0.6,0,1.1-0.1,1.4-0.2c0.3-0.2,0.5-0.4,0.6-0.8c0.1-0.3,0.1-0.9,0.1-1.6v-1.8h1.4v4.4h1.8V44H242.7z
			 M237.9,47.6l0.6-2.1l0.6,2.1H237.9z"/>
	</g>
</g>
</svg>
