<?xml version="1.0" encoding="utf-8"?>
<!-- Generator: Adobe Illustrator 19.2.1, SVG Export Plug-In . SVG Version: 6.00 Build 0)  -->
<svg version="1.2" baseProfile="tiny" id="Layer_1" xmlns="http://www.w3.org/2000/svg" xmlns:xlink="http://www.w3.org/1999/xlink"
	 x="0px" y="0px" width="12px" height="10px" viewBox="0 0 12 10" xml:space="preserve">
<path fill="#231F20" d="M12,5c0,0,0-0.1,0-0.1c0-0.1,0-0.2,0-0.2c0,0,0-0.1,0-0.1c0-0.1-0.1-0.2-0.2-0.3l-4-4c-0.4-0.4-1-0.4-1.4,0
	s-0.4,1,0,1.4L8.6,4H1C0.4,4,0,4.4,0,5s0.4,1,1,1h7.6L6.3,8.3c-0.4,0.4-0.4,1,0,1.4C6.5,9.9,6.7,10,7,10s0.5-0.1,0.7-0.3l4-4
	c0,0,0,0,0,0c0.1-0.1,0.1-0.2,0.2-0.3c0,0,0,0,0,0c0,0,0,0,0,0C12,5.2,12,5.1,12,5z"/>
</svg>
