<?xml version="1.0" encoding="utf-8"?>
<!-- Generator: Adobe Illustrator 19.2.1, SVG Export Plug-In . SVG Version: 6.00 Build 0)  -->
<svg version="1.2" baseProfile="tiny" id="Layer_1" xmlns="http://www.w3.org/2000/svg" xmlns:xlink="http://www.w3.org/1999/xlink"
	 x="0px" y="0px" width="17.9px" height="17.9px" viewBox="0 0 17.9 17.9" xml:space="preserve">
<path fill="#231F20" d="M17.6,16.2l-5-5C13.5,10,14,8.5,14,7c0-1.9-0.7-3.6-2.1-4.9C9.2-0.7,4.8-0.7,2,2c-2.7,2.7-2.7,7.2,0,9.9
	C3.4,13.3,5.1,14,7,14c1.5,0,3-0.5,4.2-1.4l5,5c0.2,0.2,0.5,0.3,0.7,0.3s0.5-0.1,0.7-0.3C18,17.2,18,16.6,17.6,16.2z M3.5,10.5
	c-1.9-1.9-1.9-5.1,0-7.1C4.4,2.5,5.7,2,7,2s2.6,0.5,3.5,1.5C11.5,4.4,12,5.7,12,7c0,1.3-0.5,2.6-1.5,3.5S8.3,12,7,12
	C5.7,12,4.4,11.5,3.5,10.5z"/>
</svg>
