<?xml version="1.0" encoding="utf-8"?>
<!-- Generator: Adobe Illustrator 19.2.1, SVG Export Plug-In . SVG Version: 6.00 Build 0)  -->
<svg version="1.2" baseProfile="tiny" id="Layer_1" xmlns="http://www.w3.org/2000/svg" xmlns:xlink="http://www.w3.org/1999/xlink"
	 x="0px" y="0px" width="466.5px" height="115.5px" viewBox="0 0 466.5 115.5" xml:space="preserve">
<g>
	<g>
		<polygon fill="#D63535" points="46.2,57.7 80.8,92.4 57.7,115.5 0,57.7 57.7,0 80.8,23.1 		"/>
		<polygon fill="#AD2D2D" points="46.2,57.7 23,80.7 57.7,115.5 80.8,92.4 		"/>
		<polygon fill="#992525" points="46.2,57.7 23,80.7 52,63.5 80.8,92.4 		"/>
		<g>
			<path fill="#C13030" d="M159.9,71.1c-13.3,0-22.1-9.6-22.1-24c0-13.3,8.5-23.9,22.5-23.9c11,0,19,6.9,19.8,16.4h-9.8
				c-1-5-4.8-8-10.2-8c-8.8,0-12.2,7.9-12.2,15.6c0,9.4,4.7,15.5,12.1,15.5c6,0,9.6-3.6,10.5-10.3h10
				C179.3,63.5,172.4,71.1,159.9,71.1z"/>
			<path fill="#C13030" d="M224.6,32.5h-24.4v10h22.4v7.9h-22.4v11.2h24.8V70h-34.8V24.2h34.3V32.5z"/>
			<path fill="#C13030" d="M267.1,32.8h-21.9V70h-10V24.2h31.9V32.8z"/>
			<path fill="#C13030" d="M275.3,24.2h14.3l10.7,31.4l10.4-31.4h14V70h-9.4V37.5L304,70h-7.8l-11.4-32.2V70h-9.6V24.2z"/>
			<path fill="#C13030" d="M371.1,32.5h-24.4v10h22.4v7.9h-22.4v11.2h24.8V70h-34.8V24.2h34.3V32.5z"/>
			<path fill="#C13030" d="M420.4,70h-10V50.3h-18.7V70h-10V24.2h10v17.2h18.7V24.2h10V70z"/>
			<path fill="#C13030" d="M466.5,32.8h-13.8V70h-10.1V32.8h-13.8v-8.5h37.6V32.8z"/>
		</g>
		
			<rect x="66.2" y="37.3" transform="matrix(0.7071 -0.7071 0.7071 0.7071 -15.4621 78.1606)" fill="#C13030" width="40.8" height="40.8"/>
	</g>
	<g>
		<path d="M149,87.2c2,0,2.4,1,2.4,2.3v6c0,0.1-0.1,0.2-0.2,0.2h-1.5c-0.1,0-0.2-0.1-0.2-0.2v-6c0-0.3,0-0.6-0.5-0.6h-1.8
			c-0.5,0-0.5,0.2-0.5,0.6v6c0,0.1-0.1,0.2-0.2,0.2h-1.5c-0.1,0-0.2-0.1-0.2-0.2v-6c0-1.3,0.4-2.3,2.4-2.3H149z"/>
		<path d="M158.7,95.7c-0.4,0.1-1,0.1-2.2,0.1c-1.5,0-2.8-0.4-2.8-2.5v-3.8c0-2.1,1.3-2.5,2.8-2.5c1.2,0,1.8,0.1,2.2,0.1
			c0.2,0,0.2,0.1,0.2,0.2v1.1c0,0.1-0.1,0.2-0.2,0.2h-2.3c-0.5,0-0.7,0.2-0.7,0.8v1h3c0.1,0,0.2,0.1,0.2,0.2v1.1
			c0,0.1-0.1,0.2-0.2,0.2h-3v1.2c0,0.6,0.2,0.8,0.7,0.8h2.3c0.1,0,0.2,0.1,0.2,0.2v1.1C158.9,95.6,158.9,95.6,158.7,95.7z"/>
		<path d="M164,92.7c-0.3,0-0.6,0-0.9,0v2.8c0,0.1-0.1,0.2-0.2,0.2h-1.5c-0.1,0-0.2-0.1-0.2-0.2v-7.7c0-0.4,0.2-0.5,0.5-0.6
			c0.6-0.1,1.5-0.1,2.3-0.1c1.7,0,3.4,0.6,3.4,2.8v0.1C167.4,92.1,165.7,92.7,164,92.7z M165.4,89.8c0-0.8-0.5-1.1-1.5-1.1
			c-0.2,0-0.8,0-0.9,0v2.3c0.1,0,0.8,0,0.9,0c1,0,1.5-0.4,1.5-1.2V89.8z"/>
		<path d="M172,95.8c-0.8,0-1.7-0.1-2.1-0.1c-0.5-0.1-0.6-0.2-0.6-0.7v-7c0-0.5,0.2-0.7,0.6-0.7c0.4-0.1,1.3-0.1,2.1-0.1
			c2.2,0,3.6,0.6,3.6,2.4v0.2c0,0.7-0.4,1.4-1,1.7c0.6,0.3,1,0.9,1,1.7v0.2C175.6,95.2,174,95.8,172,95.8z M173.7,89.6
			c0-0.6-0.4-0.9-1.6-0.9c-0.2,0-0.7,0-0.9,0v2h1.3c0.9,0,1.2-0.4,1.2-0.9V89.6z M173.7,93.1c0-0.6-0.3-1-1.2-1h-1.3v2.1
			c0.2,0,0.8,0,0.9,0c1.2,0,1.6-0.4,1.6-1V93.1z"/>
		<path d="M177.7,87.4c0-0.1,0.1-0.2,0.2-0.2h1.5c0.1,0,0.2,0.1,0.2,0.2v3.1c0.3,0,0.5,0,0.8,0c2,0,3.6,0.5,3.6,2.6v0.1
			c0,2.1-1.6,2.7-3.6,2.7c-0.8,0-1.7-0.1-2.1-0.1c-0.5-0.1-0.6-0.2-0.6-0.7V87.4z M182.1,93.1L182.1,93.1c0-0.8-0.3-1.1-1.8-1.1
			c-0.5,0-0.5,0-0.7,0v2.1c0.2,0,0.2,0,0.7,0C181.8,94.2,182.1,93.9,182.1,93.1z M186.6,95.7H185c-0.1,0-0.2-0.1-0.2-0.2v-8.1
			c0-0.1,0.1-0.2,0.2-0.2h1.5c0.1,0,0.2,0.1,0.2,0.2v8.1C186.8,95.6,186.7,95.7,186.6,95.7z"/>
		<path d="M189.1,87.4c0-0.1,0.1-0.2,0.2-0.2h1.4c0.1,0,0.2,0.1,0.2,0.2v4.9c0,0.1,0,0.1,0.1,0.1c0,0,0,0,0.1-0.1l2.7-4.7
			c0.1-0.2,0.3-0.4,0.5-0.4h1.2c0.2,0,0.4,0.2,0.4,0.4v7.9c0,0.1-0.1,0.2-0.2,0.2h-1.4c-0.1,0-0.2-0.1-0.2-0.2v-4.6
			c0-0.1,0-0.1-0.1-0.1c0,0-0.1,0-0.1,0.1l-2.6,4.5c-0.2,0.3-0.4,0.4-0.6,0.4h-1.1c-0.2,0-0.4-0.2-0.4-0.4V87.4z M190.4,84.9
			c0-0.1,0-0.1,0.1-0.1h1c0.1,0,0.1,0,0.1,0.1c0.1,0.5,0.4,0.7,0.9,0.7c0.4,0,0.7-0.2,0.9-0.7c0-0.1,0.1-0.1,0.1-0.1h1
			c0.1,0,0.1,0,0.1,0.1c-0.1,0.9-0.9,1.7-2.1,1.7C191.2,86.6,190.5,85.9,190.4,84.9z"/>
		<path d="M208.4,95.7h-1.5c-0.1,0-0.2-0.1-0.2-0.2v-3.3h-2.8v3.3c0,0.1-0.1,0.2-0.2,0.2h-1.5c-0.1,0-0.2-0.1-0.2-0.2v-8.1
			c0-0.1,0.1-0.2,0.2-0.2h1.5c0.1,0,0.2,0.1,0.2,0.2v3.1h2.8v-3.1c0-0.1,0.1-0.2,0.2-0.2h1.5c0.1,0,0.2,0.1,0.2,0.2v8.1
			C208.7,95.6,208.6,95.7,208.4,95.7z"/>
		<path d="M217.5,95.7h-1.6c-0.1,0-0.2-0.1-0.2-0.2l-0.4-1.9h-2.4l-0.4,1.9c0,0.1-0.1,0.2-0.2,0.2h-1.6c-0.1,0-0.2-0.1-0.2-0.2
			c0,0,0,0,0-0.1l1.7-7.1c0.3-1.1,1.1-1.3,1.9-1.3c0.8,0,1.6,0.2,1.9,1.3l1.7,7.1c0,0,0,0,0,0.1C217.6,95.6,217.6,95.7,217.5,95.7z
			 M214.2,88.9c0-0.1,0-0.2-0.1-0.2s-0.1,0.1-0.2,0.2l-0.7,3.2h1.7L214.2,88.9z"/>
		<path d="M224.9,95.7h-3.3c-2,0-2.4-1-2.4-2.3v-6c0-0.1,0.1-0.2,0.2-0.2h1.5c0.1,0,0.2,0.1,0.2,0.2v6c0,0.3,0,0.6,0.5,0.6h1.8
			c0.5,0,0.5-0.2,0.5-0.6v-6c0-0.1,0.1-0.2,0.2-0.2h1.5c0.1,0,0.2,0.1,0.2,0.2v6c0,0.2,0,0.4,0,0.6h0.8c0.1,0,0.2,0.1,0.2,0.2v2.7
			c0,0.1-0.1,0.2-0.2,0.2h-1.5c-0.1,0-0.2-0.1-0.2-0.2V95.7z"/>
		<path d="M228.7,87.4c0-0.1,0.1-0.2,0.2-0.2h1.4c0.1,0,0.2,0.1,0.2,0.2v4.9c0,0.1,0,0.1,0.1,0.1c0,0,0,0,0.1-0.1l2.7-4.7
			c0.1-0.2,0.3-0.4,0.5-0.4h1.2c0.2,0,0.4,0.2,0.4,0.4v7.9c0,0.1-0.1,0.2-0.2,0.2h-1.4c-0.1,0-0.2-0.1-0.2-0.2v-4.6
			c0-0.1,0-0.1-0.1-0.1c0,0-0.1,0-0.1,0.1l-2.6,4.5c-0.2,0.3-0.4,0.4-0.6,0.4h-1.1c-0.2,0-0.4-0.2-0.4-0.4V87.4z"/>
		<path d="M241,95.8c-1.9,0-3.4-1-3.4-3.7v-1.4c0-2.7,1.5-3.7,3.4-3.7c1.9,0,3.4,1,3.4,3.7v1.4C244.4,94.8,242.9,95.8,241,95.8z
			 M242.4,90.8c0-1.4-0.5-2-1.4-2c-1,0-1.4,0.6-1.4,2v1.4c0,1.4,0.4,2,1.4,2c1,0,1.4-0.6,1.4-2V90.8z"/>
		<path d="M253,95.7h-1.5c-0.1,0-0.2-0.1-0.2-0.2v-3.3h-2.8v3.3c0,0.1-0.1,0.2-0.2,0.2h-1.5c-0.1,0-0.2-0.1-0.2-0.2v-8.1
			c0-0.1,0.1-0.2,0.2-0.2h1.5c0.1,0,0.2,0.1,0.2,0.2v3.1h2.8v-3.1c0-0.1,0.1-0.2,0.2-0.2h1.5c0.1,0,0.2,0.1,0.2,0.2v8.1
			C253.2,95.6,253.1,95.7,253,95.7z"/>
		<path d="M262,95.7h-1.6c-0.1,0-0.2-0.1-0.2-0.2l-0.4-1.9h-2.4l-0.4,1.9c0,0.1-0.1,0.2-0.2,0.2h-1.6c-0.1,0-0.2-0.1-0.2-0.2
			c0,0,0,0,0-0.1l1.7-7.1c0.3-1.1,1.1-1.3,1.9-1.3c0.8,0,1.6,0.2,1.9,1.3l1.7,7.1c0,0,0,0,0,0.1C262.2,95.6,262.1,95.7,262,95.7z
			 M258.8,88.9c0-0.1,0-0.2-0.1-0.2c-0.1,0-0.1,0.1-0.2,0.2l-0.7,3.2h1.7L258.8,88.9z"/>
		<path d="M267.1,88.9c0-0.1,0-0.2-0.1-0.2c-0.1,0-0.1,0.1-0.2,0.2l-1.4,6.6c0,0.1-0.1,0.2-0.2,0.2h-1.6c-0.1,0-0.2-0.1-0.2-0.2
			c0,0,0,0,0-0.1l1.7-7.1c0.3-1.1,1.1-1.3,1.9-1.3c0.8,0,1.6,0.2,1.9,1.3l1.7,7.1c0,0,0,0,0,0.1c0,0.1-0.1,0.2-0.2,0.2h-1.6
			c-0.1,0-0.2-0.1-0.2-0.2L267.1,88.9z"/>
		<path d="M272.4,87.4c0-0.1,0.1-0.2,0.2-0.2h1.5c0.1,0,0.2,0.1,0.2,0.2v3.1c0.3,0,0.5,0,0.8,0c2,0,3.6,0.5,3.6,2.6v0.1
			c0,2.1-1.6,2.7-3.6,2.7c-0.8,0-1.7-0.1-2.1-0.1c-0.5-0.1-0.6-0.2-0.6-0.7V87.4z M276.8,93.1L276.8,93.1c0-0.8-0.3-1.1-1.8-1.1
			c-0.5,0-0.5,0-0.7,0v2.1c0.2,0,0.2,0,0.7,0C276.5,94.2,276.8,93.9,276.8,93.1z"/>
		<path d="M287.3,95.7h-1.5c-0.1,0-0.2-0.1-0.2-0.2v-3.3h-2.8v3.3c0,0.1-0.1,0.2-0.2,0.2H281c-0.1,0-0.2-0.1-0.2-0.2v-8.1
			c0-0.1,0.1-0.2,0.2-0.2h1.5c0.1,0,0.2,0.1,0.2,0.2v3.1h2.8v-3.1c0-0.1,0.1-0.2,0.2-0.2h1.5c0.1,0,0.2,0.1,0.2,0.2v8.1
			C287.5,95.6,287.4,95.7,287.3,95.7z"/>
		<path d="M289.8,87.4c0-0.1,0.1-0.2,0.2-0.2h1.5c0.1,0,0.2,0.1,0.2,0.2v3.1c0.3,0,0.5,0,0.8,0c2,0,3.6,0.5,3.6,2.6v0.1
			c0,2.1-1.6,2.7-3.6,2.7c-0.8,0-1.7-0.1-2.1-0.1c-0.5-0.1-0.6-0.2-0.6-0.7V87.4z M294.3,93.1L294.3,93.1c0-0.8-0.3-1.1-1.8-1.1
			c-0.5,0-0.5,0-0.7,0v2.1c0.2,0,0.2,0,0.7,0C293.9,94.2,294.3,93.9,294.3,93.1z M298.7,95.7h-1.5c-0.1,0-0.2-0.1-0.2-0.2v-8.1
			c0-0.1,0.1-0.2,0.2-0.2h1.5c0.1,0,0.2,0.1,0.2,0.2v8.1C299,95.6,298.9,95.7,298.7,95.7z"/>
		<path d="M301.3,87.4c0-0.1,0.1-0.2,0.2-0.2h1.4c0.1,0,0.2,0.1,0.2,0.2v4.9c0,0.1,0,0.1,0.1,0.1c0,0,0,0,0.1-0.1l2.7-4.7
			c0.1-0.2,0.3-0.4,0.5-0.4h1.2c0.2,0,0.4,0.2,0.4,0.4v7.9c0,0.1-0.1,0.2-0.2,0.2h-1.4c-0.1,0-0.2-0.1-0.2-0.2v-4.6
			c0-0.1,0-0.1-0.1-0.1c0,0-0.1,0-0.1,0.1l-2.6,4.5c-0.2,0.3-0.4,0.4-0.6,0.4h-1.1c-0.2,0-0.4-0.2-0.4-0.4V87.4z M302.5,84.9
			c0-0.1,0-0.1,0.1-0.1h1c0.1,0,0.1,0,0.1,0.1c0.1,0.5,0.4,0.7,0.9,0.7s0.7-0.2,0.9-0.7c0-0.1,0.1-0.1,0.1-0.1h1
			c0.1,0,0.1,0,0.1,0.1c-0.1,0.9-0.9,1.7-2.1,1.7C303.4,86.6,302.6,85.9,302.5,84.9z"/>
		<path d="M320.7,87.5l-2.7,3.9l2.7,4.1c0,0,0,0.1,0,0.1c0,0.1-0.1,0.1-0.2,0.1h-2c-0.1,0-0.2-0.1-0.3-0.2l-2.3-3.8v3.7
			c0,0.1-0.1,0.2-0.2,0.2h-1.5c-0.1,0-0.2-0.1-0.2-0.2v-8.1c0-0.1,0.1-0.2,0.2-0.2h1.5c0.1,0,0.2,0.1,0.2,0.2V91l2.5-3.7
			c0.1-0.1,0.1-0.1,0.3-0.1h1.8c0.1,0,0.2,0.1,0.2,0.1C320.7,87.3,320.7,87.4,320.7,87.5z"/>
		<path d="M329,95.7h-1.6c-0.1,0-0.2-0.1-0.2-0.2l-0.4-1.9h-2.4l-0.4,1.9c0,0.1-0.1,0.2-0.2,0.2h-1.6c-0.1,0-0.2-0.1-0.2-0.2
			c0,0,0,0,0-0.1l1.7-7.1c0.3-1.1,1.1-1.3,1.9-1.3c0.8,0,1.6,0.2,1.9,1.3l1.7,7.1c0,0,0,0,0,0.1C329.2,95.6,329.1,95.7,329,95.7z
			 M325.7,88.9c0-0.1,0-0.2-0.1-0.2c-0.1,0-0.1,0.1-0.2,0.2l-0.7,3.2h1.7L325.7,88.9z"/>
		<path d="M337.4,95.7h-1.5c-0.1,0-0.2-0.1-0.2-0.2v-3.3h-2.8v3.3c0,0.1-0.1,0.2-0.2,0.2h-1.5c-0.1,0-0.2-0.1-0.2-0.2v-8.1
			c0-0.1,0.1-0.2,0.2-0.2h1.5c0.1,0,0.2,0.1,0.2,0.2v3.1h2.8v-3.1c0-0.1,0.1-0.2,0.2-0.2h1.5c0.1,0,0.2,0.1,0.2,0.2v8.1
			C337.6,95.6,337.5,95.7,337.4,95.7z"/>
		<path d="M345.7,95.7h-3.3c-2,0-2.4-1-2.4-2.3v-6c0-0.1,0.1-0.2,0.2-0.2h1.5c0.1,0,0.2,0.1,0.2,0.2v6c0,0.3,0,0.6,0.5,0.6h1.8
			c0.5,0,0.5-0.2,0.5-0.6v-6c0-0.1,0.1-0.2,0.2-0.2h1.5c0.1,0,0.2,0.1,0.2,0.2v6c0,0.2,0,0.4,0,0.6h0.8c0.1,0,0.2,0.1,0.2,0.2v2.7
			c0,0.1-0.1,0.2-0.2,0.2h-1.5c-0.1,0-0.2-0.1-0.2-0.2V95.7z"/>
		<path d="M354.2,95.7c-0.4,0.1-1,0.1-2.2,0.1c-1.5,0-2.8-0.4-2.8-2.5v-3.8c0-2.1,1.3-2.5,2.8-2.5c1.2,0,1.8,0.1,2.2,0.1
			c0.2,0,0.2,0.1,0.2,0.2v1.1c0,0.1-0.1,0.2-0.2,0.2h-2.3c-0.5,0-0.7,0.2-0.7,0.8v1h3c0.1,0,0.2,0.1,0.2,0.2v1.1
			c0,0.1-0.1,0.2-0.2,0.2h-3v1.2c0,0.6,0.2,0.8,0.7,0.8h2.3c0.1,0,0.2,0.1,0.2,0.2v1.1C354.5,95.6,354.4,95.6,354.2,95.7z"/>
		<path d="M359.8,88.9c0-0.1,0-0.2-0.1-0.2c-0.1,0-0.1,0.1-0.2,0.2l-1.4,6.6c0,0.1-0.1,0.2-0.2,0.2h-1.6c-0.1,0-0.2-0.1-0.2-0.2
			c0,0,0,0,0-0.1l1.7-7.1c0.3-1.1,1.1-1.3,1.9-1.3c0.8,0,1.6,0.2,1.9,1.3l1.7,7.1c0,0,0,0,0,0.1c0,0.1-0.1,0.2-0.2,0.2h-1.6
			c-0.1,0-0.2-0.1-0.2-0.2L359.8,88.9z"/>
		<path d="M364.7,95.4l1.7-3.2c-0.8-0.3-1.5-1.1-1.5-2.3v-0.1c0-2,1.5-2.7,3.5-2.7c0.8,0,1.8,0.1,2.3,0.1c0.4,0.1,0.5,0.2,0.5,0.6
			v7.7c0,0.1-0.1,0.2-0.2,0.2h-1.5c-0.1,0-0.2-0.1-0.2-0.2v-2.9c-0.2,0-0.6,0-0.8,0l-0.1,0l-1.5,2.9c-0.1,0.1-0.1,0.2-0.2,0.2h-1.8
			c-0.1,0-0.2-0.1-0.2-0.1C364.6,95.5,364.6,95.5,364.7,95.4z M366.9,89.9c0,0.8,0.4,1.1,1.6,1.1c0.1,0,0.7,0,0.8,0v-2.2
			c-0.1,0-0.7,0-0.9,0c-1,0-1.5,0.3-1.5,1V89.9z"/>
		<path d="M376.4,92.7c-0.3,0-0.6,0-0.9,0v2.8c0,0.1-0.1,0.2-0.2,0.2h-1.5c-0.1,0-0.2-0.1-0.2-0.2v-7.7c0-0.4,0.2-0.5,0.5-0.6
			c0.6-0.1,1.5-0.1,2.3-0.1c1.7,0,3.4,0.6,3.4,2.8v0.1C379.8,92.1,378.1,92.7,376.4,92.7z M377.9,89.8c0-0.8-0.5-1.1-1.5-1.1
			c-0.2,0-0.8,0-0.9,0v2.3c0.1,0,0.8,0,0.9,0c1,0,1.5-0.4,1.5-1.2V89.8z"/>
		<path d="M386.6,95.6c-0.2,0.1-0.9,0.2-1.7,0.2c-1.7,0-3.4-0.9-3.4-3.6v-1.4c0-2.7,1.7-3.6,3.4-3.6c0.8,0,1.5,0.1,1.7,0.2
			c0.2,0,0.3,0.1,0.3,0.3v1.1c0,0.1-0.1,0.2-0.2,0.2c0,0,0,0,0,0c-0.4,0-1.1-0.1-1.7-0.1c-0.8,0-1.4,0.4-1.4,1.9v1.4
			c0,1.5,0.6,1.9,1.4,1.9c0.6,0,1.3-0.1,1.7-0.1c0,0,0,0,0,0c0.1,0,0.2,0.1,0.2,0.2v1.1C386.9,95.5,386.8,95.6,386.6,95.6z"/>
		<path d="M395.5,87.5l-2.7,3.9l2.7,4.1c0,0,0,0.1,0,0.1c0,0.1-0.1,0.1-0.2,0.1h-2c-0.1,0-0.2-0.1-0.3-0.2l-2.3-3.8v3.7
			c0,0.1-0.1,0.2-0.2,0.2h-1.5c-0.1,0-0.2-0.1-0.2-0.2v-8.1c0-0.1,0.1-0.2,0.2-0.2h1.5c0.1,0,0.2,0.1,0.2,0.2V91l2.5-3.7
			c0.1-0.1,0.1-0.1,0.3-0.1h1.8c0.1,0,0.2,0.1,0.2,0.1C395.6,87.3,395.5,87.4,395.5,87.5z"/>
		<path d="M397.1,87.4c0-0.1,0.1-0.2,0.2-0.2h1.4c0.1,0,0.2,0.1,0.2,0.2v4.9c0,0.1,0,0.1,0.1,0.1c0,0,0,0,0.1-0.1l2.7-4.7
			c0.1-0.2,0.3-0.4,0.5-0.4h1.2c0.2,0,0.4,0.2,0.4,0.4v7.9c0,0.1-0.1,0.2-0.2,0.2h-1.4c-0.1,0-0.2-0.1-0.2-0.2v-4.6
			c0-0.1,0-0.1-0.1-0.1c0,0-0.1,0-0.1,0.1l-2.6,4.5c-0.2,0.3-0.4,0.4-0.6,0.4h-1.1c-0.2,0-0.4-0.2-0.4-0.4V87.4z"/>
		<path d="M406.2,87.4c0-0.1,0.1-0.2,0.2-0.2h1.4c0.1,0,0.2,0.1,0.2,0.2v4.9c0,0.1,0,0.1,0.1,0.1c0,0,0,0,0.1-0.1l2.7-4.7
			c0.1-0.2,0.3-0.4,0.5-0.4h1.2c0.2,0,0.4,0.2,0.4,0.4v7.9c0,0.1-0.1,0.2-0.2,0.2h-1.4c-0.1,0-0.2-0.1-0.2-0.2v-4.6
			c0-0.1,0-0.1-0.1-0.1c0,0-0.1,0-0.1,0.1l-2.6,4.5c-0.2,0.3-0.4,0.4-0.6,0.4h-1.1c-0.2,0-0.4-0.2-0.4-0.4V87.4z M407.4,84.9
			c0-0.1,0-0.1,0.1-0.1h1c0.1,0,0.1,0,0.1,0.1c0.1,0.5,0.4,0.7,0.9,0.7s0.7-0.2,0.9-0.7c0-0.1,0.1-0.1,0.1-0.1h1
			c0.1,0,0.1,0,0.1,0.1c-0.1,0.9-0.9,1.7-2.1,1.7C408.3,86.6,407.5,85.9,407.4,84.9z"/>
		<path d="M423.3,87.2c2,0,2.4,1,2.4,2.3v6c0,0.1-0.1,0.2-0.2,0.2H424c-0.1,0-0.2-0.1-0.2-0.2v-6c0-0.3,0-0.6-0.5-0.6h-1.8
			c-0.5,0-0.5,0.2-0.5,0.6v6c0,0.1-0.1,0.2-0.2,0.2h-1.5c-0.1,0-0.2-0.1-0.2-0.2v-6c0-1.3,0.4-2.3,2.4-2.3H423.3z"/>
		<path d="M431.2,95.8c-1.9,0-3.4-1-3.4-3.7v-1.4c0-2.7,1.5-3.7,3.4-3.7c1.9,0,3.4,1,3.4,3.7v1.4C434.6,94.8,433.1,95.8,431.2,95.8z
			 M432.7,90.8c0-1.4-0.5-2-1.4-2c-1,0-1.4,0.6-1.4,2v1.4c0,1.4,0.4,2,1.4,2c1,0,1.4-0.6,1.4-2V90.8z"/>
		<path d="M439.6,92.7c-0.3,0-0.6,0-0.9,0v2.8c0,0.1-0.1,0.2-0.2,0.2H437c-0.1,0-0.2-0.1-0.2-0.2v-7.7c0-0.4,0.2-0.5,0.5-0.6
			c0.6-0.1,1.5-0.1,2.3-0.1c1.7,0,3.4,0.6,3.4,2.8v0.1C443,92.1,441.3,92.7,439.6,92.7z M441.1,89.8c0-0.8-0.5-1.1-1.5-1.1
			c-0.2,0-0.8,0-0.9,0v2.3c0.1,0,0.8,0,0.9,0c1,0,1.5-0.4,1.5-1.2V89.8z"/>
		<path d="M450.1,88.8h-1.9v6.7c0,0.1-0.1,0.2-0.2,0.2h-1.5c-0.1,0-0.2-0.1-0.2-0.2v-6.7h-1.9c-0.1,0-0.2-0.1-0.2-0.2v-1.2
			c0-0.1,0.1-0.2,0.2-0.2h5.7c0.1,0,0.2,0.1,0.2,0.2v1.2C450.4,88.7,450.3,88.8,450.1,88.8z"/>
		<path d="M457.7,95.7h-1.6c-0.1,0-0.2-0.1-0.2-0.2l-0.4-1.9h-2.4l-0.4,1.9c0,0.1-0.1,0.2-0.2,0.2h-1.6c-0.1,0-0.2-0.1-0.2-0.2
			c0,0,0,0,0-0.1l1.7-7.1c0.3-1.1,1.1-1.3,1.9-1.3c0.8,0,1.6,0.2,1.9,1.3l1.7,7.1c0,0,0,0,0,0.1C457.9,95.6,457.8,95.7,457.7,95.7z
			 M454.4,88.9c0-0.1,0-0.2-0.1-0.2c-0.1,0-0.1,0.1-0.2,0.2l-0.7,3.2h1.7L454.4,88.9z"/>
		<path d="M462.8,88.9c0-0.1,0-0.2-0.1-0.2c-0.1,0-0.1,0.1-0.2,0.2l-1.4,6.6c0,0.1-0.1,0.2-0.2,0.2h-1.6c-0.1,0-0.2-0.1-0.2-0.2
			c0,0,0,0,0-0.1l1.7-7.1c0.3-1.1,1.1-1.3,1.9-1.3c0.8,0,1.6,0.2,1.9,1.3l1.7,7.1c0,0,0,0,0,0.1c0,0.1-0.1,0.2-0.2,0.2h-1.6
			c-0.1,0-0.2-0.1-0.2-0.2L462.8,88.9z"/>
	</g>
</g>
</svg>
