<?xml version="1.0" encoding="utf-8"?>
<!-- Generator: Adobe Illustrator 19.2.1, SVG Export Plug-In . SVG Version: 6.00 Build 0)  -->
<svg version="1.2" baseProfile="tiny" id="Layer_1" xmlns="http://www.w3.org/2000/svg" xmlns:xlink="http://www.w3.org/1999/xlink"
	 x="0px" y="0px" width="10px" height="10px" viewBox="0 0 10 10" xml:space="preserve">
<path fill="#231F20" d="M7.5,4.7C7.8,4.2,8,3.6,8,3c0-1.7-1.3-3-3-3S2,1.3,2,3c0,0.6,0.2,1.2,0.5,1.7C1,5.5,0,7.1,0,9v1h10V9
	C10,7.1,9,5.5,7.5,4.7z M4,3c0-0.6,0.4-1,1-1s1,0.4,1,1S5.6,4,5,4S4,3.6,4,3z M2.2,8C2.6,6.8,3.7,6,5,6s2.4,0.8,2.8,2H2.2z"/>
</svg>
