<svg version="1.1" id="Layer_1" xmlns="http://www.w3.org/2000/svg" xmlns:xlink="http://www.w3.org/1999/xlink" x="0px" y="0px"
	 viewBox="0 0 40 40" style="enable-background:new 0 0 40 40;" xml:space="preserve">
<style type="text/css">
	.st0{fill:url(#SVGID_1_);}
	.st1{fill:none;}
	.st2{fill:#FFFFFF;}
</style>
<linearGradient id="SVGID_1_" gradientUnits="userSpaceOnUse" x1="30.8348" y1="0.5248" x2="8.4518" y2="40.7575">
	<stop  offset="0" style="stop-color:#4845A2"/>
	<stop  offset="0.189" style="stop-color:#8744A1"/>
	<stop  offset="0.3002" style="stop-color:#A844A1"/>
	<stop  offset="0.3956" style="stop-color:#B53B85"/>
	<stop  offset="0.6003" style="stop-color:#D6243F"/>
	<stop  offset="0.6036" style="stop-color:#D7243E"/>
	<stop  offset="0.8766" style="stop-color:#F9A326"/>
</linearGradient>
<rect class="st0" width="40" height="40"/>
<path class="st1" d="M29.78-0.71h-9.56h-9.58h-1.4c-2.55,0-4.85,1.03-6.52,2.7C1.91,2.78,1.26,3.72,0.8,4.75C0.29,5.9,0,7.17,0,8.51
	v0.73v5.39v8.67v6.1v1.31c0,1.56,0.39,3.02,1.07,4.31c0.43,0.82,0.99,1.57,1.64,2.22c1.67,1.67,3.98,2.7,6.52,2.7h1.4h9.58h9.56
	h1.66c2.55,0,4.86-1.03,6.52-2.7c0.65-0.65,1.2-1.4,1.64-2.22c0.68-1.29,1.07-2.75,1.07-4.31v-1.31v-6.1v-8.67V9.25V8.51
	c0-1.34-0.29-2.61-0.8-3.76c-0.46-1.04-1.11-1.97-1.9-2.76c-1.67-1.67-3.98-2.7-6.52-2.7H29.78z"/>
<path class="st2" d="M26.64,4.74H14.02c-4.76,0-8.62,3.86-8.62,8.62v12.62c0,4.76,3.86,8.62,8.62,8.62h12.62
	c4.76,0,8.62-3.86,8.62-8.62V13.36C35.26,8.6,31.4,4.74,26.64,4.74 M32.51,26.2c0,3.16-2.56,5.72-5.72,5.72H13.87
	c-3.16,0-5.72-2.56-5.72-5.72V13.28c0-3.16,2.56-5.72,5.72-5.72h12.92c3.16,0,5.72,2.56,5.72,5.72V26.2z"/>
<path class="st2" d="M20.33,11.99c-4.28,0-7.75,3.47-7.75,7.75c0,4.28,3.47,7.75,7.75,7.75c4.28,0,7.75-3.47,7.75-7.75
	C28.08,15.46,24.61,11.99,20.33,11.99 M20.33,24.76c-2.77,0-5.02-2.25-5.02-5.02c0-2.77,2.25-5.02,5.02-5.02
	c2.77,0,5.02,2.25,5.02,5.02C25.35,22.52,23.11,24.76,20.33,24.76"/>
<path class="st2" d="M28.34,9.89c-1,0-1.8,0.81-1.8,1.8c0,1,0.81,1.8,1.8,1.8c1,0,1.8-0.81,1.8-1.8
	C30.14,10.7,29.33,9.89,28.34,9.89"/>
</svg>
