<svg id="Layer_1" data-name="Layer 1" xmlns="http://www.w3.org/2000/svg" viewBox="0 0 28.87 28.87"><defs><style>.cls-1{fill:#f56600;}.cls-2{fill:#fff;fill-rule:evenodd;}</style></defs><title>ok-ico</title><rect class="cls-1" width="28.87" height="28.87"/><path class="cls-2" d="M137.1,30.14A9.17,9.17,0,0,0,140,29a1.43,1.43,0,1,0-1.53-2.43,6.22,6.22,0,0,1-6.6,0A1.43,1.43,0,1,0,130.29,29a9,9,0,0,0,2.84,1.18l-2.74,2.74a1.43,1.43,0,1,0,2,2l2.69-2.69,2.69,2.69a1.43,1.43,0,0,0,1,.42h0a1.46,1.46,0,0,0,1-.42,1.44,1.44,0,0,0,0-2Zm-2-10.92a2,2,0,1,1-2,2,2,2,0,0,1,2-2Zm0-2.88h0A4.9,4.9,0,1,0,140,21.24a4.91,4.91,0,0,0-4.91-4.91Z" transform="translate(-120.68 -11.4)"/></svg>