<svg id="Layer_1" data-name="Layer 1" xmlns="http://www.w3.org/2000/svg" viewBox="0 0 28.87 28.87"><defs><style>.cls-1{fill:#4e759d;}.cls-2{fill:#fff;}</style></defs><title>vk-ico</title><rect class="cls-1" width="28.87" height="28.87"/><path class="cls-2" d="M187,32.44l-.07-.13a10.63,10.63,0,0,0-2-2.36l0,0h0q-.68-.65-.86-.87a.82.82,0,0,1-.15-.86,8.06,8.06,0,0,1,1-1.4l.69-.91q1.85-2.45,1.6-3.14l-.06-.11a.62.62,0,0,0-.33-.18,1.67,1.67,0,0,0-.68,0l-3.07,0a.4.4,0,0,0-.21,0l-.14,0-.05,0,0,0a.46.46,0,0,0-.12.11.73.73,0,0,0-.11.19,17.44,17.44,0,0,1-1.14,2.4q-.4.66-.73,1.15a5.57,5.57,0,0,1-.55.71,3.84,3.84,0,0,1-.41.37c-.12.09-.21.13-.28.12l-.18,0a.7.7,0,0,1-.24-.26,1.16,1.16,0,0,1-.12-.42q0-.25,0-.43c0-.12,0-.29,0-.51s0-.37,0-.45q0-.41,0-.88t0-.75q0-.28,0-.59a2.46,2.46,0,0,0,0-.49,1.64,1.64,0,0,0-.11-.34.57.57,0,0,0-.22-.26,1.23,1.23,0,0,0-.36-.14,7.15,7.15,0,0,0-1.44-.14,7,7,0,0,0-2.55.26,1.43,1.43,0,0,0-.41.32q-.19.23-.05.26a1.31,1.31,0,0,1,.91.46l.06.13a2,2,0,0,1,.15.49,4.93,4.93,0,0,1,.1.78,8.23,8.23,0,0,1,0,1.33q-.05.55-.1.86a1.73,1.73,0,0,1-.14.5,2,2,0,0,1-.13.23l-.05.05a.79.79,0,0,1-.29.05.68.68,0,0,1-.36-.15,2.56,2.56,0,0,1-.44-.41,5.48,5.48,0,0,1-.52-.73q-.29-.47-.6-1.11l-.17-.31q-.16-.3-.44-.87t-.49-1.1a.71.71,0,0,0-.26-.34l-.05,0-.17-.09a1.14,1.14,0,0,0-.25-.07l-2.92,0a.74.74,0,0,0-.61.2l0,.06a.35.35,0,0,0,0,.17.85.85,0,0,0,.06.29q.64,1.5,1.39,2.9t1.31,2.25q.56.85,1.13,1.61t.76,1l.29.32.27.26a6.26,6.26,0,0,0,.75.61,12.82,12.82,0,0,0,1.1.7,6,6,0,0,0,1.4.57,4.84,4.84,0,0,0,1.56.18h1.23a.85.85,0,0,0,.57-.23l0-.05a.71.71,0,0,0,.08-.2,1.08,1.08,0,0,0,0-.29,3.54,3.54,0,0,1,.07-.83,2.17,2.17,0,0,1,.18-.55A1.34,1.34,0,0,1,179,31a.91.91,0,0,1,.18-.15l.09,0a.68.68,0,0,1,.6.17,3.57,3.57,0,0,1,.65.62q.3.37.73.83a5.09,5.09,0,0,0,.75.68l.21.13a2.58,2.58,0,0,0,.56.23,1.19,1.19,0,0,0,.6.05l2.73,0a1.24,1.24,0,0,0,.63-.13.53.53,0,0,0,.27-.29.83.83,0,0,0,0-.36,1.39,1.39,0,0,0-.07-.28Zm0,0" transform="translate(-162.38 -13.29)"/></svg> 